<svg width="20" height="20" viewBox="0 0 20 20" fill="none" xmlns="http://www.w3.org/2000/svg">
<path fill-rule="evenodd" clip-rule="evenodd" d="M19.21 5.899V14.05C19.21 17.07 17.32 19.2 14.3 19.2H5.65C2.63 19.2 0.75 17.07 0.75 14.05V5.899C0.75 2.879 2.64 0.75 5.65 0.75H14.3C17.32 0.75 19.21 2.879 19.21 5.899Z" stroke="currentColor" stroke-width="1.5" stroke-linecap="round" stroke-linejoin="round"/>
<path opacity="0.4" d="M3.28125 14.4308L4.80925 12.8178C5.34025 12.2548 6.22525 12.2278 6.78925 12.7578C6.80625 12.7748 7.72625 13.7098 7.72625 13.7098C8.28125 14.2748 9.18825 14.2838 9.75325 13.7298C9.79025 13.6938 12.0872 10.9078 12.0872 10.9078C12.6792 10.1888 13.7422 10.0858 14.4622 10.6788C14.5102 10.7188 16.6803 12.9458 16.6803 12.9458" stroke="currentColor" stroke-width="1.5" stroke-linecap="round" stroke-linejoin="round"/>
<path opacity="0.4" fill-rule="evenodd" clip-rule="evenodd" d="M8.31257 7.13291C8.31257 8.10191 7.52757 8.88691 6.55857 8.88691C5.58957 8.88691 4.80457 8.10191 4.80457 7.13291C4.80457 6.16391 5.58957 5.37891 6.55857 5.37891C7.52757 5.37991 8.31257 6.16391 8.31257 7.13291Z" stroke="currentColor" stroke-width="1.5" stroke-linecap="round" stroke-linejoin="round"/>
</svg>
