<svg xmlns="http://www.w3.org/2000/svg" width="24" height="25" viewBox="0 0 24 25"
                                        fill="none">
                                        <path
                                            d="M12 23.1648C11.6583 23.1648 11.3289 23.041 11.0722 22.8162C10.1026 21.9684 9.16789 21.1717 8.34318 20.4689L8.33897 20.4653C5.92107 18.4048 3.83312 16.6254 2.38037 14.8725C0.756407 12.9129 0 11.0549 0 9.02522C0 7.05318 0.676207 5.23385 1.90393 3.90213C3.1463 2.55466 4.851 1.81253 6.70458 1.81253C8.08995 1.81253 9.35869 2.25052 10.4754 3.11422C11.039 3.5502 11.5499 4.08377 12 4.70614C12.4502 4.08377 12.9609 3.5502 13.5247 3.11422C14.6415 2.25052 15.9102 1.81253 17.2956 1.81253C19.149 1.81253 20.8538 2.55466 22.0962 3.90213C23.3239 5.23385 24 7.05318 24 9.02522C24 11.0549 23.2437 12.9129 21.6198 14.8723C20.167 16.6254 18.0793 18.4046 15.6617 20.4649C14.8355 21.1688 13.8993 21.9667 12.9276 22.8165C12.6711 23.041 12.3415 23.1648 12 23.1648ZM6.70458 3.21841C5.24834 3.21841 3.91058 3.79959 2.93737 4.85501C1.9497 5.92635 1.4057 7.40731 1.4057 9.02522C1.4057 10.7323 2.04016 12.259 3.4627 13.9755C4.83764 15.6346 6.88274 17.3774 9.25065 19.3954L9.25505 19.399C10.0829 20.1045 11.0213 20.9044 11.998 21.7584C12.9805 20.9027 13.9204 20.1016 14.7499 19.395C17.1176 17.377 19.1625 15.6346 20.5374 13.9755C21.9598 12.259 22.5943 10.7323 22.5943 9.02522C22.5943 7.40731 22.0503 5.92635 21.0626 4.85501C20.0896 3.79959 18.7516 3.21841 17.2956 3.21841C16.2288 3.21841 15.2494 3.55752 14.3846 4.22622C13.6139 4.82241 13.077 5.57607 12.7622 6.10342C12.6004 6.37459 12.3155 6.53646 12 6.53646C11.6845 6.53646 11.3996 6.37459 11.2377 6.10342C10.9231 5.57607 10.3863 4.82241 9.6154 4.22622C8.75059 3.55752 7.77116 3.21841 6.70458 3.21841Z"
                                            fill="#323232" />
                                    </svg>