<svg width="66" height="65" viewBox="0 0 66 65" fill="none" xmlns="http://www.w3.org/2000/svg">
<g filter="url(#filter0_d_468_32421)">
<circle cx="33" cy="32.5215" r="22" fill="white"/>
<path d="M22.588 32.9294C22.588 32.1267 22.686 31.394 22.882 30.7314C23.0873 30.0594 23.3673 29.4854 23.722 29.0094C24.0767 28.5334 24.5013 28.1647 24.996 27.9034C25.5 27.6327 26.046 27.4974 26.634 27.4974C27.222 27.4974 27.7633 27.6327 28.258 27.9034C28.7527 28.1647 29.1773 28.5334 29.532 29.0094C29.896 29.4854 30.176 30.0594 30.372 30.7314C30.5773 31.394 30.68 32.1267 30.68 32.9294C30.68 33.7414 30.5773 34.4834 30.372 35.1554C30.176 35.8274 29.9007 36.406 29.546 36.8914C29.1913 37.3674 28.762 37.7407 28.258 38.0114C27.7633 38.282 27.222 38.4174 26.634 38.4174C26.0367 38.4174 25.4907 38.282 24.996 38.0114C24.5013 37.7407 24.0767 37.3674 23.722 36.8914C23.3673 36.406 23.0873 35.8274 22.882 35.1554C22.686 34.4834 22.588 33.7414 22.588 32.9294ZM24.646 32.9434C24.646 33.4567 24.6927 33.9327 24.786 34.3714C24.8793 34.81 25.0147 35.1927 25.192 35.5194C25.3693 35.846 25.5793 36.1027 25.822 36.2894C26.0647 36.476 26.3353 36.5694 26.634 36.5694C26.9327 36.5694 27.1987 36.476 27.432 36.2894C27.6747 36.1027 27.8847 35.846 28.062 35.5194C28.2393 35.1927 28.3747 34.81 28.468 34.3714C28.5613 33.9327 28.608 33.4567 28.608 32.9434C28.608 32.4394 28.5613 31.968 28.468 31.5294C28.3747 31.0907 28.2393 30.7127 28.062 30.3954C27.8847 30.078 27.6747 29.8307 27.432 29.6534C27.1987 29.4667 26.9327 29.3734 26.634 29.3734C26.3353 29.3734 26.0647 29.4667 25.822 29.6534C25.5793 29.8307 25.3693 30.078 25.192 30.3954C25.0147 30.7127 24.8793 31.0907 24.786 31.5294C24.6927 31.968 24.646 32.4394 24.646 32.9434ZM32.1242 35.2394C32.1242 34.6607 32.2549 34.1567 32.5162 33.7274C32.7869 33.298 33.1695 32.9714 33.6642 32.7474C33.2535 32.5047 32.9409 32.1967 32.7262 31.8234C32.5115 31.45 32.4042 31.0254 32.4042 30.5494C32.4042 30.0827 32.4975 29.6627 32.6842 29.2894C32.8709 28.916 33.1229 28.5987 33.4402 28.3374C33.7575 28.0667 34.1169 27.8614 34.5182 27.7214C34.9289 27.572 35.3582 27.4974 35.8062 27.4974C36.2449 27.4974 36.6695 27.572 37.0802 27.7214C37.4909 27.8614 37.8502 28.0667 38.1582 28.3374C38.4755 28.5987 38.7275 28.916 38.9142 29.2894C39.1009 29.6627 39.1942 30.0827 39.1942 30.5494C39.1942 31.0254 39.0869 31.45 38.8722 31.8234C38.6575 32.1874 38.3449 32.4907 37.9342 32.7334C38.4382 32.9667 38.8209 33.298 39.0822 33.7274C39.3435 34.1474 39.4742 34.642 39.4742 35.2114C39.4742 35.7154 39.3715 36.1634 39.1662 36.5554C38.9609 36.9474 38.6902 37.2834 38.3542 37.5634C38.0182 37.834 37.6262 38.044 37.1782 38.1934C36.7395 38.3334 36.2822 38.4034 35.8062 38.4034C35.3302 38.4034 34.8682 38.3334 34.4202 38.1934C33.9815 38.0534 33.5895 37.848 33.2442 37.5774C32.9082 37.3067 32.6375 36.9754 32.4322 36.5834C32.2269 36.1914 32.1242 35.7434 32.1242 35.2394ZM34.2242 35.0994C34.2242 35.3234 34.2662 35.5334 34.3502 35.7294C34.4342 35.916 34.5462 36.084 34.6862 36.2334C34.8262 36.3827 34.9895 36.4994 35.1762 36.5834C35.3722 36.6674 35.5822 36.7094 35.8062 36.7094C36.0209 36.7094 36.2215 36.6674 36.4082 36.5834C36.6042 36.4994 36.7722 36.3874 36.9122 36.2474C37.0615 36.098 37.1782 35.93 37.2622 35.7434C37.3462 35.5474 37.3882 35.3374 37.3882 35.1134C37.3882 34.8894 37.3462 34.684 37.2622 34.4974C37.1782 34.3014 37.0615 34.1334 36.9122 33.9934C36.7722 33.8534 36.6042 33.7414 36.4082 33.6574C36.2215 33.5734 36.0209 33.5314 35.8062 33.5314C35.5915 33.5314 35.3862 33.5734 35.1902 33.6574C35.0035 33.7414 34.8355 33.8534 34.6862 33.9934C34.5462 34.1334 34.4342 34.3014 34.3502 34.4974C34.2662 34.684 34.2242 34.8847 34.2242 35.0994ZM34.4202 30.6194C34.4202 30.806 34.4529 30.988 34.5182 31.1654C34.5929 31.3334 34.6909 31.4827 34.8122 31.6134C34.9429 31.7347 35.0922 31.8327 35.2602 31.9074C35.4282 31.982 35.6102 32.0194 35.8062 32.0194C35.9929 32.0194 36.1702 31.982 36.3382 31.9074C36.5062 31.8327 36.6509 31.7347 36.7722 31.6134C36.9029 31.4827 37.0009 31.3334 37.0662 31.1654C37.1409 30.988 37.1782 30.806 37.1782 30.6194C37.1782 30.2274 37.0429 29.9007 36.7722 29.6394C36.5109 29.3687 36.1889 29.2334 35.8062 29.2334C35.4142 29.2334 35.0829 29.3687 34.8122 29.6394C34.5509 29.9007 34.4202 30.2274 34.4202 30.6194Z" fill="#FF4600"/>
</g>
<defs>
<filter id="filter0_d_468_32421" x="0.523809" y="0.0452938" width="64.9524" height="64.9524" filterUnits="userSpaceOnUse" color-interpolation-filters="sRGB">
<feFlood flood-opacity="0" result="BackgroundImageFix"/>
<feColorMatrix in="SourceAlpha" type="matrix" values="0 0 0 0 0 0 0 0 0 0 0 0 0 0 0 0 0 0 127 0" result="hardAlpha"/>
<feOffset/>
<feGaussianBlur stdDeviation="5.2381"/>
<feComposite in2="hardAlpha" operator="out"/>
<feColorMatrix type="matrix" values="0 0 0 0 0 0 0 0 0 0 0 0 0 0 0 0 0 0 0.12 0"/>
<feBlend mode="normal" in2="BackgroundImageFix" result="effect1_dropShadow_468_32421"/>
<feBlend mode="normal" in="SourceGraphic" in2="effect1_dropShadow_468_32421" result="shape"/>
</filter>
</defs>
</svg>
