<svg width="66" height="65" viewBox="0 0 66 65" fill="none" xmlns="http://www.w3.org/2000/svg">
<g filter="url(#filter0_d_468_32393)">
<circle cx="33" cy="32.5215" r="22" fill="white"/>
<path d="M24.6827 32.9303C24.6827 32.1277 24.7807 31.395 24.9767 30.7323C25.1821 30.0603 25.4621 29.4863 25.8167 29.0103C26.1714 28.5343 26.5961 28.1657 27.0907 27.9043C27.5947 27.6337 28.1407 27.4983 28.7287 27.4983C29.3167 27.4983 29.8581 27.6337 30.3527 27.9043C30.8474 28.1657 31.2721 28.5343 31.6267 29.0103C31.9907 29.4863 32.2707 30.0603 32.4667 30.7323C32.6721 31.395 32.7747 32.1277 32.7747 32.9303C32.7747 33.7423 32.6721 34.4843 32.4667 35.1563C32.2707 35.8283 31.9954 36.407 31.6407 36.8923C31.2861 37.3683 30.8567 37.7417 30.3527 38.0123C29.8581 38.283 29.3167 38.4183 28.7287 38.4183C28.1314 38.4183 27.5854 38.283 27.0907 38.0123C26.5961 37.7417 26.1714 37.3683 25.8167 36.8923C25.4621 36.407 25.1821 35.8283 24.9767 35.1563C24.7807 34.4843 24.6827 33.7423 24.6827 32.9303ZM26.7407 32.9443C26.7407 33.4577 26.7874 33.9337 26.8807 34.3723C26.9741 34.811 27.1094 35.1937 27.2867 35.5203C27.4641 35.847 27.6741 36.1037 27.9167 36.2903C28.1594 36.477 28.4301 36.5703 28.7287 36.5703C29.0274 36.5703 29.2934 36.477 29.5267 36.2903C29.7694 36.1037 29.9794 35.847 30.1567 35.5203C30.3341 35.1937 30.4694 34.811 30.5627 34.3723C30.6561 33.9337 30.7027 33.4577 30.7027 32.9443C30.7027 32.4403 30.6561 31.969 30.5627 31.5303C30.4694 31.0917 30.3341 30.7137 30.1567 30.3963C29.9794 30.079 29.7694 29.8317 29.5267 29.6543C29.2934 29.4677 29.0274 29.3743 28.7287 29.3743C28.4301 29.3743 28.1594 29.4677 27.9167 29.6543C27.6741 29.8317 27.4641 30.079 27.2867 30.3963C27.1094 30.7137 26.9741 31.0917 26.8807 31.5303C26.7874 31.969 26.7407 32.4403 26.7407 32.9443ZM35.1709 38.2363V29.6263L33.4069 29.6543L34.0649 27.7223L37.2989 27.6803V38.2363H35.1709Z" fill="#FF4600"/>
</g>
<defs>
<filter id="filter0_d_468_32393" x="0.523809" y="0.0452938" width="64.9524" height="64.9524" filterUnits="userSpaceOnUse" color-interpolation-filters="sRGB">
<feFlood flood-opacity="0" result="BackgroundImageFix"/>
<feColorMatrix in="SourceAlpha" type="matrix" values="0 0 0 0 0 0 0 0 0 0 0 0 0 0 0 0 0 0 127 0" result="hardAlpha"/>
<feOffset/>
<feGaussianBlur stdDeviation="5.2381"/>
<feComposite in2="hardAlpha" operator="out"/>
<feColorMatrix type="matrix" values="0 0 0 0 0 0 0 0 0 0 0 0 0 0 0 0 0 0 0.12 0"/>
<feBlend mode="normal" in2="BackgroundImageFix" result="effect1_dropShadow_468_32393"/>
<feBlend mode="normal" in="SourceGraphic" in2="effect1_dropShadow_468_32393" result="shape"/>
</filter>
</defs>
</svg>
