<svg width="66" height="66" viewBox="0 0 66 66" fill="none" xmlns="http://www.w3.org/2000/svg">
<g filter="url(#filter0_d_468_32417)">
<circle cx="33" cy="32.6641" r="22" fill="white"/>
<path d="M22.588 33.0719C22.588 32.2693 22.686 31.5366 22.882 30.8739C23.0873 30.2019 23.3673 29.6279 23.722 29.1519C24.0767 28.6759 24.5013 28.3073 24.996 28.0459C25.5 27.7753 26.046 27.6399 26.634 27.6399C27.222 27.6399 27.7633 27.7753 28.258 28.0459C28.7527 28.3073 29.1773 28.6759 29.532 29.1519C29.896 29.6279 30.176 30.2019 30.372 30.8739C30.5773 31.5366 30.68 32.2693 30.68 33.0719C30.68 33.8839 30.5773 34.6259 30.372 35.2979C30.176 35.9699 29.9007 36.5486 29.546 37.0339C29.1913 37.5099 28.762 37.8833 28.258 38.1539C27.7633 38.4246 27.222 38.5599 26.634 38.5599C26.0367 38.5599 25.4907 38.4246 24.996 38.1539C24.5013 37.8833 24.0767 37.5099 23.722 37.0339C23.3673 36.5486 23.0873 35.9699 22.882 35.2979C22.686 34.6259 22.588 33.8839 22.588 33.0719ZM24.646 33.0859C24.646 33.5993 24.6927 34.0753 24.786 34.5139C24.8793 34.9526 25.0147 35.3353 25.192 35.6619C25.3693 35.9886 25.5793 36.2453 25.822 36.4319C26.0647 36.6186 26.3353 36.7119 26.634 36.7119C26.9327 36.7119 27.1987 36.6186 27.432 36.4319C27.6747 36.2453 27.8847 35.9886 28.062 35.6619C28.2393 35.3353 28.3747 34.9526 28.468 34.5139C28.5613 34.0753 28.608 33.5993 28.608 33.0859C28.608 32.5819 28.5613 32.1106 28.468 31.6719C28.3747 31.2333 28.2393 30.8553 28.062 30.5379C27.8847 30.2206 27.6747 29.9733 27.432 29.7959C27.1987 29.6093 26.9327 29.5159 26.634 29.5159C26.3353 29.5159 26.0647 29.6093 25.822 29.7959C25.5793 29.9733 25.3693 30.2206 25.192 30.5379C25.0147 30.8553 24.8793 31.2333 24.786 31.6719C24.6927 32.1106 24.646 32.5819 24.646 33.0859ZM33.7788 38.3779H31.4548L36.7748 29.7539H31.6928V27.8219H40.1208V27.8499L33.7788 38.3779Z" fill="#FF4600"/>
</g>
<defs>
<filter id="filter0_d_468_32417" x="0.523809" y="0.187872" width="64.9524" height="64.9524" filterUnits="userSpaceOnUse" color-interpolation-filters="sRGB">
<feFlood flood-opacity="0" result="BackgroundImageFix"/>
<feColorMatrix in="SourceAlpha" type="matrix" values="0 0 0 0 0 0 0 0 0 0 0 0 0 0 0 0 0 0 127 0" result="hardAlpha"/>
<feOffset/>
<feGaussianBlur stdDeviation="5.2381"/>
<feComposite in2="hardAlpha" operator="out"/>
<feColorMatrix type="matrix" values="0 0 0 0 0 0 0 0 0 0 0 0 0 0 0 0 0 0 0.12 0"/>
<feBlend mode="normal" in2="BackgroundImageFix" result="effect1_dropShadow_468_32417"/>
<feBlend mode="normal" in="SourceGraphic" in2="effect1_dropShadow_468_32417" result="shape"/>
</filter>
</defs>
</svg>
