<svg width="66" height="66" viewBox="0 0 66 66" fill="none" xmlns="http://www.w3.org/2000/svg">
<g filter="url(#filter0_d_468_32405)">
<circle cx="33" cy="33.0928" r="22" fill="white"/>
<path d="M22.588 33.5006C22.588 32.698 22.686 31.9653 22.882 31.3026C23.0873 30.6306 23.3673 30.0566 23.722 29.5806C24.0767 29.1046 24.5013 28.736 24.996 28.4746C25.5 28.204 26.046 28.0686 26.634 28.0686C27.222 28.0686 27.7633 28.204 28.258 28.4746C28.7527 28.736 29.1773 29.1046 29.532 29.5806C29.896 30.0566 30.176 30.6306 30.372 31.3026C30.5773 31.9653 30.68 32.698 30.68 33.5006C30.68 34.3126 30.5773 35.0546 30.372 35.7266C30.176 36.3986 29.9007 36.9773 29.546 37.4626C29.1913 37.9386 28.762 38.312 28.258 38.5826C27.7633 38.8533 27.222 38.9886 26.634 38.9886C26.0367 38.9886 25.4907 38.8533 24.996 38.5826C24.5013 38.312 24.0767 37.9386 23.722 37.4626C23.3673 36.9773 23.0873 36.3986 22.882 35.7266C22.686 35.0546 22.588 34.3126 22.588 33.5006ZM24.646 33.5146C24.646 34.028 24.6927 34.504 24.786 34.9426C24.8793 35.3813 25.0147 35.764 25.192 36.0906C25.3693 36.4173 25.5793 36.674 25.822 36.8606C26.0647 37.0473 26.3353 37.1406 26.634 37.1406C26.9327 37.1406 27.1987 37.0473 27.432 36.8606C27.6747 36.674 27.8847 36.4173 28.062 36.0906C28.2393 35.764 28.3747 35.3813 28.468 34.9426C28.5613 34.504 28.608 34.028 28.608 33.5146C28.608 33.0106 28.5613 32.5393 28.468 32.1006C28.3747 31.662 28.2393 31.284 28.062 30.9666C27.8847 30.6493 27.6747 30.402 27.432 30.2246C27.1987 30.038 26.9327 29.9446 26.634 29.9446C26.3353 29.9446 26.0647 30.038 25.822 30.2246C25.5793 30.402 25.3693 30.6493 25.192 30.9666C25.0147 31.284 24.8793 31.662 24.786 32.1006C24.6927 32.5393 24.646 33.0106 24.646 33.5146ZM31.6762 36.7626V35.5726L37.0382 28.2506H38.6622V34.9566H39.8242V36.7626H38.6342L38.6622 38.8066H36.5902L36.6182 36.7626H31.6762ZM36.6322 34.9706V32.5626C36.6322 32.432 36.6322 32.2966 36.6322 32.1566C36.6415 32.0073 36.6509 31.8533 36.6602 31.6946L34.2242 34.9846L36.6322 34.9706Z" fill="#FF4600"/>
</g>
<defs>
<filter id="filter0_d_468_32405" x="0.523809" y="0.616583" width="64.9524" height="64.9524" filterUnits="userSpaceOnUse" color-interpolation-filters="sRGB">
<feFlood flood-opacity="0" result="BackgroundImageFix"/>
<feColorMatrix in="SourceAlpha" type="matrix" values="0 0 0 0 0 0 0 0 0 0 0 0 0 0 0 0 0 0 127 0" result="hardAlpha"/>
<feOffset/>
<feGaussianBlur stdDeviation="5.2381"/>
<feComposite in2="hardAlpha" operator="out"/>
<feColorMatrix type="matrix" values="0 0 0 0 0 0 0 0 0 0 0 0 0 0 0 0 0 0 0.12 0"/>
<feBlend mode="normal" in2="BackgroundImageFix" result="effect1_dropShadow_468_32405"/>
<feBlend mode="normal" in="SourceGraphic" in2="effect1_dropShadow_468_32405" result="shape"/>
</filter>
</defs>
</svg>
