<svg width="600" height="350" viewBox="0 0 600 350" fill="none" xmlns="http://www.w3.org/2000/svg">
<path d="M574.986 153.949C567.37 138.859 566.865 121.585 566.382 104.879L566.302 102.229C565.784 85.0965 564.478 67.1889 554.918 53.0934C546.69 40.9613 531.298 32.9099 516.168 31.5321C508.879 17.1197 493.553 6.75721 477.426 2.94501C457.469 -1.77401 436.507 1.76084 416.602 6.70877C396.698 11.6567 376.931 18.0441 356.443 19.061C335.954 20.0823 314.017 14.8922 299.998 0C285.979 14.8922 264.042 20.0779 243.553 19.061C223.064 18.0397 203.297 11.6567 183.393 6.70877C163.489 1.76084 142.531 -1.77401 122.569 2.94501C106.442 6.75721 91.1165 17.1197 83.8279 31.5321C68.6972 32.9099 53.3096 40.9613 45.0823 53.0934C35.522 67.1889 34.2158 85.0965 33.6977 102.229L33.6179 104.879C33.1309 121.585 32.6305 138.859 25.0142 153.949C18.9787 165.897 11.9691 172.231 0 175C11.9691 177.769 18.9832 184.103 25.0142 196.051C32.6305 211.141 33.1353 228.415 33.6179 245.121L33.6977 247.771C34.2158 264.904 35.522 282.811 45.0823 296.907C53.3096 309.039 68.7016 317.09 83.8279 318.468C91.1165 332.88 106.442 343.243 122.569 347.055C142.527 351.774 163.489 348.239 183.393 343.291C203.297 338.343 223.064 331.956 243.553 330.939C264.042 329.922 285.979 335.108 299.998 350C314.013 335.108 335.949 329.922 356.443 330.939C376.936 331.956 396.698 338.343 416.602 343.291C436.507 348.239 457.469 351.77 477.426 347.055C493.553 343.243 508.879 332.88 516.168 318.468C531.298 317.09 546.686 309.039 554.918 296.907C564.478 282.811 565.784 264.904 566.302 247.771L566.382 245.121C566.865 228.415 567.37 211.141 574.986 196.051C581.017 184.103 588.035 177.769 600 175C588.035 172.231 581.017 165.897 574.986 153.949Z" fill="white" fill-opacity="0.05"/>
<path d="M515.632 31.8029L515.782 32.0995L516.113 32.1296C531.094 33.4938 546.31 41.4697 554.421 53.4302C563.871 67.3635 565.184 85.1011 565.703 102.247L565.782 104.897L565.783 104.924C566.265 121.595 566.768 138.998 574.45 154.22C577.488 160.237 580.794 164.881 584.878 168.373C588.443 171.421 592.577 173.57 597.594 175C592.577 176.43 588.443 178.58 584.878 181.627C580.794 185.119 577.488 189.763 574.45 195.78C566.768 211.002 566.265 228.405 565.783 245.076L565.782 245.103L565.703 247.753C565.184 264.899 563.871 282.637 554.421 296.57C546.306 308.53 531.094 316.506 516.113 317.87L515.782 317.901L515.632 318.197C508.44 332.419 493.282 342.69 477.288 346.471C457.479 351.151 436.636 347.653 416.747 342.709C412.591 341.676 408.435 340.578 404.272 339.478C388.552 335.325 372.735 331.147 356.472 330.34C336.093 329.328 314.194 334.415 299.998 349.13C285.797 334.415 263.898 329.328 243.523 330.34C227.262 331.147 211.442 335.326 195.72 339.479C191.558 340.578 187.403 341.676 183.249 342.709C163.359 347.653 142.516 351.155 122.707 346.471C106.714 342.69 91.5558 332.419 84.3633 318.197L84.2134 317.901L83.8824 317.87C68.9056 316.506 53.6898 308.53 45.5788 296.57C36.1286 282.637 34.8159 264.899 34.2974 247.753L34.2177 245.103L34.2177 245.103L34.2169 245.076C33.7352 228.404 33.2324 211.002 25.5499 195.78L25.0142 196.051L25.5498 195.78C22.5123 189.763 19.2073 185.119 15.1238 181.627C11.5591 178.58 7.42498 176.43 2.40629 175C7.42476 173.57 11.558 171.42 15.1222 168.373C19.2051 164.881 22.5101 160.237 25.5498 154.22L25.5499 154.22C33.2229 139.017 33.7296 121.639 34.2151 104.987L34.2177 104.897L34.2177 104.897L34.2974 102.247C34.8159 85.1011 36.1286 67.3635 45.5788 53.4302L45.5788 53.4302C53.6898 41.4697 68.9012 33.4938 83.8823 32.1296L84.2133 32.0995L84.3633 31.8029C91.5558 17.5807 106.714 7.30957 122.707 3.52892L122.569 2.94501L122.707 3.52892C142.521 -1.15506 163.359 2.34683 183.249 7.29105C187.399 8.32269 191.549 9.41884 195.706 10.5168C211.433 14.6702 227.257 18.8495 243.523 19.6602L243.523 19.6602C263.898 20.6715 285.797 15.5854 299.998 0.869648C314.198 15.5855 336.098 20.6758 356.472 19.6602C372.733 18.8532 388.553 14.6741 404.275 10.5209C408.437 9.42144 412.593 8.32382 416.747 7.29105C436.636 2.34683 457.479 -1.15506 477.288 3.52891C493.282 7.30957 508.44 17.5807 515.632 31.8029Z" stroke="url(#paint0_linear_30_4)" stroke-opacity="0.5" stroke-width="1.2"/>
<defs>
<linearGradient id="paint0_linear_30_4" x1="300" y1="0" x2="300" y2="350" gradientUnits="userSpaceOnUse">
<stop offset="0.05" stop-color="#D57490"/>
<stop offset="0.535" stop-color="#C725D6"/>
</linearGradient>
</defs>
</svg>
