<svg width="720" height="457" viewBox="0 0 720 457" fill="none" xmlns="http://www.w3.org/2000/svg">
<g filter="url(#filter0_bd_48_4)">
<path d="M622.986 196.231C615.37 181.701 614.865 165.069 614.382 148.984L614.302 146.432C613.784 129.936 612.478 112.693 602.918 99.1214C594.69 87.4399 579.298 79.6876 564.168 78.3609C556.879 64.4838 541.553 54.5062 525.426 50.8356C505.469 46.2919 484.507 49.6954 464.602 54.4596C444.698 59.2237 424.931 65.3739 404.443 66.353C383.954 67.3363 362.017 62.3391 347.998 48C333.979 62.3391 312.042 67.3321 291.553 66.353C271.064 65.3697 251.297 59.2237 231.393 54.4596C211.489 49.6954 190.531 46.2919 170.569 50.8356C154.442 54.5062 139.117 64.4838 131.828 78.3609C116.697 79.6876 101.31 87.4399 93.0823 99.1214C83.522 112.693 82.2158 129.936 81.6977 146.432L81.6179 148.984C81.1309 165.069 80.6305 181.701 73.0142 196.231C66.9787 207.735 59.9691 213.834 48 216.5C59.9691 219.166 66.9832 225.265 73.0142 236.769C80.6305 251.299 81.1353 267.931 81.6179 284.016L81.6977 286.568C82.2158 303.064 83.522 320.307 93.0823 333.879C101.31 345.56 116.702 353.312 131.828 354.639C139.117 368.516 154.442 378.494 170.569 382.164C190.527 386.708 211.489 383.304 231.393 378.54C251.297 373.776 271.064 367.626 291.553 366.647C312.042 365.668 333.979 370.661 347.998 385C362.013 370.661 383.949 365.668 404.443 366.647C424.936 367.626 444.698 373.776 464.602 378.54C484.507 383.304 505.469 386.704 525.426 382.164C541.553 378.494 556.879 368.516 564.168 354.639C579.298 353.312 594.686 345.56 602.918 333.879C612.478 320.307 613.784 303.064 614.302 286.568L614.382 284.016C614.865 267.931 615.37 251.299 622.986 236.769C629.017 225.265 636.035 219.166 648 216.5C636.035 213.834 629.017 207.735 622.986 196.231Z" fill="white" fill-opacity="0.05" shape-rendering="crispEdges"/>
<path d="M563.789 78.93L563.636 78.6399C556.448 64.9543 541.294 55.0624 525.293 51.4207L525.426 50.8356L525.293 51.4207C505.479 46.9095 484.632 50.2825 464.742 55.0431C460.587 56.0377 456.431 57.0946 452.269 58.1533C436.547 62.1522 420.73 66.1754 404.471 66.9523C384.099 67.9301 362.199 63.0291 347.998 48.853C333.797 63.0291 311.897 67.9259 291.524 66.9523L291.524 66.9523C275.261 66.1718 259.439 62.1484 243.713 58.1494C239.555 57.0921 235.404 56.0366 231.254 55.0431C211.364 50.2825 190.521 46.9095 170.702 51.4207C154.702 55.0624 139.547 64.9543 132.359 78.6399L132.207 78.93L131.88 78.9586C116.891 80.2728 101.68 87.9558 93.5728 99.4669L93.5728 99.4669C84.1285 112.874 82.8159 129.942 82.2974 146.451C82.2974 146.451 82.2974 146.451 82.2974 146.451M563.789 78.93L81.6977 146.432L82.2974 146.451M563.789 78.93L564.115 78.9586C579.104 80.2728 594.32 87.9559 602.427 99.4669C611.872 112.874 613.184 129.942 613.703 146.451L613.782 149.002L613.783 149.032C614.265 165.082 614.768 181.846 622.454 196.51L622.986 196.231L622.454 196.51C625.493 202.306 628.801 206.78 632.886 210.143C636.432 213.061 640.539 215.124 645.517 216.5C640.539 217.877 636.432 219.939 632.886 222.857C628.801 226.22 625.493 230.694 622.454 236.49L622.986 236.769L622.454 236.49C614.768 251.154 614.265 267.918 613.783 283.968L613.782 283.997L613.703 286.549C613.184 303.058 611.872 320.126 602.427 333.533C594.316 345.044 579.104 352.727 564.115 354.041L563.789 354.07L563.636 354.36C556.448 368.046 541.294 377.938 525.293 381.579C505.479 386.086 484.631 382.717 464.742 377.957C460.586 376.962 456.429 375.905 452.266 374.846C436.546 370.847 420.732 366.825 404.471 366.048C384.095 365.074 362.194 369.971 347.998 384.147C333.797 369.971 311.897 365.074 291.524 366.048C275.266 366.825 259.448 370.848 243.727 374.847C239.564 375.905 235.409 376.962 231.254 377.957C211.364 382.717 190.517 386.091 170.702 381.579L170.569 382.164L170.702 381.579C154.702 377.938 139.547 368.046 132.359 354.36L132.207 354.07L131.88 354.041C116.896 352.727 101.68 345.044 93.5728 333.533C84.1285 320.126 82.8159 303.058 82.2974 286.549L82.2177 283.998L82.2177 283.997L82.2168 283.968C81.7352 267.918 81.2321 251.154 73.5456 236.49L73.0142 236.769L73.5456 236.49C70.5066 230.694 67.1999 226.22 63.1152 222.857C59.5701 219.939 55.463 217.876 50.4842 216.5C55.4627 215.124 59.5689 213.061 63.1136 210.143C67.1977 206.78 70.5044 202.306 73.5455 196.51L73.5456 196.51C81.2226 181.864 81.7295 165.123 82.215 149.092L82.2177 149.003L82.2177 149.002M563.789 78.93L82.2177 149.002M82.2974 146.451L82.2177 149.002M82.2974 146.451L82.2177 149.002" stroke="url(#paint0_linear_48_4)" stroke-opacity="0.5" stroke-width="1.2" shape-rendering="crispEdges"/>
</g>
<defs>
<filter id="filter0_bd_48_4" x="-72" y="-72" width="840" height="577" filterUnits="userSpaceOnUse" color-interpolation-filters="sRGB">
<feFlood flood-opacity="0" result="BackgroundImageFix"/>
<feGaussianBlur in="BackgroundImageFix" stdDeviation="60"/>
<feComposite in2="SourceAlpha" operator="in" result="effect1_backgroundBlur_48_4"/>
<feColorMatrix in="SourceAlpha" type="matrix" values="0 0 0 0 0 0 0 0 0 0 0 0 0 0 0 0 0 0 127 0" result="hardAlpha"/>
<feOffset dx="12" dy="12"/>
<feGaussianBlur stdDeviation="30"/>
<feComposite in2="hardAlpha" operator="out"/>
<feColorMatrix type="matrix" values="0 0 0 0 0.620145 0 0 0 0 0.249359 0 0 0 0 0.565884 0 0 0 0.25 0"/>
<feBlend mode="normal" in2="effect1_backgroundBlur_48_4" result="effect2_dropShadow_48_4"/>
<feBlend mode="normal" in="SourceGraphic" in2="effect2_dropShadow_48_4" result="shape"/>
</filter>
<linearGradient id="paint0_linear_48_4" x1="348" y1="48" x2="348" y2="385" gradientUnits="userSpaceOnUse">
<stop offset="0.05" stop-color="#D57490"/>
<stop offset="0.535" stop-color="#C725D6"/>
</linearGradient>
</defs>
</svg>
