<svg width="707" height="470" viewBox="0 0 707 470" fill="none" xmlns="http://www.w3.org/2000/svg">
<g filter="url(#filter0_bd_30_3)">
<path d="M609.986 201.949C602.37 186.859 601.865 169.585 601.382 152.879L601.302 150.229C600.784 133.096 599.478 115.189 589.918 101.093C581.69 88.9613 566.298 80.9099 551.168 79.5321C543.879 65.1197 528.553 54.7572 512.426 50.945C492.469 46.226 471.507 49.7608 451.602 54.7088C431.698 59.6567 411.931 66.0441 391.443 67.061C370.954 68.0823 349.017 62.8922 334.998 48C320.979 62.8922 299.042 68.0779 278.553 67.061C258.064 66.0397 238.297 59.6567 218.393 54.7088C198.489 49.7608 177.531 46.226 157.569 50.945C141.442 54.7572 126.117 65.1197 118.828 79.5321C103.697 80.9099 88.3096 88.9613 80.0823 101.093C70.522 115.189 69.2158 133.096 68.6977 150.229L68.6179 152.879C68.1309 169.585 67.6305 186.859 60.0142 201.949C53.9787 213.897 46.9691 220.231 35 223C46.9691 225.769 53.9832 232.103 60.0142 244.051C67.6305 259.141 68.1353 276.415 68.6179 293.121L68.6977 295.771C69.2158 312.904 70.522 330.811 80.0823 344.907C88.3096 357.039 103.702 365.09 118.828 366.468C126.117 380.88 141.442 391.243 157.569 395.055C177.527 399.774 198.489 396.239 218.393 391.291C238.297 386.343 258.064 379.956 278.553 378.939C299.042 377.922 320.979 383.108 334.998 398C349.013 383.108 370.949 377.922 391.443 378.939C411.936 379.956 431.698 386.343 451.602 391.291C471.507 396.239 492.469 399.77 512.426 395.055C528.553 391.243 543.879 380.88 551.168 366.468C566.298 365.09 581.686 357.039 589.918 344.907C599.478 330.811 600.784 312.904 601.302 295.771L601.382 293.121C601.865 276.415 602.37 259.141 609.986 244.051C616.017 232.103 623.035 225.769 635 223C623.035 220.231 616.017 213.897 609.986 201.949Z" fill="white" fill-opacity="0.05"/>
<path d="M550.632 79.8029L550.782 80.0995L551.113 80.1296C566.094 81.4938 581.31 89.4697 589.421 101.43C598.871 115.364 600.184 133.101 600.703 150.247L600.782 152.897L600.783 152.924C601.265 169.595 601.768 186.998 609.45 202.22C612.488 208.237 615.794 212.881 619.878 216.373C623.443 219.421 627.577 221.57 632.594 223C627.577 224.43 623.443 226.58 619.878 229.627C615.794 233.119 612.488 237.763 609.45 243.78C601.768 259.002 601.265 276.405 600.783 293.076L600.782 293.103L600.703 295.753C600.184 312.899 598.871 330.637 589.421 344.57C581.306 356.53 566.094 364.506 551.113 365.87L550.782 365.901L550.632 366.197C543.44 380.419 528.282 390.69 512.288 394.471C492.479 399.151 471.636 395.653 451.747 390.709C447.591 389.676 443.435 388.578 439.272 387.478C423.552 383.325 407.735 379.147 391.472 378.34C371.093 377.328 349.194 382.415 334.998 397.13C320.797 382.415 298.898 377.328 278.523 378.34C262.262 379.147 246.442 383.326 230.72 387.479C226.558 388.578 222.403 389.676 218.249 390.709C198.359 395.653 177.516 399.155 157.707 394.471C141.714 390.69 126.556 380.419 119.363 366.197L119.213 365.901L118.882 365.87C103.906 364.506 88.6898 356.53 80.5788 344.57C71.1286 330.637 69.8159 312.899 69.2974 295.753L69.2177 293.103L69.2177 293.103L69.2169 293.076C68.7352 276.404 68.2324 259.002 60.5499 243.78L60.0142 244.051L60.5498 243.78C57.5123 237.763 54.2073 233.119 50.1238 229.627C46.5591 226.58 42.425 224.43 37.4063 223C42.4248 221.57 46.558 219.42 50.1222 216.373C54.2051 212.881 57.5101 208.237 60.5498 202.22L60.5499 202.22C68.2229 187.017 68.7296 169.639 69.2151 152.987L69.2177 152.897L69.2177 152.897L69.2974 150.247C69.8159 133.101 71.1286 115.364 80.5788 101.43L80.5788 101.43C88.6898 89.4697 103.901 81.4938 118.882 80.1296L119.213 80.0995L119.363 79.8029C126.556 65.5807 141.714 55.3096 157.707 51.5289L157.569 50.945L157.707 51.5289C177.521 46.8449 198.359 50.3468 218.249 55.291C222.399 56.3227 226.549 57.4188 230.706 58.5168C246.433 62.6702 262.257 66.8495 278.523 67.6602L278.523 67.6602C298.898 68.6715 320.797 63.5854 334.998 48.8696C349.198 63.5855 371.098 68.6758 391.472 67.6602C407.733 66.8532 423.553 62.6741 439.275 58.5209C443.437 57.4214 447.593 56.3238 451.747 55.291C471.636 50.3468 492.479 46.8449 512.288 51.5289C528.282 55.3096 543.44 65.5807 550.632 79.8029Z" stroke="url(#paint0_linear_30_3)" stroke-opacity="0.5" stroke-width="1.2"/>
</g>
<defs>
<filter id="filter0_bd_30_3" x="-85" y="-72" width="840" height="590" filterUnits="userSpaceOnUse" color-interpolation-filters="sRGB">
<feFlood flood-opacity="0" result="BackgroundImageFix"/>
<feGaussianBlur in="BackgroundImageFix" stdDeviation="60"/>
<feComposite in2="SourceAlpha" operator="in" result="effect1_backgroundBlur_30_3"/>
<feColorMatrix in="SourceAlpha" type="matrix" values="0 0 0 0 0 0 0 0 0 0 0 0 0 0 0 0 0 0 127 0" result="hardAlpha"/>
<feOffset dx="12" dy="12"/>
<feGaussianBlur stdDeviation="30"/>
<feComposite in2="hardAlpha" operator="out"/>
<feColorMatrix type="matrix" values="0 0 0 0 0.620145 0 0 0 0 0.249359 0 0 0 0 0.565884 0 0 0 0.25 0"/>
<feBlend mode="normal" in2="effect1_backgroundBlur_30_3" result="effect2_dropShadow_30_3"/>
<feBlend mode="normal" in="SourceGraphic" in2="effect2_dropShadow_30_3" result="shape"/>
</filter>
<linearGradient id="paint0_linear_30_3" x1="335" y1="48" x2="335" y2="398" gradientUnits="userSpaceOnUse">
<stop offset="0.05" stop-color="#D57490"/>
<stop offset="0.535" stop-color="#C725D6"/>
</linearGradient>
</defs>
</svg>
