<svg width="26" height="27" viewBox="0 0 26 27" fill="none" xmlns="http://www.w3.org/2000/svg">
<path fill-rule="evenodd" clip-rule="evenodd" d="M18.1455 11.6041H21.6663C21.9448 11.6041 22.2167 11.6323 22.4788 11.6854V3.74996C22.4788 2.70238 21.6306 1.85413 20.583 1.85413H11.9163C10.8688 1.85413 10.0205 2.70238 10.0205 3.74996V4.02079H14.6247C15.5585 4.02079 16.4544 4.39129 17.1142 5.05213C17.775 5.71188 18.1455 6.60779 18.1455 7.54163V11.6041Z" fill="white"/>
<path fill-rule="evenodd" clip-rule="evenodd" d="M3.52051 7.89371C3.78267 7.84063 4.05459 7.81246 4.33301 7.81246H11.3433C12.6552 7.81246 13.8858 8.44621 14.6485 9.51329L16.0612 11.4904C16.1121 11.5619 16.1944 11.6041 16.2811 11.6041H17.0622V7.54163C17.0622 6.89488 16.8054 6.27521 16.3483 5.81804C15.8911 5.36088 15.2714 5.10413 14.6247 5.10413H5.41634C4.36876 5.10413 3.52051 5.95346 3.52051 6.99996V7.89371Z" fill="white"/>
<path fill-rule="evenodd" clip-rule="evenodd" d="M21.6665 25.1458C23.311 25.1458 24.6457 23.8111 24.6457 22.1666V15.6666C24.6457 14.0221 23.311 12.6874 21.6665 12.6874H16.2813C15.8447 12.6874 15.4341 12.4762 15.1795 12.1208L13.7679 10.1438C13.2078 9.3605 12.3054 8.89575 11.3434 8.89575C9.11717 8.89575 4.33317 8.89575 4.33317 8.89575C2.68867 8.89575 1.354 10.2304 1.354 11.8749V22.1666C1.354 23.8111 2.68867 25.1458 4.33317 25.1458H21.6665ZM6.49984 20.8124H9.74984C10.1983 20.8124 10.5623 20.4484 10.5623 19.9999C10.5623 19.5514 10.1983 19.1874 9.74984 19.1874H6.49984C6.05134 19.1874 5.68734 19.5514 5.68734 19.9999C5.68734 20.4484 6.05134 20.8124 6.49984 20.8124ZM6.49984 18.1041H9.74984C10.1983 18.1041 10.5623 17.7401 10.5623 17.2916C10.5623 16.8431 10.1983 16.4791 9.74984 16.4791H6.49984C6.05134 16.4791 5.68734 16.8431 5.68734 17.2916C5.68734 17.7401 6.05134 18.1041 6.49984 18.1041Z" fill="white"/>
</svg>
