<svg width="26" height="27" viewBox="0 0 26 27" fill="none" xmlns="http://www.w3.org/2000/svg">
<g clip-path="url(#clip0_90_2808)">
<path d="M13 15.3332C14.6757 15.3332 16.2246 14.861 17.4636 14.0586C18.4234 13.4442 19.6726 13.5457 20.5156 14.3125C22.8566 16.4352 24.1871 19.4465 24.182 22.6102V23.9661C24.182 25.3676 23.0445 26.5 21.6429 26.5H4.35699C2.95543 26.5 1.81793 25.3676 1.81793 23.9661V22.6102C1.80777 19.4516 3.13824 16.4352 5.47926 14.3176C6.32223 13.5508 7.57652 13.4493 8.53121 14.0637C9.77535 14.861 11.3191 15.3332 13 15.3332Z" fill="white"/>
<path d="M13.0001 13.0734C16.4722 13.0734 19.2868 10.2588 19.2868 6.78672C19.2868 3.31466 16.4722 0.5 13.0001 0.5C9.52804 0.5 6.71338 3.31466 6.71338 6.78672C6.71338 10.2588 9.52804 13.0734 13.0001 13.0734Z" fill="white"/>
</g>
<defs>
<clipPath id="clip0_90_2808">
<rect width="26" height="26" fill="white" transform="translate(0 0.5)"/>
</clipPath>
</defs>
</svg>
