<svg width="66" height="66" viewBox="0 0 66 66" fill="none" xmlns="http://www.w3.org/2000/svg">
<g filter="url(#filter0_d_468_32397)">
<circle cx="33" cy="33.3789" r="22" fill="white"/>
<path d="M22.588 33.7868C22.588 32.9841 22.686 32.2514 22.882 31.5888C23.0873 30.9168 23.3673 30.3428 23.722 29.8668C24.0767 29.3908 24.5013 29.0221 24.996 28.7608C25.5 28.4901 26.046 28.3548 26.634 28.3548C27.222 28.3548 27.7633 28.4901 28.258 28.7608C28.7527 29.0221 29.1773 29.3908 29.532 29.8668C29.896 30.3428 30.176 30.9168 30.372 31.5888C30.5773 32.2514 30.68 32.9841 30.68 33.7868C30.68 34.5988 30.5773 35.3408 30.372 36.0128C30.176 36.6848 29.9007 37.2634 29.546 37.7488C29.1913 38.2248 28.762 38.5981 28.258 38.8688C27.7633 39.1394 27.222 39.2748 26.634 39.2748C26.0367 39.2748 25.4907 39.1394 24.996 38.8688C24.5013 38.5981 24.0767 38.2248 23.722 37.7488C23.3673 37.2634 23.0873 36.6848 22.882 36.0128C22.686 35.3408 22.588 34.5988 22.588 33.7868ZM24.646 33.8008C24.646 34.3141 24.6927 34.7901 24.786 35.2288C24.8793 35.6674 25.0147 36.0501 25.192 36.3768C25.3693 36.7034 25.5793 36.9601 25.822 37.1468C26.0647 37.3334 26.3353 37.4268 26.634 37.4268C26.9327 37.4268 27.1987 37.3334 27.432 37.1468C27.6747 36.9601 27.8847 36.7034 28.062 36.3768C28.2393 36.0501 28.3747 35.6674 28.468 35.2288C28.5613 34.7901 28.608 34.3141 28.608 33.8008C28.608 33.2968 28.5613 32.8254 28.468 32.3868C28.3747 31.9481 28.2393 31.5701 28.062 31.2528C27.8847 30.9354 27.6747 30.6881 27.432 30.5108C27.1987 30.3241 26.9327 30.2308 26.634 30.2308C26.3353 30.2308 26.0647 30.3241 25.822 30.5108C25.5793 30.6881 25.3693 30.9354 25.192 31.2528C25.0147 31.5701 24.8793 31.9481 24.786 32.3868C24.6927 32.8254 24.646 33.2968 24.646 33.8008ZM35.2882 34.8228C35.6429 34.4214 35.9415 34.0714 36.1842 33.7728C36.4362 33.4648 36.6369 33.1848 36.7862 32.9328C36.9449 32.6808 37.0569 32.4474 37.1222 32.2328C37.1969 32.0181 37.2342 31.7988 37.2342 31.5748C37.2342 31.1828 37.1035 30.8561 36.8422 30.5948C36.5809 30.3334 36.2262 30.2028 35.7782 30.2028C35.2742 30.2028 34.8775 30.3521 34.5882 30.6508C34.2989 30.9494 34.1169 31.3881 34.0422 31.9668H31.9562C32.0869 30.7721 32.4649 29.8714 33.0902 29.2648C33.7249 28.6581 34.6209 28.3548 35.7782 28.3548C36.3289 28.3548 36.8235 28.4294 37.2622 28.5788C37.7009 28.7281 38.0742 28.9428 38.3822 29.2228C38.6902 29.4934 38.9235 29.8201 39.0822 30.2028C39.2502 30.5854 39.3342 31.0101 39.3342 31.4768C39.3342 31.8501 39.2829 32.2001 39.1802 32.5268C39.0775 32.8534 38.9282 33.1801 38.7322 33.5068C38.5362 33.8334 38.2889 34.1741 37.9902 34.5288C37.7009 34.8741 37.3602 35.2521 36.9682 35.6628L35.6102 37.2028C36.1795 37.1934 36.8002 37.1888 37.4722 37.1888C38.1535 37.1888 38.8022 37.1841 39.4182 37.1748V39.0928H31.5362V39.0508L35.2882 34.8228Z" fill="#FF4600"/>
</g>
<defs>
<filter id="filter0_d_468_32397" x="0.523809" y="0.902716" width="64.9524" height="64.9524" filterUnits="userSpaceOnUse" color-interpolation-filters="sRGB">
<feFlood flood-opacity="0" result="BackgroundImageFix"/>
<feColorMatrix in="SourceAlpha" type="matrix" values="0 0 0 0 0 0 0 0 0 0 0 0 0 0 0 0 0 0 127 0" result="hardAlpha"/>
<feOffset/>
<feGaussianBlur stdDeviation="5.2381"/>
<feComposite in2="hardAlpha" operator="out"/>
<feColorMatrix type="matrix" values="0 0 0 0 0 0 0 0 0 0 0 0 0 0 0 0 0 0 0.12 0"/>
<feBlend mode="normal" in2="BackgroundImageFix" result="effect1_dropShadow_468_32397"/>
<feBlend mode="normal" in="SourceGraphic" in2="effect1_dropShadow_468_32397" result="shape"/>
</filter>
</defs>
</svg>
