<svg width="64" height="64" viewBox="0 0 64 64" fill="none" xmlns="http://www.w3.org/2000/svg">
<rect x="15.311" y="16.2493" width="5.68635" height="22.7454" fill="currentColor"/>
<rect x="32.4399" y="19.0126" width="5.3268" height="21.7818" transform="rotate(-30 32.4399 19.0126)" fill="currentColor"/>
<path fill-rule="evenodd" clip-rule="evenodd" d="M34.6666 14.4627C33.2756 15.2672 32.0897 15.9447 32.0312 15.9683C31.9599 15.9972 31.9127 15.7943 31.8877 15.3523C31.8479 14.648 31.7039 14.3582 31.2109 13.9901C30.9538 13.7981 30.8923 13.7968 22.2949 13.7968C13.6976 13.7968 13.6361 13.7981 13.379 13.9901C13.2366 14.0964 13.0332 14.2998 12.9269 14.4422C12.7344 14.6999 12.7335 14.7478 12.7091 26.5467L12.6846 38.3925L10.7875 38.4212C8.99954 38.4483 8.87346 38.462 8.59721 38.659C8.00994 39.0781 7.99981 39.1501 8 42.9167C8.0001 46.7173 8.00685 46.762 8.64642 47.1893C8.96185 47.4 8.99522 47.402 12.1382 47.402H15.3114V49.1066C15.3114 50.6196 15.3325 50.8547 15.4989 51.1985C15.8438 51.9109 16.7872 52.2091 17.4389 51.8119C18.0322 51.4501 18.0718 51.3033 18.1236 49.2814L18.1704 47.4489H31.9969H45.8233L45.8702 49.2814C45.91 50.838 45.9425 51.1526 46.0862 51.3715C46.6644 52.2525 47.9728 52.1825 48.4691 51.2441C48.6686 50.867 48.6823 50.7295 48.6823 49.1215V47.402H51.8556C56.3423 47.402 55.9936 47.78 55.9938 42.9167C55.9939 39.1501 55.9838 39.0781 55.3965 38.659C55.1091 38.454 55.0363 38.4491 51.6134 38.4031L48.1235 38.3563L49.4804 37.5747C50.3034 37.1006 50.9162 36.6822 51.0378 36.5115C51.3292 36.1022 51.3702 35.5198 51.1392 35.0671C50.8896 34.5778 39.1848 14.2973 38.8276 13.7352C38.5141 13.2418 38.0965 13 37.5583 13C37.2607 13 36.7414 13.2627 34.6666 14.4627ZM42.5404 25.7554C45.6061 31.0658 47.9204 35.1709 47.8739 35.2164C47.7728 35.3153 43.4119 37.8407 43.3423 37.8407C43.2693 37.8406 32.5124 19.1885 32.5124 19.0619C32.5124 18.9569 36.8188 16.3978 37.0215 16.3825C37.0783 16.3781 39.5618 20.5959 42.5404 25.7554ZM20.842 27.4826V38.4031H18.1704H15.4989V27.4826V16.5621H18.1704H20.842V27.4826ZM29.091 27.484V38.406L26.396 38.3811L23.701 38.3563L23.6769 27.5763C23.6636 21.6474 23.6728 16.7437 23.6974 16.6792C23.7317 16.5892 24.3632 16.5621 26.4165 16.5621H29.091V27.484ZM36.1223 31.0447C38.3232 34.8598 40.1739 38.0762 40.2351 38.1922L40.3462 38.4031H36.1247H31.9031L31.906 31.0681C31.9081 25.5646 31.9353 23.7798 32.0148 23.9205C32.0731 24.0237 33.9214 27.2295 36.1223 31.0447ZM53.1818 42.9026V44.5899H31.9969H10.812V42.9026V41.2153H31.9969H53.1818V42.9026Z" fill="currentColor"/>
</svg>
