<svg width="64" height="64" viewBox="0 0 64 64" fill="none" xmlns="http://www.w3.org/2000/svg">
<path d="M20.6445 21.5089L32.0075 18.0031L43.5111 21.5089L32.5076 25.5055L20.6445 21.5089Z" fill="currentColor"/>
<path d="M24.0051 25.0053H40.01V30.507H24.0051V25.0053Z" fill="currentColor"/>
<path fill-rule="evenodd" clip-rule="evenodd" d="M12.1331 8.06501C10.3094 8.44205 8.82943 9.74764 8.21717 11.5197L8 12.1481V32.015V51.882L8.21454 52.5028C8.7525 54.0588 9.95391 55.2621 11.5047 55.7979L12.1331 56.015H32H51.8669L52.4953 55.7979C54.0461 55.2621 55.2475 54.0588 55.7855 52.5028L56 51.882V32.015V12.1481L55.7828 11.5197C55.2519 9.98294 54.113 8.8347 52.5169 8.22685L51.9609 8.01503L32.2348 8.00122C21.3855 7.99362 12.3397 8.02227 12.1331 8.06501ZM51.6794 10.9416C51.9495 11.0337 52.2957 11.257 52.5269 11.4881C53.2822 12.2434 53.229 11.1084 53.229 26.4427V40.0933H32H10.771V26.4427C10.771 11.105 10.7175 12.2437 11.4748 11.4864C12.2201 10.7412 10.4276 10.8018 31.9598 10.7935C49.6555 10.7866 51.26 10.7988 51.6794 10.9416ZM23.593 17.8841C19.1499 19.1946 15.409 20.3277 15.2798 20.4021C14.9654 20.5831 14.6258 21.187 14.6238 21.5687C14.6217 22.01 14.9482 22.5911 15.3008 22.7734C15.4662 22.859 16.8501 23.2959 18.3762 23.7445L21.1507 24.56L21.1977 28.4519C21.2504 32.8273 21.2432 32.7821 21.9473 33.1413C22.3109 33.3268 22.487 33.3301 32 33.3301C41.513 33.3301 41.6891 33.3268 42.0527 33.1413C42.7567 32.7822 42.7496 32.8268 42.8023 28.456L42.8493 24.5682L44.4931 24.0804C45.3973 23.8121 46.232 23.5616 46.3483 23.5235L46.5597 23.4544V26.893C46.5597 30.154 46.5695 30.3509 46.7488 30.7024C46.9614 31.1192 47.5026 31.4514 47.9687 31.4514C48.4348 31.4514 48.9759 31.1192 49.1886 30.7024C49.3704 30.3461 49.3777 30.1564 49.3777 25.8154C49.3777 21.4745 49.3704 21.2847 49.1886 20.9284C49.0692 20.6945 48.8699 20.4928 48.6485 20.3819C48.141 20.1278 32.2659 15.481 31.9426 15.4919C31.7933 15.497 28.036 16.5734 23.593 17.8841ZM37.4605 19.9647C40.3985 20.8281 42.8023 21.5589 42.8023 21.5886C42.8023 21.6184 40.3738 22.3561 37.4056 23.2281L32.0088 24.8135L26.6032 23.2275C23.6302 22.3551 21.1977 21.6175 21.1977 21.5884C21.1977 21.526 31.6837 18.4183 31.9419 18.4043C32.0392 18.399 34.5225 19.1012 37.4605 19.9647ZM27.9686 26.5669C30.0756 27.1869 31.8932 27.6941 32.0077 27.6941C32.1222 27.6941 33.9398 27.1869 36.0468 26.5669C38.1539 25.9469 39.9018 25.4397 39.9311 25.4397C39.9604 25.4397 39.9843 26.581 39.9843 27.9759V30.5121H32H24.0157V27.9759C24.0157 26.581 24.0431 25.4397 24.0766 25.4397C24.1102 25.4397 25.8615 25.9469 27.9686 26.5669ZM53.229 47.0746C53.229 51.7994 53.2229 51.8459 52.5269 52.5419C51.7628 53.3061 53.5778 53.244 32 53.244C10.4222 53.244 12.2372 53.3061 11.4731 52.5419C10.777 51.8459 10.771 51.7994 10.771 47.0746V42.9113H32H53.229V47.0746ZM35.0774 44.9837C34.6539 45.2072 34.3483 45.7545 34.3483 46.2892V46.6686H24.5755C14.9663 46.6686 14.7965 46.6718 14.432 46.8577C14.0152 47.0704 13.683 47.6116 13.683 48.0777C13.683 48.5438 14.0152 49.0849 14.432 49.2976C14.7965 49.4835 14.9663 49.4867 24.5755 49.4867H34.3483V49.8661C34.3483 50.6684 35.0033 51.3653 35.7573 51.3653C36.5113 51.3653 37.1663 50.6684 37.1663 49.8661V49.4867H43.1818C49.0253 49.4867 49.208 49.4812 49.568 49.2976C49.9848 49.0849 50.317 48.5438 50.317 48.0777C50.317 47.6116 49.9848 47.0704 49.568 46.8577C49.208 46.6741 49.0253 46.6686 43.1818 46.6686H37.1663V46.2892C37.1663 45.1611 36.0559 44.4671 35.0774 44.9837Z" fill="currentColor"/>
</svg>
