<svg width="64" height="64" viewBox="0 0 64 64" fill="none" xmlns="http://www.w3.org/2000/svg">
<rect x="10.4827" y="15.3104" width="43.0345" height="33.1035" fill="currentColor"/>
<path fill-rule="evenodd" clip-rule="evenodd" d="M18.5936 12.1098C16.2339 12.3771 14.3279 13.0166 11.2407 14.577C8.68594 15.8682 8.2665 16.1621 8.09465 16.7811C8.03362 17.001 8.00062 23.0676 8.00034 34.1276C7.99978 52.4228 7.97615 51.4814 8.44866 52.0044C8.72007 52.3047 9.28257 52.5373 9.73773 52.5373C10.1061 52.5373 10.494 52.3714 12.343 51.423C13.5378 50.8101 14.9282 50.1545 15.4326 49.966C17.3651 49.2441 19.4884 48.9075 21.4999 49.0041C24.2167 49.1346 25.9321 49.6583 29.2593 51.3726C31.2818 52.4148 31.608 52.5548 32.0068 52.5517C32.3989 52.5486 32.7649 52.3907 34.7476 51.3691C38.045 49.6701 39.7653 49.1421 42.4532 49.0036C44.5172 48.8973 46.868 49.2864 48.7879 50.0522C49.2742 50.2463 50.6074 50.8847 51.7505 51.4711C53.5148 52.3761 53.8945 52.5373 54.2621 52.5373C54.7174 52.5373 55.2798 52.3048 55.5513 52.0044C56.0238 51.4814 56.0002 52.4228 55.9997 34.1276C55.9994 23.0676 55.9664 17.001 55.9053 16.7811C55.7334 16.1618 55.3143 15.8683 52.7593 14.5779C50.1752 13.2727 48.792 12.7429 47.047 12.3899C43.5074 11.6737 39.8391 11.9488 36.5469 13.1773C36.0313 13.3697 34.7963 13.9343 33.8025 14.4319L31.9958 15.3365L30.6215 14.6424C27.4023 13.0164 25.8312 12.4804 23.2939 12.1423C22.2152 11.9986 19.7273 11.9814 18.5936 12.1098ZM23.4218 15.6175C25.2725 15.9377 26.9579 16.5593 29.0937 17.7097L30.2656 18.3409L30.2893 33.1404C30.3025 41.3144 30.2771 47.94 30.2327 47.94C30.1885 47.94 29.6716 47.7117 29.084 47.4327C26.3903 46.1536 23.8534 45.5848 20.8436 45.585C17.7428 45.5854 15.0708 46.2146 12.2886 47.5996L11.468 48.0081L11.4917 33.139L11.5154 18.2698L13.1561 17.4421C15.4161 16.302 17.1528 15.7433 19.2499 15.4819C20.1863 15.3651 22.374 15.4363 23.4218 15.6175ZM44.6095 15.4793C46.7899 15.7227 48.5079 16.2637 50.8439 17.4421L52.4846 18.2698L52.5083 33.139L52.532 48.0081L51.7114 47.5996C48.9292 46.2146 46.2572 45.5854 43.1564 45.585C40.1466 45.5848 37.6097 46.1536 34.916 47.4327C34.3284 47.7117 33.8115 47.94 33.7673 47.94C33.7229 47.94 33.6975 41.3144 33.7107 33.1404L33.7344 18.3409L34.9063 17.7097C38.3868 15.8351 41.4636 15.1279 44.6095 15.4793Z" fill="currentColor"/>
</svg>
