<svg width="66" height="66" viewBox="0 0 66 66" fill="none" xmlns="http://www.w3.org/2000/svg">
<g filter="url(#filter0_d_468_32413)">
<circle cx="33" cy="32.8076" r="22" fill="white"/>
<path d="M22.588 33.2155C22.588 32.4128 22.686 31.6802 22.882 31.0175C23.0873 30.3455 23.3673 29.7715 23.722 29.2955C24.0767 28.8195 24.5013 28.4508 24.996 28.1895C25.5 27.9188 26.046 27.7835 26.634 27.7835C27.222 27.7835 27.7633 27.9188 28.258 28.1895C28.7527 28.4508 29.1773 28.8195 29.532 29.2955C29.896 29.7715 30.176 30.3455 30.372 31.0175C30.5773 31.6802 30.68 32.4128 30.68 33.2155C30.68 34.0275 30.5773 34.7695 30.372 35.4415C30.176 36.1135 29.9007 36.6922 29.546 37.1775C29.1913 37.6535 28.762 38.0268 28.258 38.2975C27.7633 38.5682 27.222 38.7035 26.634 38.7035C26.0367 38.7035 25.4907 38.5682 24.996 38.2975C24.5013 38.0268 24.0767 37.6535 23.722 37.1775C23.3673 36.6922 23.0873 36.1135 22.882 35.4415C22.686 34.7695 22.588 34.0275 22.588 33.2155ZM24.646 33.2295C24.646 33.7428 24.6927 34.2188 24.786 34.6575C24.8793 35.0962 25.0147 35.4788 25.192 35.8055C25.3693 36.1322 25.5793 36.3888 25.822 36.5755C26.0647 36.7622 26.3353 36.8555 26.634 36.8555C26.9327 36.8555 27.1987 36.7622 27.432 36.5755C27.6747 36.3888 27.8847 36.1322 28.062 35.8055C28.2393 35.4788 28.3747 35.0962 28.468 34.6575C28.5613 34.2188 28.608 33.7428 28.608 33.2295C28.608 32.7255 28.5613 32.2542 28.468 31.8155C28.3747 31.3768 28.2393 30.9988 28.062 30.6815C27.8847 30.3642 27.6747 30.1168 27.432 29.9395C27.1987 29.7528 26.9327 29.6595 26.634 29.6595C26.3353 29.6595 26.0647 29.7528 25.822 29.9395C25.5793 30.1168 25.3693 30.3642 25.192 30.6815C25.0147 30.9988 24.8793 31.3768 24.786 31.8155C24.6927 32.2542 24.646 32.7255 24.646 33.2295ZM31.9282 35.0075C31.9282 34.4755 32.0495 33.9575 32.2922 33.4535C32.5349 32.9402 32.8849 32.3988 33.3422 31.8295L36.3242 27.9655H38.8862L36.1982 31.2695L35.7782 31.7595C35.8995 31.7128 36.0255 31.6802 36.1562 31.6615C36.2869 31.6335 36.4082 31.6195 36.5202 31.6195C36.9402 31.6195 37.3415 31.7035 37.7242 31.8715C38.1069 32.0302 38.4429 32.2635 38.7322 32.5715C39.0309 32.8702 39.2689 33.2295 39.4462 33.6495C39.6235 34.0695 39.7122 34.5408 39.7122 35.0635C39.7122 35.5862 39.6049 36.0715 39.3902 36.5195C39.1849 36.9582 38.9049 37.3408 38.5502 37.6675C38.1955 37.9848 37.7849 38.2368 37.3182 38.4235C36.8515 38.6008 36.3615 38.6895 35.8482 38.6895C35.3255 38.6895 34.8262 38.6008 34.3502 38.4235C33.8835 38.2368 33.4682 37.9802 33.1042 37.6535C32.7495 37.3175 32.4649 36.9255 32.2502 36.4775C32.0355 36.0295 31.9282 35.5395 31.9282 35.0075ZM35.8342 36.8695C36.0862 36.8695 36.3195 36.8228 36.5342 36.7295C36.7582 36.6362 36.9542 36.5102 37.1222 36.3515C37.2902 36.1928 37.4209 36.0015 37.5142 35.7775C37.6075 35.5535 37.6542 35.3155 37.6542 35.0635C37.6542 34.7928 37.6075 34.5455 37.5142 34.3215C37.4302 34.0975 37.3042 33.9062 37.1362 33.7475C36.9775 33.5888 36.7862 33.4628 36.5622 33.3695C36.3382 33.2762 36.0909 33.2295 35.8202 33.2295C35.5495 33.2295 35.3022 33.2762 35.0782 33.3695C34.8542 33.4628 34.6582 33.5935 34.4902 33.7615C34.3315 33.9202 34.2055 34.1115 34.1122 34.3355C34.0282 34.5595 33.9862 34.8022 33.9862 35.0635C33.9862 35.3155 34.0329 35.5535 34.1262 35.7775C34.2195 36.0015 34.3502 36.1928 34.5182 36.3515C34.6862 36.5102 34.8822 36.6362 35.1062 36.7295C35.3302 36.8228 35.5729 36.8695 35.8342 36.8695Z" fill="#FF4600"/>
</g>
<defs>
<filter id="filter0_d_468_32413" x="0.523809" y="0.331427" width="64.9524" height="64.9524" filterUnits="userSpaceOnUse" color-interpolation-filters="sRGB">
<feFlood flood-opacity="0" result="BackgroundImageFix"/>
<feColorMatrix in="SourceAlpha" type="matrix" values="0 0 0 0 0 0 0 0 0 0 0 0 0 0 0 0 0 0 127 0" result="hardAlpha"/>
<feOffset/>
<feGaussianBlur stdDeviation="5.2381"/>
<feComposite in2="hardAlpha" operator="out"/>
<feColorMatrix type="matrix" values="0 0 0 0 0 0 0 0 0 0 0 0 0 0 0 0 0 0 0.12 0"/>
<feBlend mode="normal" in2="BackgroundImageFix" result="effect1_dropShadow_468_32413"/>
<feBlend mode="normal" in="SourceGraphic" in2="effect1_dropShadow_468_32413" result="shape"/>
</filter>
</defs>
</svg>
