<svg width="352" height="264" viewBox="0 0 352 264" fill="none" xmlns="http://www.w3.org/2000/svg">
<path d="M352 231.21H0V231.386H352V231.21Z" fill="#EBEBEB"/>
<path d="M305.388 238.7H282.072V238.876H305.388V238.7Z" fill="#EBEBEB"/>
<path d="M220.401 238.616H214.283V238.792H220.401V238.616Z" fill="#EBEBEB"/>
<path d="M316.73 242.537H303.22V242.713H316.73V242.537Z" fill="#EBEBEB"/>
<path d="M80.6783 244.875H50.2725V245.051H80.6783V244.875Z" fill="#EBEBEB"/>
<path d="M78.0667 237.187H73.6104V237.363H78.0667V237.187Z" fill="#EBEBEB"/>
<path d="M174.909 237.94H132.035V238.116H174.909V237.94Z" fill="#EBEBEB"/>
<path d="M166.848 199.811H30.9122C29.8473 199.81 28.8266 199.385 28.0743 198.632C27.322 197.878 26.8994 196.856 26.8994 195.792V4.70491C26.9087 3.64611 27.3353 2.63372 28.0867 1.88762C28.838 1.14152 29.8534 0.722015 30.9122 0.720215H166.848C167.914 0.720215 168.937 1.14371 169.691 1.89761C170.444 2.65151 170.868 3.67392 170.868 4.74012V195.792C170.868 196.858 170.444 197.88 169.691 198.634C168.937 199.388 167.914 199.811 166.848 199.811ZM30.9122 0.861015C29.894 0.862915 28.9181 1.26872 28.1987 1.98932C27.4794 2.71002 27.0754 3.68661 27.0754 4.70491V195.792C27.0754 196.81 27.4794 197.786 28.1987 198.507C28.9181 199.228 29.894 199.634 30.9122 199.635H166.848C167.867 199.634 168.844 199.228 169.564 198.508C170.284 197.787 170.69 196.81 170.692 195.792V4.70491C170.69 3.68601 170.284 2.70941 169.564 1.98891C168.844 1.26841 167.867 0.862915 166.848 0.861015H30.9122Z" fill="#EBEBEB"/>
<path d="M319.13 199.811H183.188C182.122 199.81 181.101 199.385 180.347 198.632C179.594 197.879 179.17 196.857 179.168 195.792V4.70491C179.179 3.64541 179.607 2.63301 180.36 1.88721C181.112 1.14131 182.128 0.722015 183.188 0.720215H319.13C320.188 0.723915 321.201 1.14421 321.951 1.89011C322.701 2.63591 323.127 3.64731 323.136 4.70491V195.792C323.136 196.855 322.714 197.876 321.964 198.629C321.213 199.383 320.194 199.808 319.13 199.811ZM183.188 0.861015C182.169 0.862915 181.192 1.26841 180.472 1.98891C179.751 2.70941 179.346 3.68601 179.344 4.70491V195.792C179.346 196.81 179.751 197.787 180.472 198.508C181.192 199.228 182.169 199.634 183.188 199.635H319.13C320.149 199.634 321.126 199.228 321.846 198.508C322.567 197.787 322.972 196.81 322.974 195.792V4.70491C322.972 3.68601 322.567 2.70941 321.846 1.98891C321.126 1.26841 320.149 0.862915 319.13 0.861015H183.188Z" fill="#EBEBEB"/>
<path d="M301.939 29.8164H50.0615V134.635H301.939V29.8164Z" fill="#F0F0F0"/>
<path d="M297.01 129.714V34.7515H54.9893V129.714H297.01Z" fill="#FAFAFA"/>
<path d="M86.8525 129.707L111.676 34.7446H129.98L105.157 129.707H86.8525Z" fill="white"/>
<path d="M109.38 129.707L134.203 34.7446H142.391L117.568 129.707H109.38Z" fill="white"/>
<path d="M149.438 129.707L174.268 34.7446H192.572L167.742 129.707H149.438Z" fill="white"/>
<path d="M195.592 129.707L220.415 34.7446H228.61L203.78 129.707H195.592Z" fill="white"/>
<path d="M119.828 129.714V34.7515H118.575V129.714H119.828Z" fill="#E0E0E0"/>
<path d="M56.2424 129.714V34.7515H54.9893V129.714H56.2424Z" fill="#E0E0E0"/>
<path d="M118.575 129.714V34.7515H113.647V129.714H118.575Z" fill="#F0F0F0"/>
<path d="M180.928 129.714V34.7515H179.675V129.714H180.928Z" fill="#E0E0E0"/>
<path d="M179.675 129.714V34.7515H174.747V129.714H179.675Z" fill="#F0F0F0"/>
<path d="M242.056 129.707V34.7446H240.803V129.707H242.056Z" fill="#E0E0E0"/>
<path d="M240.803 129.707V34.7446H235.875V129.707H240.803Z" fill="#F0F0F0"/>
<path d="M303.192 134.635V29.8164H301.939V134.635H303.192Z" fill="#E0E0E0"/>
<path d="M306.008 22.6216H45.9926C45.7038 22.6197 45.4273 22.5042 45.2231 22.2999C45.0188 22.0957 44.9033 21.8192 44.9014 21.5304C44.9014 21.2403 45.0162 20.962 45.2206 20.7563C45.425 20.5505 45.7026 20.434 45.9926 20.4321H306.008C306.298 20.434 306.575 20.5505 306.78 20.7563C306.984 20.962 307.099 21.2403 307.099 21.5304C307.097 21.8192 306.981 22.0957 306.777 22.2999C306.573 22.5042 306.297 22.6197 306.008 22.6216Z" fill="#E0E0E0"/>
<g opacity="0.6">
<path opacity="0.6" d="M100.207 18.3203H47.0137V209.576H100.207V18.3203Z" fill="#F5F5F5"/>
<path opacity="0.6" d="M75.8352 211.139H71.3789L72.632 19.8833H74.6243L75.8352 211.139Z" fill="#E6E6E6"/>
<path opacity="0.6" d="M61.0723 211.139H58.918L59.5235 19.8833H60.4879L61.0723 211.139Z" fill="#E6E6E6"/>
<path opacity="0.6" d="M90.6406 211.139H88.4863L89.0918 19.8833H90.0562L90.6406 211.139Z" fill="#E6E6E6"/>
</g>
<g opacity="0.6">
<path opacity="0.6" d="M304.353 18.3203H251.159V209.576H304.353V18.3203Z" fill="#F5F5F5"/>
<path opacity="0.6" d="M272.004 211.139H267.548L268.801 19.8833H270.794L272.004 211.139Z" fill="#E6E6E6"/>
<path opacity="0.6" d="M262.169 211.139H260.022L260.621 19.8833H261.585L262.169 211.139Z" fill="#E6E6E6"/>
<path opacity="0.6" d="M284.93 211.139H282.783L283.388 19.8833H284.346L284.93 211.139Z" fill="#E6E6E6"/>
<path opacity="0.6" d="M295.884 211.139H293.737L294.335 19.8833H295.3L295.884 211.139Z" fill="#E6E6E6"/>
</g>
<path d="M228.948 230.013H238.945V172.722H228.948V230.013Z" fill="#E6E6E6"/>
<path d="M113.055 230.013H232.799V172.722H113.055V230.013Z" fill="#F0F0F0"/>
<path d="M230.109 230.013H226.505H118.223V231.21H226.505H230.109H233.777V230.013H230.109Z" fill="#E0E0E0"/>
<path opacity="0.5" d="M116.47 199.424H229.384V176.305H116.47V199.424Z" fill="#FAFAFA"/>
<path opacity="0.5" d="M116.47 226.275H229.384V203.156H116.47V226.275Z" fill="#FAFAFA"/>
<path d="M133.584 187.865C133.584 188.367 133.435 188.859 133.156 189.277C132.877 189.695 132.48 190.02 132.015 190.213C131.551 190.405 131.04 190.455 130.547 190.357C130.054 190.259 129.601 190.017 129.246 189.662C128.89 189.306 128.648 188.853 128.55 188.36C128.452 187.868 128.502 187.357 128.695 186.892C128.887 186.428 129.213 186.031 129.631 185.752C130.049 185.472 130.54 185.323 131.043 185.323C131.376 185.323 131.707 185.389 132.015 185.517C132.324 185.644 132.604 185.832 132.84 186.068C133.076 186.304 133.263 186.584 133.391 186.892C133.518 187.2 133.584 187.531 133.584 187.865Z" fill="#E0E0E0"/>
<path d="M217.346 187.865C217.346 188.367 217.197 188.859 216.917 189.277C216.638 189.695 216.241 190.02 215.777 190.213C215.313 190.405 214.802 190.455 214.309 190.357C213.816 190.259 213.363 190.017 213.007 189.662C212.652 189.306 212.41 188.853 212.312 188.36C212.214 187.868 212.264 187.357 212.456 186.892C212.649 186.428 212.974 186.031 213.392 185.752C213.81 185.472 214.302 185.323 214.804 185.323C215.138 185.323 215.469 185.389 215.777 185.517C216.085 185.644 216.365 185.832 216.601 186.068C216.837 186.304 217.025 186.584 217.152 186.892C217.28 187.2 217.346 187.531 217.346 187.865Z" fill="#E0E0E0"/>
<path d="M131.043 217.257C132.446 217.257 133.584 216.119 133.584 214.715C133.584 213.312 132.446 212.174 131.043 212.174C129.639 212.174 128.501 213.312 128.501 214.715C128.501 216.119 129.639 217.257 131.043 217.257Z" fill="#E0E0E0"/>
<path d="M217.346 214.736C217.346 215.239 217.197 215.73 216.917 216.148C216.638 216.566 216.241 216.892 215.777 217.084C215.313 217.277 214.802 217.327 214.309 217.229C213.816 217.131 213.363 216.889 213.007 216.533C212.652 216.178 212.41 215.725 212.312 215.232C212.214 214.739 212.264 214.228 212.456 213.764C212.649 213.299 212.974 212.902 213.392 212.623C213.81 212.344 214.302 212.195 214.804 212.195C215.478 212.195 216.125 212.463 216.601 212.939C217.078 213.416 217.346 214.062 217.346 214.736Z" fill="#E0E0E0"/>
<path d="M175.465 187.865C175.465 188.367 175.316 188.859 175.037 189.277C174.757 189.695 174.36 190.02 173.896 190.213C173.432 190.405 172.921 190.455 172.428 190.357C171.935 190.259 171.482 190.017 171.126 189.662C170.771 189.306 170.529 188.853 170.431 188.36C170.333 187.868 170.383 187.357 170.576 186.892C170.768 186.428 171.094 186.031 171.512 185.752C171.93 185.472 172.421 185.323 172.924 185.323C173.257 185.323 173.588 185.389 173.896 185.517C174.204 185.644 174.485 185.832 174.721 186.068C174.957 186.304 175.144 186.584 175.271 186.892C175.399 187.2 175.465 187.531 175.465 187.865Z" fill="#E0E0E0"/>
<path d="M172.924 217.257C174.327 217.257 175.465 216.119 175.465 214.715C175.465 213.312 174.327 212.174 172.924 212.174C171.52 212.174 170.382 213.312 170.382 214.715C170.382 216.119 171.52 217.257 172.924 217.257Z" fill="#E0E0E0"/>
<path d="M225.393 162.992C225.393 165.573 224.368 168.047 222.543 169.872C220.718 171.696 218.244 172.721 215.663 172.721C213.083 172.721 210.608 171.696 208.784 169.872C206.959 168.047 205.934 165.573 205.934 162.992H225.393Z" fill="#F0F0F0"/>
<path d="M148.467 161.232C148.467 164.274 147.258 167.191 145.108 169.342C142.957 171.492 140.04 172.701 136.998 172.701C133.957 172.701 131.04 171.492 128.889 169.342C126.739 167.191 125.53 164.274 125.53 161.232H148.467Z" fill="#F0F0F0"/>
<path d="M197.768 165.97C197.768 167.761 197.056 169.478 195.79 170.744C194.524 172.01 192.807 172.722 191.016 172.722C189.226 172.722 187.508 172.01 186.242 170.744C184.976 169.478 184.265 167.761 184.265 165.97H197.768Z" fill="#F0F0F0"/>
<path d="M176 263.002C251.386 263.002 312.499 259.434 312.499 255.033C312.499 250.631 251.386 247.063 176 247.063C100.614 247.063 39.502 250.631 39.502 255.033C39.502 259.434 100.614 263.002 176 263.002Z" fill="#F5F5F5"/>
<path d="M201.635 164.292L194.129 164.836L194.18 165.539L201.686 164.994L201.635 164.292Z" fill="#037AD0"/>
<path d="M208.38 163.805L204.694 164.073L204.745 164.775L208.431 164.507L208.38 163.805Z" fill="#037AD0"/>
<path d="M240.768 81.166L116.47 90.128C113.883 90.33 111.48 91.544 109.782 93.506C108.085 95.469 107.229 98.021 107.402 100.61L111.626 159.197C111.826 161.788 113.041 164.195 115.007 165.895C116.973 167.594 119.53 168.448 122.123 168.272L129.163 167.765C129.674 167.728 130.18 167.896 130.568 168.231C130.956 168.566 131.195 169.042 131.233 169.553L132.021 180.409C132.034 180.619 132.109 180.821 132.238 180.988C132.366 181.155 132.541 181.279 132.741 181.346C132.941 181.413 133.156 181.418 133.359 181.361C133.562 181.305 133.743 181.189 133.88 181.028L145.665 167.406C146.16 166.835 146.861 166.484 147.615 166.427L246.4 159.31C248.988 159.11 251.393 157.897 253.092 155.934C254.791 153.971 255.647 151.418 255.475 148.827L251.251 90.24C251.051 87.652 249.837 85.247 247.875 83.548C245.912 81.849 243.358 80.993 240.768 81.166Z" fill="#037AD0"/>
<path d="M134.626 117.021L141.342 116.535L141.891 124.138L149.227 123.61L148.678 116.007L155.422 115.514L156.992 137.24L150.248 137.725L149.614 128.939L142.278 129.474L142.912 138.26L136.203 138.746L134.626 117.021Z" fill="white"/>
<path opacity="0.2" d="M116.47 90.128C113.883 90.33 111.48 91.544 109.782 93.506C108.085 95.469 107.229 98.021 107.402 100.61L111.626 159.197C111.826 161.788 113.041 164.195 115.007 165.895C116.973 167.594 119.53 168.449 122.123 168.272L123.158 168.194C124.877 168.07 126.508 167.382 127.796 166.236C129.084 165.09 129.958 163.552 130.282 161.858L144.44 88.107L116.47 90.128Z" fill="black"/>
<path d="M178.063 129.312L165.968 130.185C166.061 130.969 166.39 131.705 166.911 132.297C167.21 132.612 167.578 132.853 167.986 133.002C168.394 133.151 168.831 133.204 169.263 133.156C169.856 133.114 170.428 132.92 170.924 132.593C171.313 132.299 171.644 131.936 171.903 131.523L177.887 131.643C177.236 133.118 176.178 134.378 174.838 135.275C173.609 136.054 171.792 136.524 169.389 136.683C167.709 136.879 166.007 136.698 164.405 136.155C163.121 135.616 162.019 134.719 161.23 133.571C160.326 132.265 159.806 130.731 159.731 129.143C159.605 128.041 159.712 126.925 160.044 125.866C160.376 124.807 160.926 123.83 161.659 122.997C163.124 121.364 165.236 120.447 167.995 120.245C169.822 120.028 171.675 120.245 173.402 120.878C174.725 121.443 175.839 122.405 176.591 123.631C177.453 125.153 177.935 126.86 177.999 128.608L178.063 129.312ZM171.727 126.862C171.641 125.947 171.246 125.088 170.607 124.427C170.286 124.179 169.916 124 169.522 123.901C169.129 123.802 168.719 123.785 168.318 123.851C167.917 123.917 167.534 124.065 167.193 124.285C166.852 124.505 166.559 124.793 166.334 125.131C165.958 125.793 165.769 126.545 165.785 127.306L171.727 126.862Z" fill="white"/>
<path d="M179.928 113.747L185.976 113.311L187.546 135.029L181.498 135.465L179.928 113.747Z" fill="white"/>
<path d="M190.031 113.015L196.078 112.579L197.648 134.297L191.608 134.733L190.031 113.015Z" fill="white"/>
<path d="M200.196 126.25C200.082 125.148 200.201 124.035 200.546 122.982C200.89 121.929 201.452 120.961 202.196 120.14C203.702 118.464 205.835 117.525 208.595 117.324C211.74 117.098 214.185 117.84 215.931 119.548C217.381 121.078 218.219 123.086 218.285 125.193C218.351 127.299 217.641 129.357 216.29 130.974C214.797 132.636 212.634 133.574 209.799 133.79C207.597 134.054 205.372 133.531 203.519 132.312C202.534 131.628 201.721 130.724 201.144 129.672C200.567 128.62 200.243 127.449 200.196 126.25ZM206.244 125.8C206.232 126.911 206.614 127.991 207.321 128.848C207.606 129.14 207.951 129.366 208.333 129.512C208.714 129.657 209.122 129.718 209.529 129.69C209.937 129.662 210.333 129.545 210.69 129.349C211.048 129.152 211.359 128.881 211.601 128.552C212.17 127.572 212.384 126.426 212.207 125.307C212.214 124.218 211.837 123.161 211.144 122.322C210.872 122.025 210.536 121.794 210.162 121.647C209.787 121.501 209.383 121.442 208.982 121.477C208.564 121.497 208.156 121.612 207.79 121.815C207.424 122.017 207.109 122.302 206.87 122.646C206.303 123.593 206.091 124.711 206.272 125.8H206.244Z" fill="white"/>
<path d="M220.19 110.832L226.632 110.368L226.991 115.296L226.463 125.328L222.478 125.616L220.542 115.76L220.19 110.832ZM221.598 127.221L227.61 126.785L227.998 132.107L221.978 132.537L221.598 127.221Z" fill="white"/>
<path d="M114.752 70.838C114.721 71.869 114.775 72.9 114.914 73.922C108.535 76.052 101.731 76.591 95.0967 75.492C95.4152 74.287 95.6086 73.054 95.6739 71.81C95.452 73.062 95.0162 74.267 94.3856 75.372C93.1325 75.133 92.4285 74.928 92.4285 74.928C92.4285 74.928 93.7098 68.001 91.4007 62.96C89.0915 57.9198 90.2461 55.1038 91.992 54.3083C95.2304 44.3537 107.402 45.9237 111.521 49.9646C116.744 55.0897 116.773 69.529 117.702 72.831C116.934 73.161 116.181 73.464 115.428 73.732C115.051 72.809 114.822 71.832 114.752 70.838Z" fill="#263238"/>
<path d="M119.785 86.333L120.419 88.34C120.651 89.044 120.884 89.748 121.123 90.417C121.595 91.825 122.088 93.233 122.616 94.584C123.144 95.936 123.65 97.358 124.2 98.738L125.016 100.85L125.22 101.371L125.27 101.491C125.183 101.414 125.082 101.355 124.974 101.315C124.819 101.258 124.756 101.315 124.854 101.315C125.024 101.314 125.192 101.288 125.354 101.237C125.905 101.063 126.434 100.827 126.931 100.533C128.132 99.834 129.28 99.048 130.367 98.182C131.507 97.295 132.626 96.344 133.725 95.366C134.823 94.387 135.928 93.366 136.991 92.367L139.153 94.197C138.251 95.493 137.301 96.675 136.337 97.879C135.372 99.083 134.288 100.209 133.176 101.329C132.031 102.497 130.784 103.562 129.451 104.511C128.689 105.045 127.869 105.494 127.009 105.848C126.462 106.068 125.889 106.214 125.305 106.285C124.511 106.384 123.706 106.274 122.968 105.968C122.163 105.625 121.477 105.052 120.996 104.321C120.891 104.159 120.792 103.997 120.715 103.849L120.525 103.469L120.271 102.955C119.94 102.251 119.567 101.547 119.279 100.885C118.638 99.477 117.997 98.069 117.413 96.661C116.829 95.253 116.258 93.803 115.716 92.353C115.463 91.649 115.209 90.881 114.97 90.142C114.731 89.403 114.498 88.678 114.266 87.812L119.785 86.333Z" fill="#FFC3BD"/>
<path d="M118.117 80.082C120.546 80.701 122.243 90.684 122.243 90.684L115.554 95.232C115.554 95.232 109.148 85.158 111.014 82.489C112.957 79.716 114.576 79.181 118.117 80.082Z" fill="#037AD0"/>
<path d="M118.117 80.082C120.546 80.701 122.243 90.684 122.243 90.684L115.554 95.232C115.554 95.232 109.148 85.158 111.014 82.489C112.957 79.716 114.576 79.181 118.117 80.082Z" fill="#037AD0"/>
<path opacity="0.4" d="M118.117 80.082C120.546 80.701 122.243 90.684 122.243 90.684L115.554 95.232C115.554 95.232 109.148 85.158 111.014 82.489C112.957 79.716 114.576 79.181 118.117 80.082Z" fill="white"/>
<path opacity="0.3" d="M117.899 82.313L119.764 92.374L116.005 94.922L117.899 82.313Z" fill="black"/>
<path d="M136.879 92.606L139.11 87.228L141.863 92.606C141.863 92.606 140.075 95.281 137.716 94.627L136.879 92.606Z" fill="#FFC3BD"/>
<path d="M141.567 86.671L145.101 88.093L141.863 92.606L139.103 87.228L141.567 86.671Z" fill="#FFC3BD"/>
<path d="M104.988 248.14H110.88L111.274 234.504H105.382L104.988 248.14Z" fill="#FFC3BD"/>
<path d="M65.4785 230.576L70.8923 232.885L77.9815 221.086L72.5607 218.777L65.4785 230.576Z" fill="#FFC3BD"/>
<path d="M71.935 232.082L66.303 228.619C66.2067 228.557 66.0909 228.533 65.9779 228.551C65.8648 228.569 65.7625 228.628 65.6905 228.717L62.3042 232.779C62.22 232.886 62.1595 233.009 62.1267 233.14C62.094 233.272 62.0899 233.409 62.1145 233.543C62.1392 233.676 62.1922 233.802 62.2698 233.914C62.3475 234.025 62.448 234.118 62.5647 234.187C64.55 235.363 65.5638 235.828 68.0418 237.348C69.5695 238.292 71.6956 239.812 73.8006 241.108C75.9055 242.403 77.3206 240.404 76.5391 239.664C73.1247 236.405 73.2233 234.856 72.5826 232.927C72.4762 232.576 72.246 232.276 71.935 232.082Z" fill="#263238"/>
<path d="M111.077 247.458H104.467C104.353 247.456 104.242 247.496 104.156 247.57C104.069 247.644 104.012 247.746 103.995 247.859L103.242 253.097C103.223 253.231 103.234 253.368 103.274 253.497C103.313 253.627 103.381 253.747 103.471 253.848C103.562 253.949 103.673 254.029 103.797 254.083C103.922 254.137 104.056 254.163 104.192 254.16C106.501 254.124 107.613 253.984 110.528 253.984C112.316 253.984 116.019 254.174 118.49 254.174C120.961 254.174 121.088 251.731 120.06 251.506C115.449 250.513 113.633 249.147 112.077 247.845C111.801 247.599 111.446 247.462 111.077 247.458Z" fill="#263238"/>
<path opacity="0.2" d="M111.267 234.511L111.07 241.537H105.177L105.382 234.511H111.267Z" fill="black"/>
<path opacity="0.2" d="M72.5609 218.784L77.9747 221.086L74.3209 227.168L68.9072 224.859L72.5609 218.784Z" fill="black"/>
<path d="M118.117 80.082C118.117 80.082 120.933 81.067 115.301 115.612H91.3646C91.7659 105.883 91.78 99.885 87.1406 79.913C90.4876 79.221 93.8804 78.774 97.2923 78.575C100.909 78.314 104.539 78.314 108.156 78.575C112.83 78.997 118.117 80.082 118.117 80.082Z" fill="#037AD0"/>
<path opacity="0.4" d="M118.117 80.082C118.117 80.082 120.933 81.067 115.301 115.612H91.3646C91.7659 105.883 91.78 99.885 87.1406 79.913C90.4876 79.221 93.8804 78.774 97.2923 78.575C100.909 78.314 104.539 78.314 108.156 78.575C112.83 78.997 118.117 80.082 118.117 80.082Z" fill="white"/>
<path d="M97.3069 78.568C100.923 78.314 104.553 78.314 108.17 78.568C108.754 78.625 109.352 78.688 109.944 78.758C110.19 79.128 110.348 79.55 110.405 79.991C110.462 80.431 110.418 80.879 110.275 81.3C109.507 83.194 106.755 83.412 104.755 83.412C97.3562 83.412 96.1031 79.089 96.0538 78.906L95.9834 78.646L97.3069 78.568Z" fill="white"/>
<path d="M98.3837 66.347C99.0877 69.867 99.7565 76.245 97.3066 78.575C97.3066 78.575 98.264 82.095 104.755 82.095C111.894 82.095 108.17 78.575 108.17 78.575C104.269 77.646 104.375 74.752 105.051 72.042L98.3837 66.347Z" fill="#FFC3BD"/>
<path d="M99.0949 63.862C98.2571 66.629 99.4187 73.176 101.144 75.71C97.7432 73.76 96.5957 67.818 96.5957 67.818L99.0949 63.862Z" fill="#263238"/>
<path opacity="0.2" d="M101.101 68.67L105.051 72.035C104.878 72.666 104.764 73.312 104.713 73.964C103.227 73.746 101.193 72.112 101.024 70.557C100.936 69.928 100.963 69.289 101.101 68.67Z" fill="black"/>
<path d="M95.1597 60.1094C96.5255 65.791 96.976 68.226 100.397 70.669C105.544 74.337 112.224 71.423 112.584 65.446C112.907 60.0671 110.626 51.6825 104.607 50.3871C103.281 50.0943 101.902 50.1453 100.601 50.5352C99.3002 50.9252 98.1204 51.6411 97.1739 52.6151C96.2274 53.5891 95.5455 54.7889 95.193 56.1005C94.8405 57.4121 94.829 58.7921 95.1597 60.1094Z" fill="#FFC3BD"/>
<path d="M115.308 115.613C115.308 115.613 119.947 160.964 119.532 178.916C119.131 197.586 112.288 240.164 112.288 240.164H104.333C104.333 240.164 105.593 198.664 104.889 180.324C104.122 160.331 97.7715 115.599 97.7715 115.599L115.308 115.613Z" fill="#037AD0"/>
<path opacity="0.4" d="M115.308 115.613C115.308 115.613 119.947 160.964 119.532 178.916C119.131 197.586 112.288 240.164 112.288 240.164H104.333C104.333 240.164 105.593 198.664 104.889 180.324C104.122 160.331 97.7715 115.599 97.7715 115.599L115.308 115.613Z" fill="black"/>
<path d="M103.671 240.46H113.006L113.696 237.482L103.234 237.116L103.671 240.46Z" fill="#037AD0"/>
<path opacity="0.2" d="M104.995 126.898C110.866 138.711 106.17 160.26 104.093 168.279C103.03 156.24 101.235 141.527 99.834 130.706C100.721 124.624 102.284 121.449 104.995 126.898Z" fill="black"/>
<path d="M108.993 115.613C108.993 115.613 103.572 162.781 99.4827 177.896C94.6321 195.869 76.1662 226.472 76.1662 226.472L68.7812 223.332C68.7812 223.332 80.2071 188.582 83.9242 179.114C91.8442 158.909 85.0648 128.799 91.3937 115.613H108.993Z" fill="#037AD0"/>
<path opacity="0.4" d="M108.993 115.613C108.993 115.613 103.572 162.781 99.4827 177.896C94.6321 195.869 76.1662 226.472 76.1662 226.472L68.7812 223.332C68.7812 223.332 80.2071 188.582 83.9242 179.114C91.8442 158.909 85.0648 128.799 91.3937 115.613H108.993Z" fill="black"/>
<path d="M67.7598 223.353L76.9259 227.253L79.1294 224.789L68.5553 219.713L67.7598 223.353Z" fill="#037AD0"/>
<path d="M104.192 60.1866C104.276 60.6513 104.586 60.9892 104.896 60.9329C105.206 60.8765 105.382 60.4541 105.297 59.9895C105.213 59.5249 104.903 59.1869 104.593 59.2362C104.283 59.2855 104.072 59.7149 104.192 60.1866Z" fill="#263238"/>
<path d="M109.444 59.2574C109.521 59.7221 109.838 60.06 110.148 60.0037C110.457 59.9473 110.641 59.5249 110.556 59.0603C110.472 58.5957 110.162 58.2577 109.852 58.307C109.542 58.3563 109.359 58.7857 109.444 59.2574Z" fill="#263238"/>
<path d="M109.718 58.3634L110.781 57.8354C110.781 57.8354 110.359 58.814 109.718 58.3634Z" fill="#263238"/>
<path d="M108.184 60.3066C108.788 61.3002 109.527 62.205 110.38 62.996C110.171 63.207 109.919 63.371 109.64 63.476C109.362 63.58 109.064 63.623 108.768 63.601L108.184 60.3066Z" fill="#ED847E"/>
<path d="M106.649 65.804C106.916 65.804 107.182 65.78 107.444 65.734C107.465 65.733 107.484 65.728 107.502 65.719C107.52 65.71 107.536 65.697 107.549 65.682C107.561 65.666 107.57 65.648 107.575 65.628C107.58 65.609 107.581 65.588 107.577 65.569C107.574 65.549 107.566 65.53 107.555 65.513C107.543 65.497 107.528 65.483 107.511 65.473C107.494 65.462 107.474 65.456 107.455 65.454C107.435 65.451 107.414 65.453 107.395 65.46C106.815 65.575 106.217 65.552 105.648 65.391C105.079 65.231 104.556 64.938 104.122 64.537C104.095 64.512 104.06 64.497 104.023 64.497C103.986 64.497 103.951 64.512 103.924 64.537C103.911 64.55 103.9 64.565 103.892 64.582C103.885 64.599 103.881 64.617 103.881 64.636C103.881 64.654 103.885 64.673 103.892 64.69C103.9 64.707 103.911 64.722 103.924 64.734C104.659 65.431 105.636 65.815 106.649 65.804Z" fill="#263238"/>
<path d="M97.1524 56.7794C97.3063 58.2765 97.5413 59.7641 97.8564 61.2357C97.8564 61.2357 101.376 56.7794 101.96 54.3928C101.821 55.3324 101.548 56.2474 101.151 57.1103C101.151 57.1103 105.889 56.0754 106.353 52.9496C106.345 54.349 106.189 55.7436 105.889 57.1103C105.889 57.1103 110.408 55.3362 109.993 52.3372C109.577 49.3381 102.636 48.1765 99.4333 49.1903C96.2301 50.204 93.0973 53.4917 94.0407 58.0114C94.984 62.531 96.7933 64.228 96.7933 64.228C96.7933 64.228 95.4909 59.6728 97.1524 56.7794Z" fill="#263238"/>
<path d="M94.9133 64.39C95.3478 65.432 96.1783 66.26 97.2224 66.692C98.6304 67.255 99.4682 66.051 99.2218 64.657C99.0035 63.397 98.0109 61.5947 96.5536 61.6229C96.2347 61.637 95.9244 61.7303 95.6506 61.8944C95.3769 62.059 95.1482 62.288 94.9855 62.563C94.8227 62.837 94.7308 63.148 94.7183 63.467C94.7057 63.786 94.7727 64.103 94.9133 64.39Z" fill="#FFC3BD"/>
<path d="M98.0039 54.6108C97.2999 57.4268 98.7642 63.904 100.609 66.347C97.0887 64.565 95.6807 58.68 95.6807 58.68L98.0039 54.6108Z" fill="#263238"/>
<path d="M102.263 58.5815C102.299 58.5706 102.333 58.5525 102.362 58.5283C102.391 58.5041 102.415 58.4743 102.432 58.4407C102.58 58.1231 102.802 57.8453 103.079 57.6299C103.355 57.4145 103.679 57.2677 104.023 57.2017C104.096 57.1911 104.162 57.1532 104.208 57.0957C104.253 57.0381 104.276 56.9652 104.269 56.8919C104.266 56.8551 104.255 56.8194 104.238 56.7869C104.22 56.7544 104.196 56.7258 104.167 56.7028C104.138 56.6797 104.105 56.6628 104.069 56.653C104.034 56.6431 103.996 56.6406 103.96 56.6455C103.523 56.7213 103.111 56.9009 102.758 57.1692C102.405 57.4375 102.122 57.7867 101.932 58.1873C101.908 58.2362 101.899 58.291 101.906 58.3451C101.912 58.3992 101.934 58.4502 101.969 58.4919C102.004 58.5336 102.051 58.5643 102.103 58.5802C102.155 58.5961 102.211 58.5966 102.263 58.5815Z" fill="#263238"/>
<path d="M111.366 56.3992C111.401 56.4007 111.436 56.3946 111.469 56.3812C111.502 56.3679 111.532 56.3476 111.556 56.3218C111.607 56.2691 111.636 56.1984 111.636 56.1247C111.636 56.0509 111.607 55.9802 111.556 55.9275C111.256 55.6026 110.883 55.353 110.468 55.1989C110.054 55.0448 109.609 54.9905 109.169 55.0405C109.133 55.0472 109.098 55.0612 109.067 55.0815C109.035 55.1018 109.009 55.1282 108.988 55.1589C108.967 55.1897 108.952 55.2243 108.944 55.2608C108.937 55.2972 108.937 55.3348 108.944 55.3714C108.959 55.4426 109.002 55.5051 109.062 55.5457C109.122 55.5864 109.196 55.6022 109.268 55.5896C109.614 55.5509 109.965 55.5944 110.292 55.7168C110.618 55.8391 110.912 56.0367 111.147 56.2936C111.174 56.3264 111.207 56.3528 111.245 56.3711C111.282 56.3894 111.324 56.399 111.366 56.3992Z" fill="#263238"/>
<path d="M90.0626 88.269C89.084 91.36 88.1477 94.605 87.3522 97.801C86.5515 100.957 85.9658 104.163 85.5992 107.397L85.5429 107.988C85.5429 108.178 85.5429 108.221 85.5429 108.39C85.5507 108.722 85.5766 109.053 85.6204 109.382C85.71 110.153 85.8393 110.919 86.0076 111.677C86.3384 113.247 86.7116 114.866 87.1903 116.472C87.669 118.077 88.0773 119.71 88.556 121.329L89.964 126.187L87.3522 127.264C85.7471 124.194 84.3532 121.069 83.0508 117.844C82.4242 116.225 81.8117 114.592 81.3048 112.867C81.0514 112.008 80.812 111.128 80.6008 110.171C80.5006 109.664 80.4301 109.151 80.3896 108.636C80.3896 108.376 80.3896 107.988 80.3896 107.756V107.052C80.4493 105.258 80.6139 103.469 80.8824 101.695C81.1148 99.935 81.4597 98.217 81.8328 96.506C82.5654 93.08 83.5058 89.702 84.6488 86.39L90.0626 88.269Z" fill="#FFC3BD"/>
<path d="M87.1547 79.913C84.7611 80.617 81.8818 88.889 81.8818 88.889L91.1746 95.535C91.1746 95.535 94.5679 88.65 93.5611 85.552C92.5122 82.328 89.8933 79.082 87.1547 79.913Z" fill="#037AD0"/>
<path opacity="0.4" d="M87.1547 79.913C84.7611 80.617 81.8818 88.889 81.8818 88.889L91.1746 95.535C91.1746 95.535 94.5679 88.65 93.5611 85.552C92.5122 82.328 89.8933 79.082 87.1547 79.913Z" fill="white"/>
<path d="M74.3145 234.321C74.429 234.281 74.5331 234.216 74.6195 234.131C74.7059 234.046 74.7725 233.942 74.8143 233.828C74.855 233.755 74.8764 233.673 74.8764 233.589C74.8764 233.505 74.855 233.423 74.8143 233.35C74.3919 232.73 72.2588 232.779 71.9983 232.786C71.9713 232.787 71.945 232.795 71.9226 232.81C71.9001 232.825 71.8824 232.846 71.8716 232.871C71.8579 232.893 71.8506 232.919 71.8506 232.945C71.8506 232.971 71.8579 232.997 71.8716 233.019C72.4278 233.575 73.4697 234.483 74.2018 234.342L74.3145 234.321ZM72.3362 233.04C73.1881 233.04 74.3286 233.16 74.5538 233.491C74.5731 233.522 74.5833 233.559 74.5833 233.596C74.5833 233.633 74.5731 233.67 74.5538 233.702C74.5227 233.787 74.4711 233.863 74.4035 233.923C74.336 233.983 74.2546 234.026 74.1666 234.047C73.7794 234.145 73.1036 233.744 72.3362 233.04Z" fill="#037AD0"/>
<path d="M72.9624 232.892C73.6101 232.688 74.3 232.329 74.4478 231.928C74.4846 231.823 74.4851 231.71 74.4493 231.605C74.4136 231.5 74.3436 231.411 74.2507 231.35C74.1687 231.282 74.0722 231.233 73.9686 231.208C73.8649 231.182 73.7567 231.18 73.6523 231.203C72.8146 231.35 71.9134 232.787 71.8782 232.85C71.8659 232.871 71.8594 232.896 71.8594 232.92C71.8594 232.945 71.8659 232.969 71.8782 232.991C71.8909 233.011 71.9084 233.029 71.9293 233.041C71.9502 233.053 71.9737 233.06 71.9979 233.061C72.3259 233.052 72.6508 232.995 72.9624 232.892ZM73.6101 231.484H73.7016C73.7678 231.47 73.8362 231.471 73.902 231.487C73.9677 231.503 74.0291 231.533 74.0818 231.576C74.2226 231.688 74.2085 231.773 74.1874 231.836C74.0466 232.223 72.9765 232.688 72.2654 232.78C72.5889 232.238 73.0538 231.795 73.6101 231.498V231.484Z" fill="#037AD0"/>
<path d="M113.288 248.485C113.784 248.526 114.279 248.4 114.696 248.126C114.792 248.039 114.866 247.929 114.91 247.806C114.954 247.683 114.968 247.552 114.949 247.422C114.944 247.346 114.919 247.272 114.877 247.208C114.835 247.144 114.777 247.092 114.71 247.056C114.006 246.662 111.647 247.859 111.38 247.993C111.354 248.003 111.332 248.021 111.316 248.044C111.301 248.068 111.292 248.095 111.292 248.123C111.292 248.151 111.301 248.178 111.316 248.201C111.332 248.224 111.354 248.243 111.38 248.253C112.006 248.395 112.645 248.473 113.288 248.485ZM114.337 247.268C114.426 247.262 114.516 247.279 114.597 247.317C114.625 247.332 114.648 247.354 114.664 247.382C114.68 247.409 114.689 247.44 114.689 247.472C114.702 247.553 114.694 247.636 114.667 247.713C114.64 247.791 114.594 247.86 114.534 247.915C114.175 248.239 113.203 248.295 111.901 248.077C112.661 247.671 113.485 247.398 114.337 247.268Z" fill="#037AD0"/>
<path d="M111.464 248.281H111.52C112.224 247.964 113.632 246.697 113.506 246.028C113.506 245.867 113.365 245.676 112.978 245.634C112.839 245.619 112.699 245.632 112.566 245.673C112.432 245.714 112.309 245.783 112.203 245.874C111.499 246.493 111.33 248.077 111.323 248.14C111.322 248.165 111.328 248.19 111.339 248.212C111.35 248.234 111.366 248.253 111.387 248.267C111.41 248.282 111.437 248.287 111.464 248.281ZM112.872 245.895H112.957C113.21 245.895 113.231 246.028 113.231 246.057C113.302 246.458 112.358 247.465 111.64 247.894C111.696 247.225 111.96 246.59 112.393 246.078C112.523 245.96 112.691 245.895 112.865 245.895H112.872Z" fill="#037AD0"/>
<path d="M91.0343 114.212L90.4289 116.324C90.3444 116.486 90.5415 116.655 90.8161 116.655H115.456C115.674 116.655 115.85 116.549 115.864 116.415L116.082 114.303C116.082 114.155 115.906 114.029 115.674 114.029H91.4286C91.3527 114.023 91.2765 114.037 91.2075 114.069C91.1385 114.101 91.0788 114.15 91.0343 114.212Z" fill="#263238"/>
<path d="M94.2863 116.915H93.6316C93.5049 116.915 93.4063 116.852 93.4134 116.767L93.7162 113.951C93.7162 113.874 93.8429 113.803 93.9696 113.803H94.6173C94.7511 113.803 94.8426 113.874 94.8356 113.951L94.5327 116.767C94.5327 116.88 94.4201 116.915 94.2863 116.915Z" fill="#037AD0"/>
<path opacity="0.4" d="M94.2863 116.915H93.6316C93.5049 116.915 93.4063 116.852 93.4134 116.767L93.7162 113.951C93.7162 113.874 93.8429 113.803 93.9696 113.803H94.6173C94.7511 113.803 94.8426 113.874 94.8356 113.951L94.5327 116.767C94.5327 116.88 94.4201 116.915 94.2863 116.915Z" fill="black"/>
<path d="M113.597 116.915H112.95C112.823 116.915 112.725 116.852 112.732 116.767L113.041 113.951C113.041 113.874 113.161 113.803 113.288 113.803H113.935C114.069 113.803 114.168 113.874 114.154 113.951L113.851 116.767C113.844 116.88 113.731 116.915 113.597 116.915Z" fill="#037AD0"/>
<path opacity="0.4" d="M113.597 116.915H112.95C112.823 116.915 112.725 116.852 112.732 116.767L113.041 113.951C113.041 113.874 113.161 113.803 113.288 113.803H113.935C114.069 113.803 114.168 113.874 114.154 113.951L113.851 116.767C113.844 116.88 113.731 116.915 113.597 116.915Z" fill="black"/>
<path d="M103.946 116.915H103.298C103.164 116.915 103.066 116.852 103.08 116.767L103.382 113.951C103.382 113.874 103.502 113.803 103.636 113.803H104.284C104.41 113.803 104.509 113.874 104.502 113.951L104.199 116.767C104.192 116.88 104.072 116.915 103.946 116.915Z" fill="#037AD0"/>
<path opacity="0.4" d="M103.946 116.915H103.298C103.164 116.915 103.066 116.852 103.08 116.767L103.382 113.951C103.382 113.874 103.502 113.803 103.636 113.803H104.284C104.41 113.803 104.509 113.874 104.502 113.951L104.199 116.767C104.192 116.88 104.072 116.915 103.946 116.915Z" fill="black"/>
<path d="M104.431 59.2856L105.494 58.7646C105.494 58.7646 105.072 59.7432 104.431 59.2856Z" fill="#263238"/>
<path d="M89.7665 125.391L94.8142 129.263L88.964 130.551C88.964 130.551 86.4788 127.735 87.3377 125.412L89.7665 125.391Z" fill="#FFC3BD"/>
<path d="M96.054 134.057L91.0978 134.867L88.3945 129.784L94.815 129.263L96.054 134.057Z" fill="#FFC3BD"/>
</svg>
