<svg class="icon icon--plugins" width="309" height="199" viewBox="0 0 309 199" fill="none" xmlns="http://www.w3.org/2000/svg">
<path d="M157.5 198.306C230.959 198.306 290.509 194.829 290.509 190.54C290.509 186.252 230.959 182.775 157.5 182.775C84.0411 182.775 24.4912 186.252 24.4912 190.54C24.4912 194.829 84.0411 198.306 157.5 198.306Z" fill="#F5F5F5"/>
<path d="M215.385 190.541H220.427L227.287 152.646H222.245L215.385 190.541Z" fill="#263238"/>
<path opacity="0.2" d="M215.385 190.541H220.427L227.287 152.646H222.245L215.385 190.541Z" fill="white"/>
<path opacity="0.2" d="M215.385 190.541H219.055L225.915 152.646H222.245L215.385 190.541Z" fill="white"/>
<path d="M201.191 163.917H221.353C221.499 163.918 221.644 163.89 221.779 163.834C221.915 163.779 222.037 163.697 222.141 163.594C222.244 163.49 222.326 163.367 222.382 163.232C222.437 163.097 222.465 162.952 222.464 162.806C222.465 162.659 222.437 162.515 222.382 162.379C222.326 162.244 222.244 162.121 222.141 162.018C222.037 161.914 221.915 161.833 221.779 161.777C221.644 161.722 221.499 161.693 221.353 161.694H201.191C201.045 161.693 200.9 161.722 200.765 161.777C200.63 161.833 200.507 161.914 200.404 162.018C200.3 162.121 200.218 162.244 200.163 162.379C200.107 162.515 200.079 162.659 200.08 162.806C200.079 162.952 200.107 163.097 200.163 163.232C200.218 163.367 200.3 163.49 200.404 163.594C200.507 163.697 200.63 163.779 200.765 163.834C200.9 163.89 201.045 163.918 201.191 163.917Z" fill="#263238"/>
<path d="M198.948 176.608H219.117C219.412 176.606 219.695 176.487 219.903 176.278C220.111 176.068 220.228 175.785 220.228 175.49C220.226 175.196 220.108 174.914 219.9 174.706C219.692 174.498 219.411 174.38 219.117 174.378H198.948C198.654 174.38 198.372 174.498 198.164 174.706C197.956 174.914 197.839 175.196 197.837 175.49C197.837 175.785 197.954 176.068 198.162 176.278C198.37 176.487 198.653 176.606 198.948 176.608Z" fill="#263238"/>
<path d="M194.805 190.541H199.847L206.707 152.646H201.665L194.805 190.541Z" fill="#263238"/>
<path opacity="0.2" d="M194.805 190.541H199.847L206.707 152.646H201.665L194.805 190.541Z" fill="white"/>
<path opacity="0.2" d="M194.805 190.541H198.475L205.335 152.646H201.665L194.805 190.541Z" fill="white"/>
<path d="M241.693 190.541H236.651L229.791 152.646H234.833L241.693 190.541Z" fill="#263238"/>
<path opacity="0.4" d="M241.693 190.541H236.651L229.791 152.646H234.833L241.693 190.541Z" fill="white"/>
<path opacity="0.2" d="M240.321 190.541H236.651L229.791 152.646H233.461L240.321 190.541Z" fill="white"/>
<path d="M232.837 163.917H212.668C212.373 163.917 212.091 163.8 211.882 163.591C211.674 163.383 211.557 163.1 211.557 162.806C211.557 162.511 211.674 162.228 211.882 162.02C212.091 161.811 212.373 161.694 212.668 161.694H232.837C233.131 161.694 233.414 161.811 233.622 162.02C233.831 162.228 233.948 162.511 233.948 162.806C233.948 163.1 233.831 163.383 233.622 163.591C233.414 163.8 233.131 163.917 232.837 163.917Z" fill="#263238"/>
<path d="M235.073 176.608H214.911C214.765 176.608 214.62 176.579 214.485 176.523C214.349 176.466 214.226 176.384 214.123 176.28C214.02 176.176 213.938 176.053 213.883 175.917C213.827 175.781 213.799 175.636 213.8 175.49C213.8 175.195 213.917 174.912 214.126 174.704C214.334 174.496 214.617 174.378 214.911 174.378H235.073C235.368 174.378 235.65 174.496 235.859 174.704C236.067 174.912 236.184 175.195 236.184 175.49C236.185 175.636 236.157 175.781 236.102 175.917C236.046 176.053 235.964 176.176 235.861 176.28C235.758 176.384 235.635 176.466 235.5 176.523C235.365 176.579 235.219 176.608 235.073 176.608Z" fill="#263238"/>
<path opacity="0.2" d="M232.837 163.917H212.668C212.373 163.917 212.091 163.8 211.882 163.591C211.674 163.383 211.557 163.1 211.557 162.806C211.557 162.511 211.674 162.228 211.882 162.02C212.091 161.811 212.373 161.694 212.668 161.694H232.837C233.131 161.694 233.414 161.811 233.622 162.02C233.831 162.228 233.948 162.511 233.948 162.806C233.948 163.1 233.831 163.383 233.622 163.591C233.414 163.8 233.131 163.917 232.837 163.917Z" fill="white"/>
<path opacity="0.2" d="M235.073 176.608H214.911C214.765 176.608 214.62 176.579 214.485 176.523C214.349 176.466 214.226 176.384 214.123 176.28C214.02 176.176 213.938 176.053 213.883 175.917C213.827 175.781 213.799 175.636 213.8 175.49C213.8 175.195 213.917 174.912 214.126 174.704C214.334 174.496 214.617 174.378 214.911 174.378H235.073C235.368 174.378 235.65 174.496 235.859 174.704C236.067 174.912 236.184 175.195 236.184 175.49C236.185 175.636 236.157 175.781 236.102 175.917C236.046 176.053 235.964 176.176 235.861 176.28C235.758 176.384 235.635 176.466 235.5 176.523C235.365 176.579 235.219 176.608 235.073 176.608Z" fill="white"/>
<path d="M221.113 190.541H216.071L209.211 152.646H214.253L221.113 190.541Z" fill="#263238"/>
<path opacity="0.4" d="M221.113 190.541H216.071L209.211 152.646H214.253L221.113 190.541Z" fill="white"/>
<path opacity="0.2" d="M219.741 190.541H216.071L209.211 152.646H212.881L219.741 190.541Z" fill="white"/>
<path d="M236.795 150.835H200.375C199.924 150.835 199.559 151.2 199.559 151.651V153.634C199.559 154.085 199.924 154.45 200.375 154.45H236.795C237.246 154.45 237.611 154.085 237.611 153.634V151.651C237.611 151.2 237.246 150.835 236.795 150.835Z" fill="#263238"/>
<path opacity="0.2" d="M214.218 150.835H200.375C199.924 150.835 199.559 151.2 199.559 151.651V153.634C199.559 154.085 199.924 154.45 200.375 154.45H214.218C214.669 154.45 215.035 154.085 215.035 153.634V151.651C215.035 151.2 214.669 150.835 214.218 150.835Z" fill="white"/>
<path d="M119.324 160.089H73.2598V190.046H119.324V160.089Z" fill="#037AD0"/>
<path opacity="0.6" d="M119.324 160.089H73.2598V190.046H119.324V160.089Z" fill="white"/>
<path d="M117.643 165.707H74.9473V188.551H117.643V165.707Z" fill="#037AD0"/>
<path d="M110.008 169.117H78.4248V170.098H110.008V169.117Z" fill="white"/>
<path d="M93.579 172.128H78.4248V173.109H93.579V172.128Z" fill="white"/>
<path d="M97.509 175.14H78.4248V176.121H97.509V175.14Z" fill="white"/>
<path d="M85.1476 178.145H78.4248V179.125H85.1476V178.145Z" fill="white"/>
<path d="M82.7809 181.156H78.4248V182.137H82.7809V181.156Z" fill="white"/>
<path d="M176.248 190.541H138.752L145.097 140.689H169.903L176.248 190.541Z" fill="#037AD0"/>
<path opacity="0.6" d="M176.248 190.541H138.752L143.094 156.433L145.104 140.689H169.896L172.86 163.917L176.248 190.541Z" fill="white"/>
<path opacity="0.1" d="M172.86 163.917L143.094 156.433L145.104 140.689H169.896L172.86 163.917Z" fill="black"/>
<path d="M245.905 17.765H69.0949C68.5007 17.765 67.9122 17.882 67.3633 18.109C66.8144 18.337 66.3157 18.671 65.8958 19.091C65.476 19.512 65.1431 20.011 64.9163 20.56C64.6895 21.109 64.5733 21.698 64.5742 22.292V141.986C64.5742 143.184 65.0505 144.334 65.8983 145.182C66.7461 146.03 67.8959 146.506 69.0949 146.506H245.905C247.104 146.506 248.254 146.03 249.101 145.182C249.949 144.334 250.426 143.184 250.426 141.986V22.306C250.428 21.711 250.313 21.12 250.087 20.57C249.861 20.019 249.529 19.518 249.109 19.096C248.689 18.674 248.189 18.339 247.64 18.111C247.09 17.882 246.5 17.765 245.905 17.765Z" fill="#037AD0"/>
<path opacity="0.7" d="M245.905 17.765H69.0949C68.5007 17.765 67.9122 17.882 67.3633 18.109C66.8144 18.337 66.3157 18.671 65.8958 19.091C65.476 19.512 65.1431 20.011 64.9163 20.56C64.6895 21.109 64.5733 21.698 64.5742 22.292V141.986C64.5742 143.184 65.0505 144.334 65.8983 145.182C66.7461 146.03 67.8959 146.506 69.0949 146.506H245.905C247.104 146.506 248.254 146.03 249.101 145.182C249.949 144.334 250.426 143.184 250.426 141.986V22.306C250.428 21.711 250.313 21.12 250.087 20.57C249.861 20.019 249.529 19.518 249.109 19.096C248.689 18.674 248.189 18.339 247.64 18.111C247.09 17.882 246.5 17.765 245.905 17.765Z" fill="white"/>
<path d="M244.478 22.196H70.5293V137.616H244.478V22.196Z" fill="#037AD0"/>
<path d="M188.987 186.795H126.006C125.612 186.795 125.292 187.114 125.292 187.508V189.765C125.292 190.159 125.612 190.479 126.006 190.479H188.987C189.381 190.479 189.701 190.159 189.701 189.765V187.508C189.701 187.114 189.381 186.795 188.987 186.795Z" fill="#037AD0"/>
<path opacity="0.7" d="M188.987 186.795H126.006C125.612 186.795 125.292 187.114 125.292 187.508V189.765C125.292 190.159 125.612 190.479 126.006 190.479H188.987C189.381 190.479 189.701 190.159 189.701 189.765V187.508C189.701 187.114 189.381 186.795 188.987 186.795Z" fill="white"/>
<path opacity="0.2" d="M244.478 22.306H70.5293V39.511H244.478V22.306Z" fill="black"/>
<path opacity="0.4" d="M145.07 39.717H70.5293V137.616H145.07V39.717Z" fill="white"/>
<path d="M217.703 64.687V66.402H215.988" stroke="white" stroke-miterlimit="10"/>
<path d="M212.366 66.402H156.183" stroke="white" stroke-miterlimit="10" stroke-dasharray="5.28 5.28"/>
<path d="M154.372 66.402H152.657V64.687" stroke="white" stroke-miterlimit="10"/>
<path d="M152.657 61.58V32.061" stroke="white" stroke-miterlimit="10" stroke-dasharray="4.53 4.53"/>
<path d="M152.657 30.51V28.795H154.372" stroke="white" stroke-miterlimit="10"/>
<path d="M157.994 28.795H214.177" stroke="white" stroke-miterlimit="10" stroke-dasharray="5.28 5.28"/>
<path d="M215.988 28.795H217.703V30.51" stroke="white" stroke-miterlimit="10"/>
<path d="M217.703 33.618V63.137" stroke="white" stroke-miterlimit="10" stroke-dasharray="4.53 4.53"/>
<path d="M218.794 27.705H216.62V29.879H218.794V27.705Z" fill="#037AD0" stroke="white" stroke-miterlimit="10"/>
<path d="M218.794 65.318H216.62V67.493H218.794V65.318Z" fill="#037AD0" stroke="white" stroke-miterlimit="10"/>
<path d="M153.741 27.705H151.566V29.879H153.741V27.705Z" fill="#037AD0" stroke="white" stroke-miterlimit="10"/>
<path d="M153.741 65.318H151.566V67.493H153.741V65.318Z" fill="#037AD0" stroke="white" stroke-miterlimit="10"/>
<path d="M186.271 27.705H184.096V29.879H186.271V27.705Z" fill="#037AD0" stroke="white" stroke-miterlimit="10"/>
<path d="M186.271 65.318H184.096V67.493H186.271V65.318Z" fill="#037AD0" stroke="white" stroke-miterlimit="10"/>
<path d="M218.794 46.5081H216.62V48.6821H218.794V46.5081Z" fill="#037AD0" stroke="white" stroke-miterlimit="10"/>
<path d="M153.741 46.5081H151.566V48.6821H153.741V46.5081Z" fill="#037AD0" stroke="white" stroke-miterlimit="10"/>
<path opacity="0.7" d="M211.797 41.425H195.875C195.159 41.425 194.578 42.005 194.578 42.721V46.981C194.578 47.697 195.159 48.278 195.875 48.278H211.797C212.513 48.278 213.094 47.697 213.094 46.981V42.721C213.094 42.005 212.513 41.425 211.797 41.425Z" fill="white"/>
<path opacity="0.7" d="M184.357 41.425H168.435C167.719 41.425 167.138 42.005 167.138 42.721V46.981C167.138 47.697 167.719 48.278 168.435 48.278H184.357C185.073 48.278 185.654 47.697 185.654 46.981V42.721C185.654 42.005 185.073 41.425 184.357 41.425Z" fill="white"/>
<path opacity="0.7" d="M149.035 124.835H133.113C132.397 124.835 131.816 125.416 131.816 126.132V130.392C131.816 131.108 132.397 131.689 133.113 131.689H149.035C149.751 131.689 150.331 131.108 150.331 130.392V126.132C150.331 125.416 149.751 124.835 149.035 124.835Z" fill="white"/>
<path d="M232.994 28.425H238.784" stroke="white" stroke-width="1.5" stroke-linecap="round" stroke-linejoin="round"/>
<path d="M232.994 31.1689H238.784" stroke="white" stroke-width="1.5" stroke-linecap="round" stroke-linejoin="round"/>
<path d="M232.994 33.913H238.784" stroke="white" stroke-width="1.5" stroke-linecap="round" stroke-linejoin="round"/>
<path opacity="0.5" d="M140.666 54.891H82.3213V113.235H140.666V54.891Z" fill="white"/>
<path d="M106.743 59.6589V109.991" stroke="#037AD0" stroke-miterlimit="10"/>
<path d="M131.905 109.991C125.23 109.991 118.828 107.339 114.108 102.619C109.388 97.8979 106.736 91.4969 106.736 84.8209C106.736 78.1479 109.387 71.7479 114.106 67.0289C118.825 62.3099 125.225 59.6589 131.899 59.6589" stroke="#037AD0" stroke-miterlimit="10"/>
<path d="M132.996 58.575H130.822V60.7489H132.996V58.575Z" fill="white" stroke="#037AD0" stroke-miterlimit="10"/>
<path d="M132.996 108.9H130.822V111.075H132.996V108.9Z" fill="white" stroke="#037AD0" stroke-miterlimit="10"/>
<path d="M107.834 83.7371H105.659V85.9121H107.834V83.7371Z" fill="white" stroke="#037AD0" stroke-miterlimit="10"/>
<path d="M107.305 59.659C107.305 59.77 107.272 59.8789 107.211 59.9709C107.149 60.0639 107.061 60.1359 106.958 60.1779C106.855 60.2209 106.742 60.232 106.633 60.21C106.524 60.189 106.424 60.135 106.345 60.056C106.267 59.978 106.213 59.878 106.191 59.768C106.17 59.659 106.181 59.5459 106.223 59.4429C106.266 59.3409 106.338 59.2529 106.43 59.1909C106.523 59.1289 106.632 59.0959 106.743 59.0959C106.892 59.0979 107.034 59.158 107.139 59.263C107.244 59.368 107.304 59.51 107.305 59.659Z" fill="white" stroke="#037AD0" stroke-miterlimit="10"/>
<path d="M107.305 109.99C107.305 110.101 107.273 110.21 107.211 110.302C107.15 110.394 107.062 110.467 106.96 110.509C106.857 110.552 106.745 110.564 106.636 110.542C106.527 110.521 106.427 110.468 106.348 110.39C106.269 110.312 106.215 110.213 106.192 110.104C106.17 109.996 106.18 109.883 106.221 109.78C106.263 109.677 106.334 109.589 106.425 109.526C106.517 109.463 106.625 109.429 106.736 109.428C106.811 109.427 106.884 109.441 106.953 109.469C107.023 109.496 107.085 109.538 107.138 109.59C107.191 109.642 107.233 109.705 107.262 109.773C107.291 109.842 107.305 109.916 107.305 109.99Z" fill="white" stroke="#037AD0" stroke-miterlimit="10"/>
<path opacity="0.7" d="M203.414 125.666H185.75C184.396 125.666 183.098 125.128 182.141 124.171C181.183 123.214 180.646 121.915 180.646 120.562C180.646 119.208 181.183 117.91 182.141 116.953C183.098 115.996 184.396 115.458 185.75 115.458H203.414C204.768 115.458 206.066 115.996 207.023 116.953C207.98 117.91 208.518 119.208 208.518 120.562C208.518 121.915 207.98 123.214 207.023 124.171C206.066 125.128 204.768 125.666 203.414 125.666Z" fill="white"/>
<path opacity="0.7" d="M218.931 82.139H164.36C164.064 82.139 163.779 82.021 163.569 81.812C163.36 81.602 163.242 81.317 163.242 81.021C163.247 80.729 163.368 80.45 163.577 80.246C163.786 80.042 164.068 79.928 164.36 79.93H218.925C219.071 79.929 219.216 79.957 219.352 80.013C219.488 80.068 219.611 80.15 219.715 80.253C219.819 80.357 219.901 80.479 219.958 80.615C220.014 80.75 220.043 80.895 220.043 81.042C220.037 81.333 219.918 81.611 219.711 81.817C219.503 82.022 219.223 82.137 218.931 82.139Z" fill="white"/>
<path opacity="0.7" d="M218.931 90.282H164.36C164.214 90.283 164.068 90.255 163.933 90.199C163.797 90.144 163.674 90.062 163.57 89.959C163.466 89.855 163.383 89.733 163.327 89.597C163.271 89.462 163.242 89.317 163.242 89.17C163.242 88.874 163.36 88.589 163.569 88.38C163.779 88.17 164.064 88.052 164.36 88.052H218.925C219.221 88.052 219.506 88.17 219.715 88.38C219.925 88.589 220.043 88.874 220.043 89.17C220.043 89.465 219.926 89.748 219.717 89.956C219.509 90.165 219.226 90.282 218.931 90.282Z" fill="white"/>
<path opacity="0.7" d="M218.931 98.452H184.94C184.645 98.452 184.361 98.335 184.152 98.127C183.942 97.919 183.824 97.636 183.822 97.341C183.822 97.044 183.94 96.76 184.149 96.55C184.359 96.34 184.643 96.223 184.94 96.223H218.924C219.221 96.223 219.505 96.34 219.715 96.55C219.925 96.76 220.043 97.044 220.043 97.341C220.041 97.635 219.923 97.917 219.715 98.125C219.507 98.333 219.225 98.45 218.931 98.452Z" fill="white"/>
<path opacity="0.4" d="M79.8787 27.074H76.0234V30.929H79.8787V27.074Z" fill="black"/>
<path opacity="0.4" d="M86.3818 27.074H84.5024C83.9569 27.074 83.5146 27.516 83.5146 28.062V29.941C83.5146 30.487 83.9569 30.929 84.5024 30.929H86.3818C86.9278 30.929 87.3698 30.487 87.3698 29.941V28.062C87.3698 27.516 86.9278 27.074 86.3818 27.074Z" fill="black"/>
<path opacity="0.4" d="M93.1047 27.074H92.7757C91.8017 27.074 91.0127 27.863 91.0127 28.837V29.166C91.0127 30.14 91.8017 30.929 92.7757 30.929H93.1047C94.0787 30.929 94.8677 30.14 94.8677 29.166V28.837C94.8677 27.863 94.0787 27.074 93.1047 27.074Z" fill="black"/>
<path opacity="0.9" d="M87.837 122.119V120.616L87.068 120.548C86.959 120.06 86.764 119.596 86.492 119.176L86.986 118.579L85.9228 117.516L85.326 118.01C84.9062 117.738 84.4417 117.543 83.954 117.433L83.8854 116.665H82.3831L82.3076 117.433C81.82 117.544 81.3556 117.739 80.9356 118.01L80.3388 117.516L79.2755 118.579L79.7694 119.176C79.4924 119.593 79.2969 120.058 79.1932 120.548L78.418 120.616V122.119L79.1932 122.194C79.2974 122.684 79.4929 123.149 79.7694 123.566L79.2755 124.17L80.3388 125.226L80.9356 124.732C81.3527 125.009 81.8181 125.204 82.3076 125.309L82.3831 126.084H83.8854L83.954 125.309C84.4436 125.205 84.9091 125.009 85.326 124.732L85.9228 125.226L86.986 124.17L86.492 123.566C86.766 123.148 86.961 122.683 87.068 122.194L87.837 122.119ZM83.1102 123.402C82.7032 123.402 82.3053 123.281 81.9669 123.055C81.6284 122.829 81.3646 122.507 81.2089 122.131C81.0531 121.755 81.0123 121.341 81.0918 120.942C81.1712 120.543 81.3672 120.176 81.655 119.888C81.9428 119.601 82.3095 119.405 82.7087 119.325C83.1079 119.246 83.5217 119.286 83.8978 119.442C84.2738 119.598 84.5952 119.862 84.8214 120.2C85.0475 120.539 85.1682 120.937 85.1682 121.344C85.1682 121.889 84.9514 122.413 84.5654 122.799C84.1795 123.185 83.656 123.402 83.1102 123.402Z" fill="white"/>
<path opacity="0.6" d="M93.9275 126.358V125.206L93.3245 125.144C93.2425 124.758 93.0885 124.39 92.8715 124.06L93.2555 123.587L92.4255 122.757L91.9595 123.148C91.6265 122.93 91.2565 122.777 90.8685 122.695L90.8135 122.084H89.6335L89.5785 122.695C89.1905 122.777 88.8205 122.93 88.4875 123.148L88.0215 122.757L87.1845 123.587L87.5755 124.06C87.3585 124.39 87.2045 124.758 87.1225 125.144L86.5195 125.206V126.379L87.1225 126.441C87.2045 126.827 87.3585 127.195 87.5755 127.524L87.1845 127.998L88.0215 128.828L88.4875 128.437C88.8205 128.654 89.1905 128.808 89.5785 128.89L89.6335 129.493H90.8135L90.8685 128.89C91.2565 128.808 91.6265 128.654 91.9595 128.437L92.4255 128.828L93.2555 127.998L92.8715 127.524C93.0885 127.195 93.2425 126.827 93.3245 126.441L93.9275 126.358ZM90.2235 127.367C89.9075 127.368 89.5975 127.275 89.3335 127.101C89.0695 126.926 88.8635 126.677 88.7415 126.385C88.6195 126.093 88.5875 125.771 88.6485 125.461C88.7085 125.15 88.8605 124.865 89.0835 124.64C89.3075 124.416 89.5915 124.263 89.9025 124.201C90.2125 124.139 90.5345 124.17 90.8265 124.291C91.1195 124.412 91.3695 124.617 91.5455 124.88C91.7215 125.143 91.8145 125.452 91.8145 125.768C91.8155 125.978 91.7755 126.186 91.6955 126.379C91.6165 126.573 91.4995 126.75 91.3515 126.898C91.2035 127.047 91.0275 127.164 90.8345 127.245C90.6405 127.325 90.4335 127.367 90.2235 127.367Z" fill="white"/>
<path opacity="0.4" d="M87.8365 129.699V128.711L87.3285 128.663C87.2605 128.338 87.1325 128.029 86.9515 127.751L87.2805 127.36L86.5945 126.674L86.1965 126.996C85.9186 126.815 85.6092 126.687 85.2843 126.619L85.2363 126.111H84.2347L84.1867 126.619C83.8618 126.687 83.5524 126.815 83.2743 126.996L82.8764 126.674L82.1904 127.36L82.5197 127.751C82.3384 128.029 82.2105 128.338 82.1424 128.663L81.6279 128.711V129.699L82.1424 129.747C82.2092 130.075 82.3372 130.386 82.5197 130.666L82.1904 131.057L82.8764 131.743L83.2743 131.414C83.5505 131.6 83.8605 131.731 84.1867 131.798L84.2347 132.306H85.2226L85.2706 131.798C85.5968 131.731 85.9067 131.6 86.1825 131.414L86.5805 131.743L87.2665 131.057L86.9375 130.666C87.1205 130.386 87.2485 130.075 87.3145 129.747L87.8365 129.699ZM84.7286 130.543C84.4656 130.536 84.2105 130.452 83.995 130.301C83.7796 130.15 83.6135 129.939 83.5175 129.694C83.4215 129.449 83.3998 129.181 83.4553 128.924C83.5107 128.667 83.6407 128.431 83.8291 128.248C84.0175 128.064 84.2558 127.94 84.5143 127.891C84.7728 127.842 85.04 127.871 85.2825 127.973C85.5249 128.075 85.7318 128.247 85.8774 128.466C86.0225 128.685 86.1005 128.942 86.1005 129.205C86.1005 129.384 86.0655 129.561 85.9956 129.725C85.9263 129.89 85.8247 130.039 85.6968 130.163C85.5689 130.288 85.4174 130.386 85.2511 130.451C85.0848 130.516 84.9072 130.547 84.7286 130.543Z" fill="white"/>
<path d="M217.305 28.4041L220.214 36.1841L225.078 31.3131L217.305 28.4041Z" fill="#037AD0"/>
<path d="M221.99 32.002L220.904 33.088L223.314 35.4989L224.401 34.4129L221.99 32.002Z" fill="#037AD0"/>
<path opacity="0.4" d="M225.078 31.3131L217.305 28.4041L220.214 36.1841L222.107 34.29L223.308 35.4981L224.392 34.4141L223.191 33.206L225.078 31.3131Z" fill="white"/>
<path d="M98.1341 56.2079L105.453 58.952L101.619 55.118C101.477 55.199 101.312 55.232 101.15 55.211C100.987 55.19 100.836 55.116 100.72 55.001C100.578 54.859 100.498 54.667 100.498 54.466C100.498 54.265 100.578 54.073 100.72 53.931C100.862 53.789 101.054 53.709 101.255 53.709C101.456 53.709 101.648 53.789 101.79 53.931C101.905 54.047 101.979 54.198 102 54.36C102.021 54.523 101.988 54.6879 101.907 54.8289L105.741 58.664L102.997 51.345L100.569 51.88L100.48 51.0079L100.02 50.549L97.3311 53.238L97.7911 53.698L98.6691 53.787L98.1341 56.2079Z" fill="#263238"/>
<path opacity="0.2" d="M98.1341 56.2079L105.453 58.952L101.619 55.118C101.477 55.199 101.312 55.232 101.15 55.211C100.987 55.19 100.836 55.116 100.72 55.001C100.578 54.859 100.498 54.667 100.498 54.466C100.498 54.265 100.578 54.073 100.72 53.931C100.862 53.789 101.054 53.709 101.255 53.709C101.456 53.709 101.648 53.789 101.79 53.931C101.905 54.047 101.979 54.198 102 54.36C102.021 54.523 101.988 54.6879 101.907 54.8289L105.741 58.664L102.997 51.345L100.569 51.88L100.48 51.0079L100.02 50.549L97.3311 53.238L97.7911 53.698L98.6691 53.787L98.1341 56.2079Z" fill="white"/>
<g opacity="0.1">
<path opacity="0.1" d="M95.9656 22.196L70.1855 118.524V22.196H95.9656Z" fill="white"/>
<path opacity="0.1" d="M125.059 22.196L94.1688 137.616H72.8887L103.773 22.196H125.059Z" fill="white"/>
<path opacity="0.1" d="M155.997 22.196L125.106 137.616H115.482L146.372 22.196H155.997Z" fill="white"/>
<path opacity="0.1" d="M184.486 22.196L153.596 137.616H150.152L181.043 22.196H184.486Z" fill="white"/>
</g>
<path d="M289.143 47.688C291.579 50.494 303.968 74.36 301.574 79.93C299.18 85.5 279.327 79.079 279.327 79.079L280.514 71.211C280.514 71.211 288.224 71.485 288.965 70.751C289.706 70.017 278.531 58.863 278.531 58.863L289.143 47.688Z" fill="#263238"/>
<g opacity="0.2">
<path opacity="0.2" d="M301.56 79.93C301.266 80.575 300.753 81.095 300.112 81.398L299.715 81.576H299.66C299.537 81.628 299.411 81.672 299.282 81.707C298.725 81.886 298.15 82.005 297.567 82.063L297.067 82.111C296.82 82.111 296.573 82.146 296.319 82.153H295.633C288.979 82.153 279.299 79.031 279.299 79.031L280.486 71.163C280.486 71.163 288.197 71.437 288.937 70.703C289.116 70.525 288.588 69.729 287.689 68.645C285.507 65.963 281.138 61.497 279.333 59.672L278.517 58.849L289.143 47.688C291.579 50.466 303.968 74.332 301.56 79.93Z" fill="white"/>
</g>
<path opacity="0.2" d="M300.126 81.378L299.728 81.556H299.673C299.551 81.608 299.425 81.651 299.296 81.686C298.739 81.865 298.164 81.985 297.581 82.043L297.079 82.091C296.832 82.091 296.586 82.125 296.333 82.132H295.647C288.992 82.132 279.312 79.011 279.312 79.011L280.5 71.143C280.5 71.143 289.184 71.877 289.924 71.143C290.062 70.854 289.102 69.88 287.682 68.639C285.501 65.956 281.131 61.491 279.327 59.666L284.348 54.301L288.169 53.89C288.169 53.89 296.628 67.582 300.126 81.378Z" fill="black"/>
<path d="M264.111 46.879C262.739 47.873 262.053 49.286 262.602 50.034L298.85 100.009C299.392 100.757 300.949 100.551 302.321 99.557C303.693 98.562 304.379 97.142 303.831 96.401L267.582 46.419C267.04 45.678 265.49 45.877 264.111 46.879Z" fill="#263238"/>
<path opacity="0.7" d="M267.582 46.419L303.831 96.394C304.373 97.135 303.693 98.548 302.321 99.55C300.949 100.551 299.392 100.743 298.857 100.002L262.609 50.02C262.47 49.76 262.409 49.465 262.432 49.171C262.455 48.877 262.562 48.596 262.739 48.36C262.924 48.03 263.155 47.727 263.425 47.462C263.635 47.244 263.865 47.047 264.111 46.872C265.49 45.884 267.04 45.678 267.582 46.419Z" fill="white"/>
<path opacity="0.3" d="M303.831 96.394C304.373 97.135 303.693 98.548 302.321 99.549C300.949 100.551 299.392 100.743 298.857 100.002C298.555 99.591 299.303 98.966 299.742 98.068L262.739 48.374C262.924 48.043 263.155 47.741 263.425 47.475L299.68 97.457C299.893 97.241 300.123 97.041 300.366 96.86C301.738 95.859 303.289 95.653 303.831 96.394Z" fill="black"/>
<path d="M259.625 45.493C258.465 46.728 258.068 48.237 258.74 48.875L303.81 91.071C304.496 91.702 305.971 91.208 307.13 89.966C308.29 88.725 308.688 87.222 308.015 86.577L262.945 44.382C262.273 43.757 260.784 44.258 259.625 45.493Z" fill="#037AD0"/>
<path opacity="0.7" d="M262.945 44.388L308.015 86.584C308.701 87.209 308.29 88.725 307.13 89.966C305.971 91.208 304.482 91.695 303.81 91.071L258.74 48.875C258.556 48.644 258.441 48.365 258.408 48.071C258.375 47.778 258.426 47.481 258.554 47.215C258.678 46.855 258.848 46.514 259.062 46.199C259.232 45.957 259.42 45.727 259.625 45.513C260.784 44.258 262.273 43.757 262.945 44.388Z" fill="white"/>
<path opacity="0.3" d="M308.015 86.584C308.701 87.208 308.29 88.724 307.13 89.966C305.971 91.208 304.482 91.695 303.81 91.07C303.44 90.721 304.057 89.973 304.318 89.012L258.555 47.228C258.678 46.869 258.849 46.527 259.062 46.213L304.139 88.416C304.305 88.172 304.491 87.942 304.695 87.73C305.854 86.447 307.343 85.953 308.015 86.584Z" fill="black"/>
<path d="M270.457 180.155L267.027 180.21C263.535 163.807 261.065 143.509 259.529 128.197C259.289 125.796 259.069 123.525 258.843 121.406C258.754 120.397 258.664 119.43 258.582 118.497C258.17 113.894 257.896 110.265 257.718 107.987C257.594 106.341 257.532 105.436 257.532 105.436H270.004L269.887 108.598L269.476 119.032L269.435 120.226L269.174 127.12L268.742 138.857C273.002 155.39 270.457 180.155 270.457 180.155Z" fill="#EBB376"/>
<path d="M298.308 179.277L294.926 179.915C288.156 162.991 281.796 141.32 277.66 126.18C277.022 123.834 276.432 121.639 275.904 119.649C275.904 119.547 275.856 119.45 275.828 119.354C274.785 115.403 273.983 112.254 273.482 110.258L272.885 107.837L285.096 105.724L285.782 110.869L286.804 118.415L287.003 119.896L287.689 125.048L289.548 138.864C296.6 154.437 298.308 179.277 298.308 179.277Z" fill="#EBB376"/>
<path opacity="0.2" d="M286.838 118.428L275.904 119.649C275.904 119.546 275.855 119.45 275.828 119.354C274.785 115.403 273.983 112.254 273.482 110.258L285.83 110.868L286.838 118.428Z" fill="black"/>
<path opacity="0.2" d="M269.86 108.598L269.476 119.032L269.435 120.226L258.87 121.399C258.781 120.39 258.692 119.423 258.609 118.49C258.198 113.887 257.923 110.258 257.745 107.98L269.86 108.598Z" fill="black"/>
<path d="M260.311 191.556C260.95 191.037 261.677 190.637 262.458 190.376C262.458 190.376 264.797 188.057 265.929 181.074L268.989 180.271C269.509 180.147 270.054 180.185 270.552 180.38C271.05 180.575 271.476 180.918 271.774 181.362C271.858 181.486 271.923 181.623 271.966 181.767C272.124 182.516 272.234 183.274 272.295 184.037C272.466 186.591 272.482 189.152 272.343 191.707H271.787L271.568 186.905C271.486 185.265 270.23 187.186 269.874 188.963C269.517 190.74 268.755 192.592 265.174 192.681C260.99 192.743 259.254 192.578 260.311 191.556Z" fill="#263238"/>
<path d="M271.884 181.458C272.083 179.825 272.144 176.985 272.144 176.985L265.339 177.74C265.339 177.74 266.162 180.971 265.483 183.399C268.913 182.46 271.884 181.458 271.884 181.458Z" fill="#263238"/>
<path d="M287.998 191.556C288.637 191.039 289.365 190.642 290.145 190.383C290.145 190.383 292.484 188.064 293.609 181.081L296.676 180.278C297.196 180.154 297.741 180.192 298.239 180.387C298.737 180.582 299.163 180.925 299.461 181.369C299.545 181.493 299.61 181.63 299.653 181.774C299.811 182.523 299.921 183.281 299.982 184.044C300.152 186.597 300.166 189.159 300.023 191.714H299.502L299.282 186.912C299.2 185.272 297.945 187.193 297.588 188.97C297.231 190.746 296.47 192.599 292.882 192.688C288.677 192.743 286.941 192.578 287.998 191.556Z" fill="#263238"/>
<path d="M299.564 181.458C299.77 179.825 299.831 176.985 299.831 176.985L293.026 177.74C293.026 177.74 293.849 180.971 293.17 183.399C296.6 182.46 299.564 181.458 299.564 181.458Z" fill="#263238"/>
<path d="M288.018 115.06L275.074 116.713L274.573 116.775L271.911 107.02L271.225 117.475L257.354 116.748C251.18 80.479 261.738 71.911 261.738 71.911L280.555 75.697C289.075 90.186 287.051 107.02 287.051 107.02L288.018 115.06Z" fill="#037AD0"/>
<path d="M270.196 26.724C270.196 28.151 269.565 29.303 268.824 29.303C268.083 29.303 267.411 28.151 267.411 26.724C267.411 25.297 268.042 24.145 268.824 24.145C269.606 24.145 270.196 25.297 270.196 26.724Z" stroke="#263238" stroke-width="0.5" stroke-linecap="round" stroke-linejoin="round"/>
<path d="M279.491 35.34C279.441 35.387 279.386 35.429 279.327 35.464C278.544 36.06 277.651 36.496 276.699 36.746C273.921 37.391 272.021 37.007 270.779 35.752C269.044 33.865 268.611 30.524 268.858 26.491C268.902 24.886 269.198 23.297 269.737 21.785C269.737 21.785 269.737 21.723 269.737 21.709C269.737 21.696 269.778 21.593 269.805 21.538C270.145 20.685 270.694 19.93 271.401 19.344C272.108 18.758 272.951 18.359 273.853 18.183C274.634 18.009 275.432 17.919 276.233 17.916C284.101 17.854 285.515 30.874 279.491 35.34Z" fill="#EBB376"/>
<path opacity="0.2" d="M279.327 35.4839C278.538 36.0459 277.644 36.4449 276.699 36.6569C273.921 37.3019 272.021 36.8289 270.779 35.5529C272.442 35.9639 274.193 35.8189 275.766 35.1409C276.347 34.9269 276.969 34.8459 277.586 34.9059C278.202 34.9649 278.797 35.1629 279.327 35.4839Z" fill="black"/>
<path d="M280.122 42.5841C280.609 44.8211 277.708 45.7331 277.708 45.7331C272.967 43.6751 272.089 41.1851 272.089 41.1851C276.048 39.1271 274.902 33.2891 274.902 33.2891L275.705 33.6871L281.35 34.7911C281.35 34.7911 279.786 37.7961 279.58 38.4821C278.51 42.0841 280.122 42.5841 280.122 42.5841Z" fill="#EBB376"/>
<path d="M269.73 21.75C269.73 21.75 269.297 27.238 274.532 29.633C274.532 29.633 276.775 35.361 280.075 35.436C284.582 35.546 288.547 29.146 286.989 22.622C284.952 14.156 272.131 13.47 269.73 21.75Z" fill="#263238"/>
<path d="M271.87 28.048C271.87 27.19 272.556 25.743 273.928 25.942C275.3 26.141 276.082 29.557 272.679 30.319C272.165 30.428 271.87 29.852 271.87 28.048Z" fill="#EBB376"/>
<path d="M279.327 15.8919C279.327 15.8919 274.072 14.5609 271.163 16.6809C267.768 19.1499 266.478 21.7019 270.477 25.6669C270.477 25.6669 279.306 22.807 282.242 23.41C283.958 23.757 285.643 24.2449 287.277 24.8719C287.915 19.0409 282.263 14.6979 279.327 15.8919Z" fill="#263238"/>
<path d="M271.87 26.724C271.87 26.724 273.242 33.076 271.088 38.496C271.088 38.496 283.573 42.824 287.916 40.471C292.258 38.118 288.279 30.222 288.094 25.667C287.909 21.112 285.933 14.383 279.327 15.892C272.721 17.401 271.87 26.724 271.87 26.724Z" fill="#263238"/>
<path d="M267.376 26.319H272.652" stroke="#263238" stroke-width="0.5" stroke-linecap="round" stroke-linejoin="round"/>
<path opacity="0.2" d="M275.074 116.713L274.573 116.775L271.911 107.02C271.911 107.02 277.619 97.272 275.835 92.196C276.089 92.553 282.236 101.669 275.074 116.713Z" fill="black"/>
<path d="M264.386 42.09C264.386 42.09 270.663 39.854 280.123 42.584C289.582 45.315 289.939 49.341 289.939 49.341C289.939 49.341 283.944 62.931 282.997 78.318L258.342 77.399C258.342 77.399 255.399 55.68 264.386 42.09Z" fill="#263238"/>
<path opacity="0.2" d="M289.939 49.341C289.939 49.341 283.944 62.931 282.997 78.318L258.342 77.399C258.047 74.894 257.896 72.375 257.889 69.853C257.841 66.162 258.07 62.472 258.575 58.815C259.398 53.121 261.093 47.043 264.386 42.063C264.386 42.063 270.663 39.8271 280.122 42.5571C289.582 45.2871 289.939 49.341 289.939 49.341Z" fill="white"/>
<path opacity="0.2" d="M264.043 59.7681C264.043 59.7681 263.021 66.0251 257.869 69.8801C257.82 66.1891 258.049 62.499 258.555 58.842L264.043 59.7681Z" fill="black"/>
<path d="M236.802 41.658L233.694 37.048C233.694 37.048 233.221 35.045 232.617 34.592C232.013 34.139 226.045 31.594 225.325 31.608C224.605 31.622 224.639 36.259 225.325 37.048C226.011 37.837 229.811 39.524 230.813 39.696C231.814 39.867 231.32 39.696 231.32 39.696L234.064 45.184L236.802 41.658Z" fill="#EBB376"/>
<path d="M264.386 42.09C257.728 44.878 251.305 48.195 245.178 52.01L235.141 38.29C235.141 38.29 232.439 39.126 231.437 43.832C231.437 43.832 236.589 63.459 243.284 65.407C249.98 67.355 264.056 59.734 264.056 59.734C264.056 59.734 268.131 49.54 264.386 42.09Z" fill="#263238"/>
<path opacity="0.2" d="M264.386 42.09C257.728 44.878 251.305 48.195 245.178 52.01L235.141 38.29C235.141 38.29 232.439 39.126 231.437 43.832C231.437 43.832 236.589 63.459 243.284 65.407C249.98 67.355 264.056 59.734 264.056 59.734C264.056 59.734 268.131 49.54 264.386 42.09Z" fill="white"/>
<path d="M270.731 41.226C270.731 41.226 272.92 56.894 279.855 57.525C286.79 58.156 289.898 46.549 288.725 45.177C287.552 43.805 278.613 41.123 270.731 41.226Z" fill="#263238"/>
<path opacity="0.3" d="M270.731 41.226C270.731 41.226 272.92 56.894 279.855 57.525C286.79 58.156 289.898 46.549 288.725 45.177C287.552 43.805 278.613 41.123 270.731 41.226Z" fill="white"/>
<path d="M23.9775 185.347H29.0607L29.4792 173.576H24.3959L23.9775 185.347Z" fill="#B97964"/>
<path d="M29.7599 184.757H23.5859C23.4842 184.755 23.3851 184.789 23.3061 184.853C23.227 184.917 23.1731 185.007 23.1537 185.107L22.1522 189.628C22.131 189.724 22.1292 189.824 22.1467 189.921C22.1643 190.018 22.2009 190.111 22.2545 190.194C22.3081 190.277 22.3775 190.348 22.4589 190.404C22.5402 190.46 22.6318 190.499 22.7284 190.52H22.893C24.8893 190.485 26.323 190.362 28.8475 190.362C30.3979 190.362 35.0215 190.527 37.1893 190.527C39.357 190.527 39.5971 188.421 38.7259 188.228C34.8089 187.371 31.8659 186.17 30.6105 185.066C30.3763 184.859 30.0723 184.749 29.7599 184.757Z" fill="#263238"/>
<path d="M30.1097 185.464C30.0864 185.457 30.0655 185.444 30.0497 185.426C30.0338 185.408 30.0237 185.385 30.0205 185.361C30.0162 185.338 30.0192 185.315 30.029 185.294C30.0389 185.273 30.0551 185.256 30.0754 185.244C30.2606 185.128 31.9002 184.119 32.4627 184.408C32.5262 184.437 32.5796 184.485 32.6162 184.545C32.6528 184.604 32.671 184.674 32.6685 184.744C32.6872 184.864 32.6736 184.987 32.629 185.1C32.5844 185.214 32.5104 185.313 32.4147 185.388C32.1307 185.587 31.7858 185.679 31.4405 185.649C30.9916 185.635 30.5454 185.573 30.1097 185.464ZM30.4596 185.292C31.0527 185.493 31.7001 185.462 32.2706 185.203C32.33 185.149 32.3754 185.082 32.4029 185.007C32.4304 184.931 32.4391 184.851 32.4284 184.771C32.4284 184.675 32.3872 184.627 32.3529 184.627C32.3042 184.602 32.2498 184.59 32.1951 184.593C31.5775 184.714 30.9886 184.951 30.4596 185.292Z" fill="#037AD0"/>
<path d="M30.0756 185.485C30.0577 185.473 30.0432 185.456 30.0335 185.437C30.0239 185.418 30.0195 185.396 30.0207 185.375C30.0207 185.306 30.151 183.845 30.7067 183.365C30.7748 183.304 30.8557 183.258 30.9435 183.232C31.0313 183.206 31.1238 183.2 31.2143 183.214C31.3055 183.215 31.3938 183.246 31.4648 183.304C31.5357 183.361 31.5853 183.44 31.6054 183.529C31.7083 184.065 30.693 185.183 30.1648 185.471H30.1099L30.0756 185.485ZM30.8919 183.516C30.5359 183.973 30.3278 184.528 30.2951 185.107C30.8165 184.709 31.4613 183.866 31.3996 183.536C31.3996 183.536 31.3996 183.413 31.2212 183.413H31.1663C31.0652 183.412 30.9673 183.448 30.8919 183.516Z" fill="#037AD0"/>
<path opacity="0.2" d="M24.3953 173.583H29.4786L29.2591 179.654H24.1758L24.3953 173.583Z" fill="black"/>
<path d="M50.1348 185.725L55.3827 186.28L56.3637 174.975L51.1226 174.419L50.1348 185.725Z" fill="#B97964"/>
<path d="M55.931 184.593H49.7982C49.6972 184.594 49.5994 184.629 49.5209 184.692C49.4424 184.756 49.3878 184.844 49.366 184.943L48.3645 189.47C48.3399 189.565 48.3344 189.664 48.3484 189.762C48.3624 189.859 48.3955 189.952 48.446 190.036C48.4964 190.121 48.5631 190.194 48.6421 190.252C48.7212 190.311 48.811 190.353 48.9064 190.376H49.071C51.0673 190.342 52.501 190.218 55.0324 190.218C56.5759 190.218 61.2064 190.376 63.3673 190.376C65.5282 190.376 65.7751 188.27 64.9039 188.078C60.9869 187.227 58.0439 186.02 56.7885 184.915C56.5528 184.705 56.247 184.59 55.931 184.593Z" fill="#263238"/>
<path d="M56.2809 185.3C56.2576 185.293 56.2367 185.28 56.2208 185.262C56.205 185.243 56.1948 185.221 56.1917 185.197C56.1867 185.173 56.1901 185.149 56.2014 185.127C56.2127 185.106 56.2311 185.089 56.2534 185.08C56.4318 184.964 58.0713 183.955 58.6339 184.25C58.6974 184.278 58.7511 184.324 58.7878 184.383C58.8246 184.442 58.8426 184.51 58.8397 184.579C58.8563 184.7 58.8425 184.823 58.7993 184.937C58.7562 185.051 58.6851 185.152 58.5927 185.231C58.3036 185.424 57.958 185.513 57.6117 185.485C57.1628 185.471 56.7166 185.409 56.2809 185.3ZM56.6307 185.135C57.2247 185.334 57.8721 185.3 58.4418 185.039C58.5016 184.986 58.5474 184.918 58.5749 184.843C58.6024 184.767 58.6109 184.686 58.5996 184.607C58.5996 184.511 58.5584 184.47 58.5241 184.47C58.4788 184.442 58.4259 184.43 58.3732 184.435C57.7615 184.555 57.179 184.793 56.6582 185.135H56.6307Z" fill="#037AD0"/>
<path d="M56.2531 185.327C56.2344 185.316 56.2189 185.299 56.2081 185.28C56.1973 185.261 56.1915 185.239 56.1914 185.217C56.1914 185.142 56.3217 183.688 56.9116 183.207C56.9815 183.149 57.0624 183.104 57.1496 183.077C57.2367 183.05 57.3284 183.041 57.4193 183.05C57.5108 183.049 57.5997 183.08 57.6709 183.138C57.7421 183.195 57.7914 183.276 57.8103 183.365C57.9132 183.907 56.8979 185.025 56.3697 185.307H56.3148L56.2531 185.327ZM57.0626 183.351C56.7067 183.806 56.4985 184.359 56.4658 184.936C56.9871 184.545 57.6319 183.694 57.5702 183.365C57.5702 183.365 57.5702 183.242 57.3918 183.242H57.3438C57.2402 183.244 57.1407 183.283 57.0626 183.351Z" fill="#037AD0"/>
<path opacity="0.2" d="M51.1219 174.419L56.3629 174.975L55.8484 180.806L50.6074 180.25L51.1219 174.419Z" fill="black"/>
<path d="M26.4746 70.36H53.455C56.0138 84.362 64.04 133.898 58.257 178.062L49.1263 176.93C49.1263 176.93 49.9701 118.339 41.9165 96.668C40.9904 108.262 39.8585 120.596 38.9324 127.161C36.5863 143.316 31.5647 178.611 31.5647 178.611H22.2969C22.2969 178.611 24.1971 144.819 25.0752 128.945C26.0356 111.692 26.4746 73.9 26.4746 70.36Z" fill="#263238"/>
<path d="M59.3267 180.161L48.0283 178.481L48.3782 175.353L60.1293 176.896L59.3267 180.161Z" fill="#037AD0"/>
<path d="M32.7102 178.673H21.748V175.401L33.1218 175.188L32.7102 178.673Z" fill="#037AD0"/>
<path opacity="0.2" d="M41.9434 96.647C43.2673 100.445 44.2745 104.346 44.9549 108.309C45.7095 98.019 42.6911 87.043 42.6911 87.043L41.9434 96.647Z" fill="black"/>
<path d="M25.7268 75.052L25.1094 78.311C25.1094 78.311 43.9812 80.753 55.7187 80.684L55.3071 78.448L25.7268 75.052Z" fill="#037AD0"/>
<path d="M64.0254 46.8371C64.0254 46.8371 70.5493 67.4171 75.0014 68.7891C79.4536 70.1611 90.7798 53.1551 90.7798 53.1551C90.7798 53.1551 100.953 53.0591 101.406 52.3661C101.859 51.6741 98.7648 44.5051 98.0238 44.4981C97.2828 44.4911 88.4198 47.8251 88.0838 48.3881C87.7478 48.9501 77.5739 58.6781 77.1075 58.3901C76.641 58.1011 72.7719 45.8701 72.7719 45.8701L64.0254 46.8371Z" fill="#B97964"/>
<path d="M92.124 52.044C92.205 52.027 92.285 52.007 92.364 51.982L92.248 51.907C92.21 51.956 92.169 52.002 92.124 52.044Z" fill="#B97964"/>
<path d="M60.3213 44.4629L61.1171 45.9249L64.8283 52.785L65.6035 54.2049L76.0238 50.5829C76.0238 50.5829 71.6883 34.4069 70.186 32.7469L60.3213 44.4629Z" fill="#037AD0"/>
<path opacity="0.4" d="M60.3213 44.4629L61.1171 45.9249L64.8283 52.785L65.6035 54.2049L76.0238 50.5829C76.0238 50.5829 71.6883 34.4069 70.186 32.7469L60.3213 44.4629Z" fill="white"/>
<path opacity="0.2" d="M61.1172 45.925L64.8285 52.785C67.1266 48.278 66.4611 42.104 66.4611 42.104L61.1172 45.925Z" fill="black"/>
<path d="M70.1864 32.753C68.2231 30.486 65.8193 28.642 63.121 27.333C60.4228 26.024 57.4865 25.278 54.4907 25.139C44.283 24.659 41.0725 25.674 37.3407 29.008C31.887 33.878 25.1025 75.814 25.1025 75.814C35.0558 78.585 45.3955 79.709 55.7118 79.141C55.7118 79.141 55.8352 67.479 59.5191 59.651C63.6679 50.932 67.2316 41.946 70.1864 32.753Z" fill="#037AD0"/>
<path opacity="0.4" d="M25.1025 75.814C35.0558 78.586 45.3952 79.712 55.7118 79.148C55.7118 79.148 55.7118 77.707 55.9107 75.505C55.993 74.463 56.1165 73.242 56.288 71.924C56.4595 70.607 56.7065 69.105 56.974 67.61C57.1387 66.807 57.3307 65.997 57.5365 65.195C58.015 63.289 58.6671 61.432 59.4848 59.645C59.9375 58.685 60.3766 57.731 60.8019 56.798C61.5359 55.165 62.2356 53.581 62.8599 52.065C64.2319 48.875 65.3981 45.959 66.3722 43.407C67.0582 41.576 67.6756 39.936 68.1764 38.53C68.7321 36.959 69.1711 35.669 69.4935 34.709C69.912 33.44 70.1178 32.747 70.1178 32.747C69.7769 32.32 69.4104 31.915 69.0202 31.533C65.1917 27.759 60.13 25.494 54.7651 25.153H54.4221C46.6429 24.789 42.9316 25.29 39.9544 27.026C38.9943 27.6 38.0956 28.272 37.2721 29.029C36.4977 29.868 35.888 30.846 35.4748 31.91C34.2068 34.859 33.1657 37.9 32.3603 41.006L31.9076 42.673C31.2216 45.218 30.5767 47.928 29.9593 50.672C29.781 51.454 29.6095 52.236 29.438 53.011C29.1842 54.205 28.9303 55.392 28.6902 56.565C28.0728 59.522 27.5172 62.389 27.0301 64.968C26.3441 68.673 25.7885 71.774 25.4592 73.701C25.2328 75.059 25.1025 75.814 25.1025 75.814ZM55.0807 25.53C55.7689 25.548 56.4558 25.6 57.1387 25.688C59.8827 26.058 64.1016 28.261 63.9987 29.303C63.8958 30.346 62.2905 33.008 58.1882 32.363C56.7589 32.099 55.4024 31.533 54.2094 30.703C51.9456 29.207 50.2992 27.184 50.1346 26.525C49.9288 25.736 52.5905 25.469 55.0875 25.544L55.0807 25.53Z" fill="white"/>
<path d="M46.2856 39.511C46.2856 39.511 40.8799 52.593 39.7686 63.466L54.3873 65.332C54.3873 65.332 60.9454 47.654 62.3037 42.124C62.3037 42.111 50.628 40.944 46.2856 39.511Z" fill="#037AD0"/>
<path opacity="0.4" d="M59.4502 42.625L61.4808 42.824L59.9921 43.976L59.4502 42.625Z" fill="white"/>
<path d="M51.4922 26.559C52.5967 29.715 56.7058 31.155 58.8599 31.361C59.6531 31.486 60.4655 31.347 61.172 30.966C61.8785 30.584 62.44 29.98 62.7701 29.248C62.7701 29.248 60.3073 28.02 60.5543 26.642C60.7288 25.798 61.0743 25 61.5696 24.295C61.826 23.893 62.1054 23.506 62.4065 23.136L58.462 14.678C57.5839 18.341 54.8879 25.379 51.4922 26.559Z" fill="#B97964"/>
<path opacity="0.2" d="M58.3043 18.5811C56.4247 22.6971 59.0795 25.5301 60.5544 26.6141C60.7289 25.7711 61.0744 24.9721 61.5697 24.2681L58.3043 18.5811Z" fill="black"/>
<path d="M71.5312 7.59798C71.5312 7.59798 72.7934 14.568 69.1576 17.36C65.5218 20.152 65.1514 7.13098 65.1514 7.13098L71.5312 7.59798Z" fill="#B97964"/>
<path opacity="0.4" d="M71.5312 7.59798C71.5312 7.59798 72.7934 14.568 69.1576 17.36C65.5218 20.152 65.1514 7.13098 65.1514 7.13098L71.5312 7.59798Z" fill="black"/>
<path d="M58.5305 23.225C59.3412 24.355 60.5003 25.188 61.83 25.596C63.1597 26.004 64.5865 25.964 65.8913 25.482C67.5955 24.884 69.0066 23.657 69.8358 22.052C69.9524 21.839 70.0553 21.606 70.1582 21.366C71.8595 17.037 72.2162 6.47296 67.6337 6.86396C63.847 7.18696 60.1426 6.01996 58.2081 9.29296C57.6555 10.223 57.3311 11.272 57.2614 12.352C56.8498 17.401 56.3696 20.33 58.5305 23.225Z" fill="#B97964"/>
<path d="M64.6228 14.849C64.5405 15.247 64.7326 15.61 65.0001 15.651C65.2677 15.693 65.5283 15.384 65.5901 14.965C65.6518 14.547 65.4735 14.204 65.2128 14.17C64.9521 14.135 64.6846 14.437 64.6228 14.849Z" fill="#263238"/>
<path d="M69.2122 15.501C69.1299 15.899 69.3289 16.262 69.5895 16.304C69.8502 16.345 70.1178 16.036 70.1726 15.618C70.2275 15.199 70.0629 14.856 69.7953 14.815C69.5278 14.774 69.2671 15.117 69.2122 15.501Z" fill="#263238"/>
<path d="M67.7237 15.494C68.0328 16.802 68.5198 18.063 69.1712 19.239C68.8639 19.399 68.5254 19.49 68.1794 19.505C67.8335 19.52 67.4883 19.46 67.168 19.328L67.7237 15.494Z" fill="#A24E3F"/>
<path d="M63.4152 13.162C63.4571 13.174 63.5016 13.175 63.5439 13.164C63.5862 13.153 63.6247 13.131 63.6553 13.1C63.8654 12.884 64.1228 12.719 64.4073 12.619C64.6918 12.519 64.9956 12.486 65.2949 12.524C65.3575 12.536 65.4225 12.524 65.4763 12.489C65.53 12.455 65.5682 12.401 65.583 12.338C65.59 12.308 65.5907 12.276 65.5851 12.245C65.5795 12.214 65.5677 12.185 65.5504 12.158C65.5331 12.132 65.5106 12.11 65.4844 12.092C65.4582 12.075 65.4287 12.063 65.3978 12.057C65.025 12.003 64.6446 12.036 64.2871 12.155C63.9297 12.274 63.6052 12.476 63.3398 12.743C63.2953 12.789 63.2705 12.851 63.2705 12.915C63.2705 12.979 63.2953 13.04 63.3398 13.086C63.3615 13.115 63.3869 13.14 63.4152 13.162Z" fill="#263238"/>
<path d="M71.4067 14.197C71.4509 14.214 71.4997 14.214 71.5439 14.197C71.5744 14.189 71.603 14.175 71.6278 14.156C71.6526 14.137 71.673 14.112 71.6879 14.085C71.7027 14.057 71.7116 14.026 71.714 13.995C71.7164 13.963 71.7122 13.932 71.7017 13.902C71.5929 13.536 71.3978 13.202 71.1327 12.928C70.8677 12.653 70.5405 12.446 70.1787 12.324C70.1486 12.315 70.1168 12.312 70.0854 12.315C70.054 12.319 70.0236 12.328 69.996 12.344C69.9684 12.359 69.9442 12.38 69.9249 12.405C69.9056 12.43 69.8916 12.458 69.8838 12.489C69.8668 12.55 69.8746 12.615 69.9054 12.67C69.9363 12.726 69.9876 12.766 70.0484 12.784C70.3322 12.888 70.5878 13.057 70.795 13.278C71.0022 13.498 71.1552 13.763 71.242 14.053C71.2556 14.089 71.2777 14.121 71.3064 14.146C71.3351 14.171 71.3696 14.188 71.4067 14.197Z" fill="#263238"/>
<path d="M63.9844 19.507C63.9844 19.507 64.8282 21.318 66.5501 21.249" stroke="#263238" stroke-width="0.5" stroke-linecap="round" stroke-linejoin="round"/>
<path d="M61.7957 6.68604L61.8643 8.92204C61.4732 9.06404 61.1503 9.34904 60.9607 9.71904C60.7711 10.089 60.7287 10.518 60.8421 10.918C61.3772 12.839 60.0532 15.624 58.5234 16.639C58.5234 16.639 58.5234 15.83 57.8374 15.953C57.1514 16.077 56.9388 20.289 58.0707 22.409C58.0707 22.409 55.6491 20.179 54.9288 15.672C54.2428 11.508 54.3731 8.86704 54.9288 6.87104L61.7957 6.68604Z" fill="#B97964"/>
<path opacity="0.4" d="M61.7957 6.68604L61.8643 8.92204C61.4732 9.06404 61.1503 9.34904 60.9607 9.71904C60.7711 10.089 60.7287 10.518 60.8421 10.918C61.3772 12.839 60.0532 15.624 58.5234 16.639C58.5234 16.639 58.5234 15.83 57.8374 15.953C57.1514 16.077 56.9388 20.289 58.0707 22.409C58.0707 22.409 55.6491 20.179 54.9288 15.672C54.2428 11.508 54.3731 8.86704 54.9288 6.87104L61.7957 6.68604Z" fill="black"/>
<path d="M54.5458 9.36801C56.9939 9.60801 59.4644 9.45701 61.8653 8.92201C68.7733 7.55001 71.7163 10.088 71.7163 10.088C72.1943 9.65801 72.5708 9.12801 72.8188 8.53401C73.0667 7.94101 73.1799 7.30001 73.15 6.65801C72.9511 4.66881 70.1865 4.33261 70.1865 4.33261C70.1865 4.33261 69.3564 2.08941 67.5248 1.41031C65.6932 0.731112 63.8548 2.43241 63.8548 2.43241C63.8548 2.43241 61.5704 0.223509 58.9088 0.854609C58.0127 1.03851 57.207 1.52441 56.6264 2.23121C56.0457 2.93801 55.7252 3.82271 55.7188 4.73741C55.7188 4.73741 52.5976 5.05301 52.6662 6.65801C52.7348 8.26301 54.5458 9.36801 54.5458 9.36801Z" fill="#263238"/>
<path d="M65.1573 17.772C66.3962 17.772 67.4005 16.614 67.4005 15.185C67.4005 13.757 66.3962 12.599 65.1573 12.599C63.9184 12.599 62.9141 13.757 62.9141 15.185C62.9141 16.614 63.9184 17.772 65.1573 17.772Z" stroke="#263238" stroke-width="0.5" stroke-linecap="round" stroke-linejoin="round"/>
<path d="M73.0397 15.569C72.9779 15.999 72.794 16.401 72.5099 16.729C72.2258 17.057 71.8534 17.296 71.4372 17.419C71.0209 17.541 70.5782 17.541 70.1619 17.419C69.7456 17.297 69.3731 17.058 69.0888 16.73C68.8045 16.402 68.6204 16 68.5584 15.57C68.4964 15.141 68.5591 14.703 68.739 14.308C68.9189 13.913 69.2085 13.578 69.5732 13.343C69.938 13.109 70.3626 12.983 70.7965 12.983C71.4354 13.032 72.0293 13.331 72.4492 13.815C72.8691 14.299 73.0813 14.93 73.0397 15.569Z" stroke="#263238" stroke-width="0.5" stroke-linecap="round" stroke-linejoin="round"/>
<path d="M67.3936 15.4941C67.3936 15.4941 68.1208 15.041 68.553 15.57" stroke="#263238" stroke-width="0.5" stroke-linecap="round" stroke-linejoin="round"/>
<path d="M62.9141 15.1849L58.9833 14.6569C58.4681 14.5899 57.9475 14.7309 57.5358 15.0479L57.3643 15.1849" stroke="#263238" stroke-width="0.5" stroke-linecap="round" stroke-linejoin="round"/>
<path d="M54.5035 16.132C54.8977 17.338 55.7536 18.339 56.8839 18.917C58.3863 19.665 59.4564 18.402 59.3055 16.818C59.1683 15.404 58.2285 13.278 56.5615 13.196C56.2057 13.184 55.8525 13.261 55.534 13.42C55.2155 13.579 54.9416 13.815 54.7373 14.106C54.5329 14.398 54.4045 14.736 54.3637 15.089C54.3229 15.443 54.3709 15.801 54.5035 16.132Z" fill="#B97964"/>
<path opacity="0.2" d="M29.4375 53.032C35.9133 50.343 41.0309 39.236 41.0309 39.236L37.3539 37.014L32.3599 41.027L31.9071 42.694C31.2211 45.239 30.5763 47.949 29.9589 50.693C29.7805 51.475 29.609 52.257 29.4375 53.032Z" fill="black"/>
<path d="M65.1025 54.212L76.2706 50.109L76.593 51.056L65.418 55.035L65.1025 54.212Z" fill="#037AD0"/>
<path d="M36.1665 82.442L3.79393 77.309L0.62793 97.276L33.0005 102.409L36.1665 82.442Z" fill="#037AD0"/>
<path d="M15.2438 84.91L8.66504 88.32L13.8649 93.595" stroke="white" stroke-width="2" stroke-linecap="round" stroke-linejoin="round"/>
<path d="M21.5283 94.809L28.1002 91.4L22.9071 86.125" stroke="white" stroke-width="2" stroke-linecap="round" stroke-linejoin="round"/>
<path d="M16.1562 93.958L20.6152 85.761" stroke="white" stroke-width="2" stroke-linecap="round" stroke-linejoin="round"/>
<path d="M33.4781 30.798C33.4781 30.798 21.2741 43.043 19.614 45.424C17.9539 47.804 14.7708 74.195 14.7708 74.195C14.7708 74.195 14.0848 74.428 14.0437 74.997C14.0025 75.567 13.9339 82.976 14.0437 83.319C14.1534 83.662 19.7649 87.126 20.595 86.303C21.425 85.479 22.5775 77.09 22.5775 77.09L19.614 74.195C19.614 74.195 23.044 54.76 25.2186 51.612C27.3932 48.463 36.2564 41.726 36.2564 41.726L33.4781 30.798Z" fill="#B97964"/>
<path d="M42.8556 25.866C44.6323 29.632 43.2809 37.563 40.0018 40.361C36.5323 43.239 32.8646 45.868 29.0258 48.23L23.0439 40.389C23.0439 40.389 29.41 34.174 33.2653 30.593C35.8875 28.051 39.2423 26.397 42.8556 25.866Z" fill="#037AD0"/>
<path opacity="0.4" d="M42.8556 25.866C44.6323 29.632 43.2809 37.563 40.0018 40.361C36.5323 43.239 32.8646 45.868 29.0258 48.23L23.0439 40.389C23.0439 40.389 29.41 34.174 33.2653 30.593C35.8875 28.051 39.2423 26.397 42.8556 25.866Z" fill="white"/>
<path d="M23.0436 39.8879L22.3027 40.8969L28.5522 49.0669L29.4371 48.4359L23.0436 39.8879Z" fill="#037AD0"/>
</svg>
