<svg width="261" height="260" viewBox="0 0 261 260" fill="none" xmlns="http://www.w3.org/2000/svg">
<g clip-path="url(#clip0_34_898)">
<path d="M221.747 115.63C215.207 122.961 214.049 132.794 213.002 142.822C212.22 150.239 211.5 157.767 208.705 164.473C206.343 170.044 202.585 174.913 197.791 178.612C197.361 178.947 196.923 179.27 196.477 179.585H172.632C172.595 179.262 172.566 178.935 172.537 178.612C171.511 166.407 174.284 154.183 180.476 143.611C182.954 139.47 185.945 135.657 189.377 132.262C193.097 138.748 197.688 145.017 197.688 145.017L195.614 126.839C203.282 121.035 212.252 117.187 221.747 115.63Z" fill="#F2F2F2"/>
<path d="M261 137.048C245.122 143.394 240.445 163.774 227.513 174.955C225.917 176.33 224.196 177.555 222.373 178.613C221.784 178.956 221.187 179.283 220.577 179.585H186.251C186.333 179.262 186.411 178.935 186.497 178.613C190.155 164.436 199.228 151.662 211.566 143.713C212.04 143.407 212.519 143.108 213.002 142.822C216.66 140.632 220.55 138.853 224.6 137.518C225.033 144.976 226.343 152.634 226.343 152.634L232.604 135.442C242.059 133.662 251.807 134.213 261 137.048Z" fill="#F2F2F2"/>
<path d="M260.951 179.099C260.951 179.163 260.939 179.226 260.914 179.285C260.89 179.344 260.854 179.398 260.809 179.443C260.763 179.488 260.71 179.524 260.651 179.548C260.591 179.573 260.528 179.585 260.464 179.585H0.48698C0.357825 179.585 0.233958 179.534 0.142632 179.442C0.0513058 179.351 0 179.228 0 179.099C0 178.97 0.0513058 178.846 0.142632 178.755C0.233958 178.664 0.357825 178.612 0.48698 178.612H260.464C260.528 178.612 260.591 178.625 260.651 178.649C260.71 178.673 260.763 178.709 260.809 178.754C260.854 178.8 260.89 178.853 260.914 178.912C260.939 178.971 260.951 179.035 260.951 179.099Z" fill="#CCCCCC"/>
<path d="M163.449 182.725H118.019C115.92 182.726 113.841 182.314 111.901 181.512C109.962 180.711 108.199 179.536 106.715 178.054C105.23 176.572 104.052 174.813 103.249 172.876C102.445 170.94 102.032 168.864 102.032 166.768C102.032 164.672 102.445 162.596 103.249 160.66C104.052 158.723 105.23 156.964 106.715 155.482C108.199 154 109.962 152.825 111.901 152.023C113.841 151.222 115.92 150.81 118.019 150.811H163.449C165.548 150.81 167.627 151.222 169.567 152.023C171.506 152.825 173.269 154 174.753 155.482C176.238 156.964 177.416 158.723 178.219 160.66C179.023 162.596 179.436 164.672 179.436 166.768C179.436 168.864 179.023 170.94 178.219 172.876C177.416 174.813 176.238 176.572 174.753 178.054C173.269 179.536 171.506 180.711 169.567 181.512C167.627 182.314 165.548 182.726 163.449 182.725Z" fill="#2F2E41"/>
<path d="M121.522 240.905L127.71 245.319L147.702 223.588L138.57 217.074L121.522 240.905Z" fill="#FFB6B6"/>
<path d="M121.387 237.762L123.129 239.005L131.903 241.094L133.572 246.454L133.573 246.455C135.632 247.924 137.022 250.15 137.438 252.643C137.854 255.136 137.261 257.692 135.79 259.748L135.61 260L115.66 245.769L121.387 237.762Z" fill="#2F2E41"/>
<path d="M156.647 176.54L150.719 167.835C149.993 158.389 157.274 150.068 166.76 149.882C172.042 149.779 177.206 152.309 179.96 160.865C187.041 182.868 139.599 233.779 139.599 233.779L129.692 228.738L128.75 222.629L133.761 218.944L133.332 213.703L138.169 210.904L156.647 176.54Z" fill="#2F2E41"/>
<path d="M141.16 71.3013L148.488 76.8734L157.325 79.5854C157.325 79.5854 160.979 130.905 164.271 134.193C167.563 137.48 164.594 137.568 165.255 141.839C165.917 146.109 167.524 154.863 167.524 154.863C145.304 166.61 126.147 166.925 110.759 153.18C110.562 152.329 110.662 151.438 111.043 150.652C111.423 149.866 112.061 149.234 112.85 148.86C115.714 147.342 110.21 140.259 112.551 139.075C114.891 137.891 111.599 127.618 111.599 127.618L113.759 106.184L112.053 102.757L116.216 81.7925L123.441 79.1577L126.327 72.2141L141.16 71.3013Z" fill="#037AD0"/>
<path d="M133.658 68.1997C141.663 68.1997 148.153 61.7192 148.153 53.7251C148.153 45.731 141.663 39.2505 133.658 39.2505C125.653 39.2505 119.164 45.731 119.164 53.7251C119.164 61.7192 125.653 68.1997 133.658 68.1997Z" fill="#FFB6B6"/>
<path d="M86.9732 26.1973C87.5831 26.8966 88.0321 27.721 88.2885 28.6123C88.5448 29.5036 88.6024 30.4403 88.4571 31.3562C88.3117 32.2722 87.9671 33.1452 87.4473 33.9138C86.9276 34.6823 86.2455 35.3277 85.4489 35.8045L90.0664 57.8707L79.1595 53.5583L76.4467 33.265C75.7333 31.8757 75.5551 30.2733 75.9457 28.7614C76.3364 27.2496 77.2688 25.9334 78.5663 25.0622C79.8638 24.191 81.4363 23.8254 82.9857 24.0346C84.5351 24.2438 85.9539 25.0133 86.9731 26.1973L86.9732 26.1973Z" fill="#FFB6B6"/>
<path d="M76.5547 40.9429L80.9653 81.5043L81.1216 81.5809C81.2504 81.644 86.8383 84.381 93.6974 87.6406C94.8546 88.1905 94.6887 90.5724 95.8981 91.1417C96.7311 91.5339 98.9309 90.111 99.7726 90.5041C107.27 94.0053 114.851 97.4098 117.872 98.3323C121.951 99.6229 126.35 99.4815 130.337 97.9316L130.433 97.8876L130.483 97.7944C131.502 95.8886 131.84 93.6931 131.442 91.5697C131.043 89.4464 129.932 87.522 128.291 86.1139C120.334 79.3578 110.913 74.541 100.772 72.0437L95.0019 70.63L87.6119 41.7358L76.5547 40.9429Z" fill="#037AD0"/>
<path d="M121.852 41.2903C123.044 37.8272 128.978 35.4252 138.598 35.0912C148.218 34.7572 150.657 46.078 150.657 46.078C157.079 51.2802 143.8 65.208 143.158 64.7063L143.446 62.0896C143.925 57.7553 145.957 54.3734 143.372 49.8563L140.89 49.8847L136.183 50.7887C135.889 50.8451 135.586 50.8035 135.318 50.6704C135.051 50.5372 134.834 50.32 134.703 50.052C134.571 49.7841 134.532 49.4804 134.59 49.1877C134.648 48.8951 134.801 48.6297 135.026 48.4325L135.069 48.3946L134.962 48.2292C133.303 48.989 131.594 49.6936 129.781 49.8C127.742 49.9197 125.512 49.1091 124.535 47.317C124.274 46.8244 124.115 46.2846 124.066 45.7295C121.315 46.8269 120.058 50.2131 120.058 50.2131C120.058 50.2131 120.66 44.7533 121.852 41.2903Z" fill="#2F2E41"/>
<path d="M114.207 11.9C113.385 8.89833 111.696 6.20505 109.35 4.15648C107.004 2.1079 104.106 0.794811 101.017 0.381176C100.949 0.371033 100.884 0.384445 100.816 0.379811C100.728 0.351562 100.638 0.329811 100.547 0.314736C86.1399 -1.64184 69.5095 5.59869 63.5052 19.9511C60.5325 15.8135 55.7927 13.1403 50.7234 13.406C44.2564 13.7451 38.549 18.6919 36.8007 25.1983C36.7043 25.5894 36.7306 26.0007 36.876 26.3764C37.0215 26.7521 37.2792 27.074 37.614 27.2985C38.7438 28.1488 39.5155 28.7447 40.9055 29.0541C43.5218 29.6366 46.1475 30.1701 48.7825 30.6548C53.9243 31.6003 59.0929 32.3648 64.2883 32.9481C74.8302 34.1356 85.4447 34.5572 96.0478 34.2096C99.5787 34.094 102.984 33.9708 106.219 32.3333C108.598 31.0885 110.609 29.244 112.054 26.9828C114.878 22.6761 115.624 16.888 114.207 11.9Z" fill="#3F3D56"/>
<path d="M112.619 12.66C111.84 9.99762 110.284 7.62738 108.15 5.8518C105.931 4.04428 103.251 2.8921 100.412 2.52532H100.24L100.08 2.49672C100.029 2.48074 99.9772 2.46845 99.9246 2.45994C95.1737 1.89618 90.3589 2.24011 85.7368 3.47341C76.8525 5.80685 68.4388 11.3319 64.5102 20.2447L63.9496 21.5239L63.1107 20.4082C60.3484 16.7589 56.207 14.6298 51.9306 14.6298C51.7178 14.6298 51.505 14.6339 51.2881 14.6461C45.3462 14.9404 40.0508 19.2068 38.4057 25.022C38.3645 25.2278 38.389 25.4414 38.4756 25.6327C38.5622 25.824 38.7066 25.9834 38.8886 26.0886L38.9541 26.1376C40.0058 26.8855 40.6401 27.3391 41.8064 27.5883C44.3477 28.1277 46.934 28.6263 49.4916 29.0718C54.4515 29.9381 59.5422 30.6533 64.6166 31.1968C73.5914 32.1589 82.6164 32.5779 91.6419 32.4514C92.9637 32.435 94.2827 32.4064 95.5991 32.3656C98.9875 32.2634 102.192 32.1612 105.228 30.7023C107.404 29.6258 109.262 28.0036 110.622 25.9946C111.908 24.0519 112.754 21.8517 113.099 19.5481C113.444 17.2446 113.28 14.8936 112.619 12.66Z" fill="white"/>
<path d="M91.6419 32.4516C82.6164 32.5781 73.5915 32.1592 64.6166 31.197C59.5422 30.6535 54.4515 29.9383 49.4917 29.072C46.934 28.6266 44.3477 28.128 41.8064 27.5886C40.6401 27.3393 40.0058 26.8857 38.9541 26.1378L38.8886 26.0888C38.7066 25.9837 38.5622 25.8243 38.4756 25.633C38.389 25.4417 38.3645 25.2281 38.4057 25.0222C40.0508 19.207 45.3462 14.9406 51.2881 14.6464C51.505 14.6341 51.7178 14.63 51.9306 14.63C56.207 14.63 60.3484 16.7591 63.1107 20.4084L63.9496 21.5241L64.5102 20.245C68.4388 11.3321 76.8525 5.80707 85.7368 3.47363C87.5292 5.09192 88.6832 7.57248 88.0284 9.87322C87.2386 12.6644 84.1121 14.4052 83.5883 17.2577C83.1095 19.8608 84.9756 22.2801 86.8949 24.1027C88.8141 25.9212 91.0362 27.7479 91.5928 30.3307C91.7417 31.0284 91.7584 31.7478 91.6419 32.4516Z" fill="#037AD0"/>
<path d="M99.3558 24.5193C103.424 24.5193 106.722 21.226 106.722 17.1635C106.722 13.1009 103.424 9.80762 99.3558 9.80762C95.2876 9.80762 91.9897 13.1009 91.9897 17.1635C91.9897 21.226 95.2876 24.5193 99.3558 24.5193Z" fill="#037AD0"/>
<path d="M102.443 16.379L99.6812 13.6205C99.6384 13.5778 99.5877 13.544 99.5318 13.5208C99.476 13.4977 99.4161 13.4858 99.3557 13.4858C99.2952 13.4858 99.2353 13.4977 99.1795 13.5208C99.1236 13.544 99.0729 13.5778 99.0302 13.6205L96.2679 16.379C96.1817 16.4652 96.1332 16.5821 96.1333 16.704C96.1334 16.8258 96.1818 16.9426 96.2681 17.0288C96.3544 17.115 96.4714 17.1634 96.5935 17.1634C96.7155 17.1635 96.8325 17.1152 96.9189 17.0291L98.8953 15.0554V20.382C98.8953 20.5039 98.9438 20.6208 99.0301 20.707C99.1164 20.7933 99.2336 20.8417 99.3557 20.8417C99.4778 20.8417 99.5948 20.7933 99.6812 20.707C99.7675 20.6208 99.816 20.5039 99.816 20.382V15.0554L101.792 17.0291C101.835 17.0718 101.886 17.1057 101.942 17.1289C101.998 17.152 102.058 17.164 102.118 17.164C102.178 17.164 102.238 17.1521 102.294 17.129C102.35 17.1059 102.401 17.0721 102.444 17.0294C102.486 16.9866 102.52 16.9359 102.544 16.8801C102.567 16.8243 102.579 16.7645 102.579 16.7041C102.578 16.6437 102.567 16.5839 102.543 16.5281C102.52 16.4723 102.486 16.4216 102.443 16.379Z" fill="white"/>
<path d="M160.999 234.748L155.196 239.654L133.483 219.638L142.047 212.396L160.999 234.748Z" fill="#FFB6B6"/>
<path d="M167.242 239.113L148.531 254.934L148.331 254.698C146.695 252.769 145.894 250.271 146.103 247.752C146.313 245.233 147.515 242.901 149.446 241.268L149.447 241.267L150.669 235.788L159.241 232.985L160.875 231.604L167.242 239.113Z" fill="#2F2E41"/>
<path d="M125.137 179.401L129.934 169.014C129.88 159.54 121.938 151.846 112.469 152.439C107.196 152.77 102.258 155.715 100.218 164.469C94.9722 186.979 146.446 233.822 146.446 233.822L155.904 227.985L156.34 221.818L151.043 218.558L151.038 213.299L145.987 210.907L125.137 179.401Z" fill="#2F2E41"/>
<path d="M121.408 159.391V123.309C121.409 122.578 121.699 121.878 122.217 121.362C122.734 120.845 123.435 120.555 124.166 120.554H151.454C152.185 120.555 152.886 120.846 153.404 121.362C153.921 121.878 154.212 122.578 154.212 123.309V159.391C154.212 160.121 153.921 160.821 153.404 161.338C152.886 161.854 152.185 162.145 151.454 162.146H124.166C123.435 162.145 122.734 161.854 122.217 161.338C121.699 160.821 121.409 160.121 121.408 159.391Z" fill="#E6E6E6"/>
<path d="M123.501 148.492V125.296C123.502 124.612 123.774 123.956 124.258 123.472C124.743 122.989 125.399 122.717 126.084 122.716H149.536C150.221 122.717 150.878 122.989 151.362 123.472C151.846 123.956 152.119 124.612 152.119 125.296V157.404C152.119 158.088 151.846 158.744 151.362 159.227C150.878 159.711 150.221 159.983 149.536 159.984H135.008C131.957 159.98 129.032 158.768 126.875 156.614C124.718 154.46 123.504 151.539 123.501 148.492Z" fill="white"/>
<path d="M127.298 131.768C127.299 131.1 127.565 130.459 128.039 129.986C128.512 129.514 129.153 129.248 129.823 129.247H146.091C146.761 129.247 147.403 129.513 147.876 129.985C148.35 130.458 148.615 131.099 148.615 131.768C148.615 132.437 148.35 133.078 147.876 133.551C147.403 134.023 146.761 134.289 146.091 134.289H129.823C129.153 134.288 128.512 134.022 128.039 133.55C127.565 133.077 127.299 132.436 127.298 131.768Z" fill="#E6E6E6"/>
<path d="M127.298 139.611C127.299 138.942 127.565 138.302 128.039 137.829C128.512 137.356 129.153 137.091 129.823 137.09H146.091C146.761 137.09 147.403 137.355 147.876 137.828C148.35 138.301 148.615 138.942 148.615 139.611C148.615 140.279 148.35 140.921 147.876 141.393C147.403 141.866 146.761 142.132 146.091 142.132H129.823C129.153 142.131 128.512 141.865 128.039 141.392C127.565 140.92 127.299 140.279 127.298 139.611Z" fill="#E6E6E6"/>
<path d="M127.298 147.454C127.299 146.785 127.565 146.144 128.039 145.672C128.512 145.199 129.153 144.933 129.823 144.933H146.091C146.761 144.933 147.403 145.198 147.876 145.671C148.35 146.144 148.615 146.785 148.615 147.454C148.615 148.122 148.35 148.763 147.876 149.236C147.403 149.709 146.761 149.974 146.091 149.974H129.823C129.153 149.974 128.512 149.708 128.039 149.235C127.565 148.763 127.299 148.122 127.298 147.454Z" fill="#E6E6E6"/>
<path d="M145.751 162.514C145.718 161.587 145.889 160.664 146.252 159.81C146.615 158.957 147.16 158.193 147.851 157.573C148.541 156.953 149.36 156.491 150.248 156.221C151.136 155.951 152.073 155.878 152.993 156.009L163.32 135.963L169.074 146.172L158.385 163.642C158.063 165.17 157.191 166.527 155.934 167.456C154.677 168.385 153.123 168.821 151.566 168.682C150.008 168.543 148.556 167.838 147.484 166.701C146.413 165.564 145.796 164.074 145.751 162.514H145.751Z" fill="#FFB6B6"/>
<path d="M163.143 157.61L185.293 123.327L185.22 123.169C185.137 122.988 180.121 112.17 175.26 102.262C174.512 100.736 173.767 99.2313 173.045 97.7906C172.733 97.1689 172.426 96.5601 172.123 95.9644C170.082 91.9456 168.298 88.6239 167.234 87.0461C164.879 83.4786 161.373 80.8228 157.298 79.5195L157.196 79.4932L157.098 79.5339C155.105 80.3738 153.458 81.8668 152.428 83.7669C151.399 85.667 151.049 87.8607 151.435 89.9862C153.357 100.238 157.638 109.904 163.941 118.221L167.532 122.948L155.053 150.041L163.143 157.61Z" fill="#037AD0"/>
</g>
<defs>
<clipPath id="clip0_34_898">
<rect width="261" height="260" fill="white"/>
</clipPath>
</defs>
</svg>
