<svg width="24" height="24" viewBox="0 0 24 24" fill="none" xmlns="http://www.w3.org/2000/svg">
<path fill-rule="evenodd" clip-rule="evenodd" d="M9.59151 15.2068C13.2805 15.2068 16.4335 15.7658 16.4335 17.9988C16.4335 20.2318 13.3015 20.8068 9.59151 20.8068C5.90151 20.8068 2.74951 20.2528 2.74951 18.0188C2.74951 15.7848 5.88051 15.2068 9.59151 15.2068Z" stroke="currentColor" stroke-width="1.5" stroke-linecap="round" stroke-linejoin="round"/>
<path fill-rule="evenodd" clip-rule="evenodd" d="M9.59157 12.0198C7.16957 12.0198 5.20557 10.0568 5.20557 7.63482C5.20557 5.21282 7.16957 3.24982 9.59157 3.24982C12.0126 3.24982 13.9766 5.21282 13.9766 7.63482C13.9856 10.0478 12.0356 12.0108 9.62257 12.0198H9.59157Z" stroke="currentColor" stroke-width="1.5" stroke-linecap="round" stroke-linejoin="round"/>
<path d="M16.4832 10.8816C18.0842 10.6566 19.3172 9.28265 19.3202 7.61965C19.3202 5.98065 18.1252 4.62065 16.5582 4.36365" stroke="currentColor" stroke-width="1.5" stroke-linecap="round" stroke-linejoin="round"/>
<path d="M18.5955 14.7322C20.1465 14.9632 21.2295 15.5072 21.2295 16.6272C21.2295 17.3982 20.7195 17.8982 19.8955 18.2112" stroke="currentColor" stroke-width="1.5" stroke-linecap="round" stroke-linejoin="round"/>
</svg>
