<svg width="20" height="20" viewBox="0 0 20 20" fill="none" xmlns="http://www.w3.org/2000/svg">
<path opacity="0.4" d="M14.3328 20H5.66618C2.2769 20 0 17.6229 0 14.0843V5.91672C0 2.37811 2.2769 0 5.66618 0H14.3338C17.7231 0 20 2.37811 20 5.91672V14.0843C20 17.6229 17.7231 20 14.3328 20Z" fill="currentColor"/>
<path fill-rule="evenodd" clip-rule="evenodd" d="M9.245 6.67496C9.245 8.04497 8.13 9.15997 6.76 9.15997C5.389 9.15997 4.275 8.04497 4.275 6.67496C4.275 5.30496 5.389 4.18896 6.76 4.18896C8.13 4.18896 9.245 5.30496 9.245 6.67496ZM17.4004 12.0876C17.6334 12.3136 17.8004 12.5716 17.9104 12.8466C18.2434 13.6786 18.0704 14.6786 17.7144 15.5026C17.2924 16.4836 16.4844 17.2246 15.4664 17.5486C15.0144 17.6936 14.5404 17.7556 14.0674 17.7556H5.6864C4.8524 17.7556 4.1144 17.5616 3.5094 17.1976C3.1304 16.9696 3.0634 16.4446 3.3444 16.1026C3.8144 15.5326 4.2784 14.9606 4.7464 14.3836C5.6384 13.2796 6.2394 12.9596 6.9074 13.2406C7.1784 13.3566 7.4504 13.5316 7.7304 13.7156C8.4764 14.2096 9.5134 14.8876 10.8794 14.1516C11.8131 13.641 12.3551 12.7673 12.8269 12.0069L12.8364 11.9916C12.8682 11.9407 12.8996 11.8898 12.931 11.8391C13.0914 11.5799 13.2494 11.3246 13.4284 11.0896C13.6504 10.7986 14.4744 9.88857 15.5394 10.5366C16.2184 10.9446 16.7894 11.4966 17.4004 12.0876Z" fill="currentColor"/>
</svg>
