<svg xmlns="http://www.w3.org/2000/svg" width="44" height="43" viewBox="0 0 44 43" fill="none"><path fill-rule="evenodd" clip-rule="evenodd" d="M17.3989 28.9468C9.0702 28.9468 1.95703 30.2056 1.95703 35.2496C1.95703 40.2936 9.02686 41.598 17.3989 41.598C25.7297 41.598 32.8407 40.3369 32.8407 35.2951C32.8407 30.2533 25.773 28.9468 17.3989 28.9468Z" stroke="white" stroke-width="2" stroke-linecap="round" stroke-linejoin="round"></path><path fill-rule="evenodd" clip-rule="evenodd" d="M17.3991 21.7528C22.8656 21.7528 27.2965 17.322 27.2965 11.8555C27.2965 6.38896 22.8656 1.95813 17.3991 1.95813C11.9348 1.95813 7.50397 6.38896 7.50397 11.8555C7.48447 17.3025 11.8828 21.7333 17.332 21.7528H17.3991Z" stroke="white" stroke-width="2" stroke-linecap="round" stroke-linejoin="round"></path><path d="M37.6068 14.7831V23.4714" stroke="white" stroke-width="2" stroke-linecap="round" stroke-linejoin="round"></path><path d="M42.0394 19.127H33.1777" stroke="white" stroke-width="2" stroke-linecap="round" stroke-linejoin="round"></path></svg>