<svg xmlns="http://www.w3.org/2000/svg" width="41" height="39" viewBox="0 0 41 39" fill="none"><path fill-rule="evenodd" clip-rule="evenodd" d="M15.9827 25.6808C23.6681 25.6808 30.2368 26.8454 30.2368 31.4975C30.2368 36.1495 23.7118 37.3475 15.9827 37.3475C8.29518 37.3475 1.72852 36.1933 1.72852 31.5391C1.72852 26.885 8.25143 25.6808 15.9827 25.6808Z" stroke="white" stroke-width="1.5" stroke-linecap="round" stroke-linejoin="round"></path><path fill-rule="evenodd" clip-rule="evenodd" d="M15.9832 19.0412C10.9374 19.0412 6.8457 14.9516 6.8457 9.9058C6.8457 4.85997 10.9374 0.770386 15.9832 0.770386C21.027 0.770386 25.1186 4.85997 25.1186 9.9058C25.1374 14.9329 21.0749 19.0225 16.0478 19.0412H15.9832Z" stroke="white" stroke-width="1.5" stroke-linecap="round" stroke-linejoin="round"></path><path d="M30.3398 16.67C33.6753 16.2012 36.244 13.3387 36.2503 9.87415C36.2503 6.45957 33.7607 3.62624 30.4961 3.09082" stroke="white" stroke-width="1.5" stroke-linecap="round" stroke-linejoin="round"></path><path d="M34.7402 24.692C37.9715 25.1733 40.2277 26.3066 40.2277 28.6399C40.2277 30.2462 39.1652 31.2879 37.4486 31.9399" stroke="white" stroke-width="1.5" stroke-linecap="round" stroke-linejoin="round"></path></svg>