<svg xmlns="http://www.w3.org/2000/svg" width="36" height="36" viewBox="0 0 36 36" fill="none"><rect width="36" height="36" rx="18" fill="#C1121F"></rect><path d="M18.0493 10C13.6222 10 10 13.6222 10 18.0493C10 21.3696 12.0123 24.1869 14.8296 25.3943C14.8296 24.7906 14.8296 24.1869 14.9302 23.5832C15.1314 22.8789 15.9363 19.1561 15.9363 19.1561C15.9363 19.1561 15.6345 18.653 15.6345 17.8481C15.6345 16.6407 16.3388 15.7351 17.1437 15.7351C17.8481 15.7351 18.2505 16.2382 18.2505 16.9425C18.2505 17.6468 17.7474 18.7536 17.5462 19.7598C17.345 20.5647 17.9487 21.269 18.8542 21.269C20.3635 21.269 21.3696 19.3573 21.3696 16.9425C21.3696 15.1314 20.1622 13.8234 18.0493 13.8234C15.6345 13.8234 14.1253 15.6345 14.1253 17.6468C14.1253 18.3511 14.3265 18.8542 14.6283 19.2567C14.729 19.4579 14.8296 19.4579 14.729 19.6591C14.729 19.7598 14.6283 20.1622 14.5277 20.2628C14.4271 20.4641 14.3265 20.5647 14.1253 20.4641C13.0185 19.961 12.5154 18.7536 12.5154 17.345C12.5154 15.0308 14.4271 12.3142 18.2505 12.3142C21.3696 12.3142 23.3819 14.5277 23.3819 16.9425C23.3819 20.0616 21.6715 22.4764 19.0554 22.4764C18.1499 22.4764 17.345 21.9733 17.0431 21.4702C17.0431 21.4702 16.54 23.2813 16.4394 23.6838C16.2382 24.2875 15.9364 24.8912 15.6345 25.3943C16.3388 25.5955 17.1437 25.6961 17.9487 25.6961C22.3758 25.6961 25.998 22.0739 25.998 17.6468C26.0986 13.6222 22.4764 10 18.0493 10Z" fill="white"></path></svg>