<svg xmlns="http://www.w3.org/2000/svg" width="36" height="36" viewBox="0 0 36 36" fill="none"><path d="M36 18C36 8.05888 27.9411 0 18 0C8.05888 0 0 8.05888 0 18C0 27.9411 8.05888 36 18 36C27.9411 36 36 27.9411 36 18Z" fill="#1277C1"></path><path d="M26 13.5C25.4 13.8 24.8 13.9 24.1 14C24.8 13.6 25.3 13 25.5 12.2C24.9 12.6 24.2 12.8 23.4 13C22.8 12.4 21.9 12 21 12C18.9 12 17.3 14 17.8 16C15.1 15.9 12.7 14.6 11 12.6C10.1 14.1 10.6 16 12 17C11.5 17 11 16.8 10.5 16.6C10.5 18.1 11.6 19.5 13.1 19.9C12.6 20 12.1 20.1 11.6 20C12 21.3 13.2 22.3 14.7 22.3C13.5 23.2 11.7 23.7 10 23.5C11.5 24.4 13.2 25 15 25C21.1 25 24.5 19.9 24.3 15.2C25 14.8 25.6 14.2 26 13.5Z" fill="white"></path></svg>